<svg width="20" height="20" viewBox="0 0 20 20" fill="none" xmlns="http://www.w3.org/2000/svg">
<rect width="20" height="20" fill="white"/>
<path fill-rule="evenodd" clip-rule="evenodd" d="M9.99996 17.5C12.7763 17.5 15 15.2956 15 12.6094C15 10.3774 13.6759 7.82378 12.2311 5.73374C11.523 4.70928 10.8132 3.83472 10.2802 3.21616C10.18 3.09991 10.0862 2.99286 9.99996 2.89574C9.91375 2.99286 9.81996 3.09991 9.71975 3.21616C9.18671 3.83472 8.47696 4.70928 7.76879 5.73374C6.324 7.82378 4.99996 10.3774 4.99996 12.6094C4.99996 15.2956 7.22358 17.5 9.99996 17.5ZM9.43317 2.27916C7.96763 3.92034 4.16663 8.56653 4.16663 12.6094C4.16663 15.7707 6.77829 18.3333 9.99996 18.3333C13.2216 18.3333 15.8333 15.7707 15.8333 12.6094C15.8333 8.56653 12.0323 3.92034 10.5668 2.27916C10.2168 1.88721 9.99996 1.66666 9.99996 1.66666C9.99996 1.66666 9.78317 1.88721 9.43317 2.27916Z" fill="#A6B8D0"/>
<path d="M12.9167 11.3047C12.9167 12.8853 11.6109 14.1667 10 14.1667C8.38921 14.1667 7.08337 12.8853 7.08337 11.3047C7.08337 8.80051 10 5.83334 10 5.83334C10 5.83334 12.9167 8.80051 12.9167 11.3047Z" fill="#A6B8D0"/>
<path fill-rule="evenodd" clip-rule="evenodd" d="M10 13.75C11.3882 13.75 12.5 12.6478 12.5 11.3047C12.5 10.1887 11.838 8.91191 11.1156 7.86688C10.7615 7.35466 10.4067 6.91738 10.1401 6.6081C10.09 6.54997 10.0431 6.49645 10 6.44789C9.95694 6.49645 9.91004 6.54997 9.85994 6.6081C9.59342 6.91738 9.23854 7.35466 8.88446 7.86688C8.16206 8.91191 7.50004 10.1887 7.50004 11.3047C7.50004 12.6478 8.61185 13.75 10 13.75ZM9.71664 6.1396C8.98387 6.96019 7.08337 9.28328 7.08337 11.3047C7.08337 12.8853 8.38921 14.1667 10 14.1667C11.6109 14.1667 12.9167 12.8853 12.9167 11.3047C12.9167 9.28328 11.0162 6.96019 10.2834 6.1396C10.1084 5.94362 10 5.83334 10 5.83334C10 5.83334 9.89164 5.94362 9.71664 6.1396Z" fill="#A6B8D0"/>
</svg>
