<svg width="24" height="24" viewBox="0 0 24 24" fill="none" xmlns="http://www.w3.org/2000/svg">
<path fill-rule="evenodd" clip-rule="evenodd" d="M18.6673 7.75533C18.5855 7.7142 18.4933 7.66653 18.3929 7.6126C17.9972 7.40007 17.4657 7.08547 16.9303 6.679C15.9015 5.898 14.6667 4.63207 14.6667 2.96553C14.6667 1.48156 15.7895 0 17.4583 0C18.2334 0 18.8609 0.309087 19.3333 0.771033C19.8058 0.3091 20.4333 0 21.2083 0C22.8774 0 24 1.48182 24 2.96553C24 4.58053 22.759 5.84753 21.741 6.63427C21.2077 7.0464 20.6783 7.3708 20.2841 7.59153C20.1799 7.64987 20.0847 7.70127 20.0007 7.74547C20.0045 8.90793 20.0233 10.0179 20.0411 11.0687C20.0802 13.3719 20.1145 15.3915 19.9747 17.0588C19.763 19.5842 19.1365 21.6109 17.2649 22.7071C15.4237 23.7857 12.7038 24.1909 10.4513 23.9169C9.3206 23.7794 8.24133 23.4635 7.42513 22.9183C6.83053 22.5211 6.35967 21.9875 6.13813 21.3176C4.75313 21.2545 3.3762 21.0018 2.28635 20.5499C1.11015 20.0623 0 19.2164 0 17.8931V4.74807H0.00194677C0.000653434 4.721 0 4.69387 0 4.66667C0 2.82573 2.9848 1.33333 6.66667 1.33333C10.3485 1.33333 13.3333 2.82573 13.3333 4.66667C13.3333 4.69387 13.3327 4.721 13.3314 4.74807H13.3333V8.71393C15.5949 9.0374 17.3333 10.9823 17.3333 13.3333C17.3333 15.6845 15.5945 17.6297 13.3327 17.9529C13.3017 19.2961 12.2277 20.1465 11.043 20.6286C10.0639 21.0271 8.85693 21.2475 7.62313 21.3127C7.7566 21.4915 7.937 21.6567 8.16573 21.8095C8.7462 22.1973 9.59953 22.4702 10.6123 22.5933C12.6467 22.8408 15.0575 22.4549 16.5911 21.5567C17.8654 20.8103 18.4416 19.3863 18.6461 16.9474C18.7803 15.3457 18.7477 13.4393 18.7091 11.1887C18.6907 10.1229 18.6711 8.97973 18.6673 7.75533ZM17.4583 1.33333C16.6709 1.33333 16 2.06391 16 2.96553C16 3.96173 16.7652 4.87973 17.7364 5.617C18.2009 5.9696 18.6695 6.24767 19.0238 6.438C19.1387 6.49973 19.2407 6.5518 19.3257 6.59373C19.4118 6.54913 19.5156 6.49373 19.6325 6.4282C19.9884 6.22893 20.4589 5.94 20.9257 5.57933C21.9077 4.8204 22.6667 3.90347 22.6667 2.96553C22.6667 2.06403 21.9958 1.33333 21.2083 1.33333C20.6595 1.33333 20.2221 1.63872 19.9163 2.19018L19.3333 3.2416L18.7503 2.19019C18.4445 1.63869 18.0072 1.33333 17.4583 1.33333ZM6.66667 8C8.84747 8 10.7837 7.47647 12 6.667V8.71393C9.73847 9.0374 8 10.9823 8 13.3333C8 15.6837 9.7376 17.6283 11.9983 17.9525C11.9689 18.4713 11.5495 18.9829 10.5403 19.3937C9.52393 19.8073 8.11933 20.0157 6.67427 19.9992C6.46867 19.9969 6.2638 19.9899 6.0606 19.9787V7.9864C6.2602 7.9954 6.4624 8 6.66667 8ZM12 4.66667C12 4.81007 11.8491 5.2988 10.7844 5.83113C9.79947 6.3236 8.34553 6.66667 6.66667 6.66667C4.9878 6.66667 3.53387 6.3236 2.54891 5.83113C1.48421 5.2988 1.33333 4.81007 1.33333 4.66667C1.33333 4.52327 1.48421 4.03453 2.54891 3.5022C3.53387 3.00973 4.9878 2.66667 6.66667 2.66667C8.34553 2.66667 9.79947 3.00973 10.7844 3.5022C11.8491 4.03453 12 4.52327 12 4.66667ZM12.6667 16.6667C14.5076 16.6667 16 15.1743 16 13.3333C16 11.4924 14.5076 10 12.6667 10C10.8257 10 9.33333 11.4924 9.33333 13.3333C9.33333 15.1743 10.8257 16.6667 12.6667 16.6667Z" fill="black"/>
</svg>
