<svg width="12" height="17" viewBox="0 0 12 17" fill="none" xmlns="http://www.w3.org/2000/svg">
<path fill-rule="evenodd" clip-rule="evenodd" d="M5.83333 15.8333C8.60971 15.8333 10.8333 13.629 10.8333 10.9427C10.8333 8.71075 9.50929 6.15712 8.0645 4.06708C7.35633 3.04262 6.64658 2.16807 6.11354 1.5495C6.01333 1.43325 5.91954 1.3262 5.83333 1.22908C5.74713 1.3262 5.65333 1.43325 5.55313 1.5495C5.02008 2.16807 4.31033 3.04262 3.60217 4.06708C2.15738 6.15712 0.833333 8.71075 0.833333 10.9427C0.833333 13.629 3.05696 15.8333 5.83333 15.8333ZM5.26654 0.612508C3.801 2.25368 0 6.89987 0 10.9427C0 14.104 2.61167 16.6667 5.83333 16.6667C9.055 16.6667 11.6667 14.104 11.6667 10.9427C11.6667 6.89987 7.86567 2.25368 6.40013 0.612508C6.05013 0.220554 5.83333 0 5.83333 0C5.83333 0 5.61654 0.220554 5.26654 0.612508Z" fill="#A6B8D0"/>
<path d="M8.75008 9.63806C8.75008 11.2187 7.44425 12.5 5.83341 12.5C4.22258 12.5 2.91675 11.2187 2.91675 9.63806C2.91675 7.13385 5.83341 4.16669 5.83341 4.16669C5.83341 4.16669 8.75008 7.13385 8.75008 9.63806Z" fill="#A6B8D0"/>
<path fill-rule="evenodd" clip-rule="evenodd" d="M5.83341 12.0834C7.2216 12.0834 8.33341 10.9812 8.33341 9.63806C8.33341 8.52206 7.67139 7.24525 6.949 6.20023C6.59491 5.688 6.24004 5.25072 5.97352 4.94144C5.92341 4.88331 5.87652 4.82979 5.83341 4.78123C5.79031 4.82979 5.74341 4.88331 5.69331 4.94144C5.42679 5.25072 5.07191 5.688 4.71783 6.20023C3.99544 7.24525 3.33341 8.52206 3.33341 9.63806C3.33341 10.9812 4.44523 12.0834 5.83341 12.0834ZM5.55002 4.47294C4.81725 5.29353 2.91675 7.61662 2.91675 9.63806C2.91675 11.2187 4.22258 12.5 5.83341 12.5C7.44425 12.5 8.75008 11.2187 8.75008 9.63806C8.75008 7.61662 6.84958 5.29353 6.11681 4.47294C5.94181 4.27696 5.83341 4.16669 5.83341 4.16669C5.83341 4.16669 5.72502 4.27696 5.55002 4.47294Z" fill="#A6B8D0"/>
</svg>
