<svg width="20" height="20" viewBox="0 0 20 20" fill="none" xmlns="http://www.w3.org/2000/svg">
<mask id="mask0_68_90" style="mask-type:alpha" maskUnits="userSpaceOnUse" x="0" y="0" width="20" height="20">
<rect width="20" height="20" fill="#D9D9D9"/>
</mask>
<g mask="url(#mask0_68_90)">
<path d="M0.833313 17.5L9.99998 1.66667L19.1666 17.5H0.833313ZM9.99998 15C10.2361 15 10.4341 14.92 10.5941 14.76C10.7536 14.6006 10.8333 14.4028 10.8333 14.1667C10.8333 13.9306 10.7536 13.7328 10.5941 13.5733C10.4341 13.4133 10.2361 13.3333 9.99998 13.3333C9.76387 13.3333 9.56609 13.4133 9.40665 13.5733C9.24665 13.7328 9.16665 13.9306 9.16665 14.1667C9.16665 14.4028 9.24665 14.6006 9.40665 14.76C9.56609 14.92 9.76387 15 9.99998 15ZM9.16665 12.5H10.8333V8.33334H9.16665V12.5Z" fill="#F8AF52"/>
</g>
</svg>
