<svg width="24" height="24" viewBox="0 0 24 24" fill="none" xmlns="http://www.w3.org/2000/svg">
<path d="M16.0339 2.26102L15.1008 1.30542C14.697 0.892193 14.2147 0.56384 13.6822 0.339662C13.1497 0.115483 12.5778 0 12 0C11.4222 0 10.8503 0.115483 10.3178 0.339662C9.7853 0.56384 9.30298 0.892193 8.89919 1.30542L7.96609 2.25952L6.63096 2.24452C6.05303 2.23768 5.47956 2.34647 4.94428 2.56448C4.40901 2.7825 3.92272 3.10535 3.51404 3.51404C3.10535 3.92272 2.7825 4.40901 2.56448 4.94428C2.34647 5.47956 2.23768 6.05303 2.24452 6.63096L2.26102 7.96609L1.30542 8.89919C0.892193 9.30298 0.56384 9.7853 0.339662 10.3178C0.115483 10.8503 0 11.4222 0 12C0 12.5778 0.115483 13.1497 0.339662 13.6822C0.56384 14.2147 0.892193 14.697 1.30542 15.1008L2.25952 16.0339L2.24452 17.369C2.23768 17.947 2.34647 18.5204 2.56448 19.0557C2.7825 19.591 3.10535 20.0773 3.51404 20.486C3.92272 20.8947 4.40901 21.2175 4.94428 21.4355C5.47956 21.6535 6.05303 21.7623 6.63096 21.7555L7.96609 21.739L8.89919 22.6946C9.30298 23.1078 9.7853 23.4362 10.3178 23.6603C10.8503 23.8845 11.4222 24 12 24C12.5778 24 13.1497 23.8845 13.6822 23.6603C14.2147 23.4362 14.697 23.1078 15.1008 22.6946L16.0339 21.7405L17.369 21.7555C17.947 21.7623 18.5204 21.6535 19.0557 21.4355C19.591 21.2175 20.0773 20.8947 20.486 20.486C20.8947 20.0773 21.2175 19.591 21.4355 19.0557C21.6535 18.5204 21.7623 17.947 21.7555 17.369L21.739 16.0339L22.6946 15.1008C23.1078 14.697 23.4362 14.2147 23.6603 13.6822C23.8845 13.1497 24 12.5778 24 12C24 11.4222 23.8845 10.8503 23.6603 10.3178C23.4362 9.7853 23.1078 9.30298 22.6946 8.89919L21.7405 7.96609L21.7555 6.63096C21.7623 6.05303 21.6535 5.47956 21.4355 4.94428C21.2175 4.40901 20.8947 3.92272 20.486 3.51404C20.0773 3.10535 19.591 2.7825 19.0557 2.56448C18.5204 2.34647 17.947 2.23768 17.369 2.24452L16.0339 2.26102Z" fill="#7A23D1"/>
<path fill-rule="evenodd" clip-rule="evenodd" d="M15.5313 9.21871C15.6011 9.28839 15.6566 9.37116 15.6944 9.46229C15.7322 9.55342 15.7517 9.65111 15.7517 9.74977C15.7517 9.84843 15.7322 9.94612 15.6944 10.0372C15.6566 10.1284 15.6011 10.2111 15.5313 10.2808L11.0308 14.7813C10.9612 14.8511 10.8784 14.9065 10.7873 14.9444C10.6961 14.9822 10.5984 15.0016 10.4998 15.0016C10.4011 15.0016 10.3034 14.9822 10.2123 14.9444C10.1212 14.9065 10.0384 14.8511 9.96873 14.7813L7.7185 12.531C7.64877 12.4613 7.59345 12.3785 7.5557 12.2874C7.51796 12.1963 7.49854 12.0986 7.49854 12C7.49854 11.9014 7.51796 11.8037 7.5557 11.7126C7.59345 11.6215 7.64877 11.5387 7.7185 11.4689C7.78824 11.3992 7.87104 11.3439 7.96215 11.3061C8.05327 11.2684 8.15093 11.249 8.24956 11.249C8.34818 11.249 8.44584 11.2684 8.53696 11.3061C8.62808 11.3439 8.71087 11.3992 8.78061 11.4689L10.4998 13.1896L14.4692 9.21871C14.5389 9.14886 14.6216 9.09344 14.7128 9.05563C14.8039 9.01782 14.9016 8.99835 15.0002 8.99835C15.0989 8.99835 15.1966 9.01782 15.2877 9.05563C15.3788 9.09344 15.4616 9.14886 15.5313 9.21871V9.21871Z" fill="white"/>
</svg>
