<?xml version="1.0" encoding="UTF-8" standalone="no"?>
<!-- Created with Inkscape (http://www.inkscape.org/) -->

<svg
   version="1.1"
   id="svg2"
   xml:space="preserve"
   width="666.66669"
   height="666.66669"
   viewBox="0 0 666.66669 666.66669"
   sodipodi:docname="3270964.ai"
   xmlns:inkscape="http://www.inkscape.org/namespaces/inkscape"
   xmlns:sodipodi="http://sodipodi.sourceforge.net/DTD/sodipodi-0.dtd"
   xmlns="http://www.w3.org/2000/svg"
   xmlns:svg="http://www.w3.org/2000/svg"><defs
     id="defs6"><clipPath
       clipPathUnits="userSpaceOnUse"
       id="clipPath16"><path
         d="M 0,500 H 500 V 0 H 0 Z"
         id="path14" /></clipPath><clipPath
       clipPathUnits="userSpaceOnUse"
       id="clipPath28"><path
         d="M 73.4257,396.958 H 419.06 V 109.533 H 73.4257 Z"
         id="path26" /></clipPath><clipPath
       clipPathUnits="userSpaceOnUse"
       id="clipPath44"><path
         d="M 0,500 H 500 V 0 H 0 Z"
         id="path42" /></clipPath><clipPath
       clipPathUnits="userSpaceOnUse"
       id="clipPath72"><path
         d="M 0,500 H 500 V 0 H 0 Z"
         id="path70" /></clipPath><clipPath
       clipPathUnits="userSpaceOnUse"
       id="clipPath258"><path
         d="m 235.381,391.099 c 0,-15.411 12.493,-27.904 27.904,-27.904 v 0 c 15.412,0 27.905,12.493 27.905,27.904 v 0 c 0,15.412 -12.493,27.905 -27.905,27.905 v 0 c -15.411,0 -27.904,-12.493 -27.904,-27.905"
         id="path256" /></clipPath><clipPath
       clipPathUnits="userSpaceOnUse"
       id="clipPath306"><path
         d="M 0,500 H 500 V 0 H 0 Z"
         id="path304" /></clipPath><clipPath
       clipPathUnits="userSpaceOnUse"
       id="clipPath354"><path
         d="M 0,500 H 500 V 0 H 0 Z"
         id="path352" /></clipPath><clipPath
       clipPathUnits="userSpaceOnUse"
       id="clipPath366"><path
         d="M 0,500 H 500 V 0 H 0 Z"
         id="path364" /></clipPath><clipPath
       clipPathUnits="userSpaceOnUse"
       id="clipPath422"><path
         d="m 259.274,333.182 c -0.363,-4.031 0.162,-8.651 1.519,-13.064 v 0 l 8.632,-10.292 c 1.859,-3.475 3.447,-6.367 7.585,-7.129 v 0 c 5.675,-1.046 7.755,6.3 8.525,13.707 v 0 c 0.192,-0.085 0.389,-0.149 0.586,-0.168 v 0 c 1.414,-0.148 2.876,0.176 3.944,1.257 v 0 c 0.453,0.463 -0.243,1.363 -1.161,2.333 v 0 c -2.708,2.864 -2.935,5.078 -2.904,8.974 v 0 c 0.015,1.758 0.022,3.542 -0.44,5.239 v 0 c -0.102,0.378 -0.226,0.743 -0.372,1.097 v 0 c -1.993,4.872 -7.834,7.482 -13.472,7.482 v 0 c -6.049,0 -11.863,-3.003 -12.442,-9.436"
         id="path420" /></clipPath><clipPath
       clipPathUnits="userSpaceOnUse"
       id="clipPath434"><path
         d="M 259.162,342.618 H 286.06 V 320.17 h -26.898 z"
         id="path432" /></clipPath><clipPath
       clipPathUnits="userSpaceOnUse"
       id="clipPath450"><path
         d="M 0,500 H 500 V 0 H 0 Z"
         id="path448" /></clipPath><clipPath
       clipPathUnits="userSpaceOnUse"
       id="clipPath482"><path
         d="m 258.003,340.349 c -3.96,-5.079 -1.597,-8.757 0.274,-17.188 v 0 l 28.805,9.705 c 0,0 -3.766,10 -8.646,12.567 v 0 c -1.309,0.688 -3.101,1.007 -5.099,1.007 v 0 c -5.451,0 -12.436,-2.374 -15.334,-6.091"
         id="path480" /></clipPath><clipPath
       clipPathUnits="userSpaceOnUse"
       id="clipPath490"><path
         d="m 255.85,346.151 h 14.067 v -22.99 H 255.85 Z"
         id="path488" /></clipPath><clipPath
       clipPathUnits="userSpaceOnUse"
       id="clipPath506"><path
         d="M 0,500 H 500 V 0 H 0 Z"
         id="path504" /></clipPath><clipPath
       clipPathUnits="userSpaceOnUse"
       id="clipPath558"><path
         d="m 257.478,305.494 c -5.456,-1.231 -12.617,-8.814 -16.561,-16.809 v 0 c -4.401,-8.921 -2.151,-22.107 -4.182,-31.622 v 0 c -1.063,-4.978 -6.722,-10.492 -11.335,-17.516 v 0 c 5.673,-3.342 17.93,-9.36 34.913,-11.153 v 0 c 0.861,6.294 1.587,12.421 2.69,16.771 v 0 c 1.145,4.519 3.509,8.742 6.668,12.156 v 0 c 4.608,4.978 10.114,9.008 8.445,16.725 v 0 c -0.488,2.259 -1.123,4.504 -1.819,6.734 v 0 c -0.916,2.933 -1.939,5.841 -2.879,8.73 v 0 c -0.208,0.637 -0.483,1.281 -0.804,1.924 v 0 1.481 c 0,1.598 1.864,4.529 1.864,4.529 v 0 c 0,0 -1.066,1.333 -4.53,4.263 v 0 c -3.462,2.93 -9.591,6.927 -9.591,6.927 v 0 z"
         id="path556" /></clipPath><clipPath
       clipPathUnits="userSpaceOnUse"
       id="clipPath566"><path
         d="m 225.399,285.687 h 31.297 v -53.17 h -31.297 z"
         id="path564" /></clipPath><clipPath
       clipPathUnits="userSpaceOnUse"
       id="clipPath582"><path
         d="M 0,500 H 500 V 0 H 0 Z"
         id="path580" /></clipPath><clipPath
       clipPathUnits="userSpaceOnUse"
       id="clipPath598"><path
         d="m 251.254,298.838 c -7.296,-1.933 -25.19,-17.153 -28.176,-19.326 v 0 c -4.393,-3.196 -17.532,-16.565 -16.765,-17.612 v 0 c 0.766,-1.046 7.201,-5.21 17.305,-13.88 v 0 c 10.104,-8.669 31.037,-16.522 31.037,-16.522 v 0 c 0,0 5.122,-5.328 8.654,-6.49 v 0 c 1.056,-0.349 1.916,-0.578 2.63,-0.74 v 0 c 0.203,-0.069 0.408,-0.133 0.614,-0.193 v 0 c 1.933,-0.555 3.242,0.027 4.112,0.811 v 0 c 0.471,0.373 0.918,0.871 1.217,1.583 v 0 c 0.591,1.064 1.402,2.334 1.543,4 v 0 c 0.143,1.669 -2.338,1.982 -2.935,3.171 v 0 c -0.596,1.187 -2.572,2.879 -3.588,3.094 v 0 c -1.015,0.216 -6.681,-1.666 -6.681,-1.666 v 0 c 0,0 -12.803,7.042 -20.93,17.772 v 0 c -7.319,9.66 -9.581,11.233 -9.581,11.233 v 0 c 0,0 23.837,14.508 31.085,18.169 v 0 l -0.514,16.196 c -1.432,0.501 -3.202,0.901 -5.198,0.901 v 0 c -1.202,0 -2.486,-0.145 -3.829,-0.501"
         id="path596" /></clipPath><clipPath
       clipPathUnits="userSpaceOnUse"
       id="clipPath606"><path
         d="m 206.281,297.016 h 64.552 v -73.16 h -64.552 z"
         id="path604" /></clipPath><clipPath
       clipPathUnits="userSpaceOnUse"
       id="clipPath622"><path
         d="M 0,500 H 500 V 0 H 0 Z"
         id="path620" /></clipPath></defs><sodipodi:namedview
     id="namedview4"
     pagecolor="#ffffff"
     bordercolor="#666666"
     borderopacity="1.0"
     inkscape:pageshadow="2"
     inkscape:pageopacity="0.0"
     inkscape:pagecheckerboard="0" /><g
     id="g8"
     inkscape:groupmode="layer"
     inkscape:label="3270964"
     transform="matrix(1.3333333,0,0,-1.3333333,0,666.66667)"><g
       id="g10"><g
         id="g12"
         clip-path="url(#clipPath16)"><g
           id="g18"
           transform="translate(321.1777,386.5649)"><path
             d="m 0,0 c 0,0 -54.339,24.782 -112.139,-2.189 -57.8,-26.971 -91.049,-87.56 -119.286,-135.957 -28.236,-48.396 -18.971,-100.909 21.01,-127.947 39.982,-27.038 71.552,4.989 130.64,1.57 59.088,-3.42 74.209,-13.215 126.013,15.84 51.805,29.056 67.482,106.902 33.956,168.407 C 46.669,-18.772 0,0 0,0"
             style="fill:#aaff00;fill-opacity:1;fill-rule:nonzero;stroke:none"
             id="path20" /></g><g
           id="g22"><g
             id="g24" /><g
             id="g36"><g
               clip-path="url(#clipPath28)"
               opacity="0.699997"
               id="g34"><g
                 transform="translate(321.1777,386.5649)"
                 id="g32"><path
                   d="m 0,0 c 0,0 -54.339,24.782 -112.139,-2.189 -57.8,-26.971 -91.049,-87.56 -119.286,-135.957 -28.236,-48.396 -18.971,-100.909 21.01,-127.947 39.982,-27.038 71.552,4.989 130.64,1.57 59.088,-3.42 74.209,-13.215 126.013,15.84 51.805,29.056 67.482,106.902 33.956,168.407 C 46.669,-18.772 0,0 0,0"
                   style="fill:#ffffff;fill-opacity:1;fill-rule:nonzero;stroke:none"
                   id="path30" /></g></g></g></g></g></g><g
       id="g38"><g
         id="g40"
         clip-path="url(#clipPath44)"><g
           id="g46"
           transform="translate(355.749,142.2363)"><path
             d="m 0,0 c -3.811,2.646 -8.769,-1.932 -10.657,-5.086 -1.571,-2.621 -3.589,-6.662 -4.059,-7.61 -0.018,0.077 -0.039,0.155 -0.058,0.232 0.07,0.059 0.108,0.09 0.109,0.091 -0.031,-0.026 -0.076,-0.044 -0.116,-0.065 -0.901,3.496 -2.202,6.659 -3.699,9.522 0.829,0.983 4.203,2.189 4.956,2.515 3.119,1.345 6.124,2.426 7.952,5.498 1.446,2.429 2.089,5.848 -1.053,7.22 -4.251,1.858 -8.228,-3.594 -9.469,-7.056 -0.975,-2.717 -2.097,-6.755 -2.451,-8.054 -1.452,2.759 -3.078,5.237 -4.694,7.467 0.822,1.184 3.389,2.951 3.984,3.419 2.673,2.098 5.3,3.912 6.283,7.348 0.778,2.72 0.525,6.188 -2.863,6.712 -4.585,0.708 -7.035,-5.579 -7.352,-9.242 -0.221,-2.57 -0.286,-6.187 -0.305,-7.89 -1.319,1.8 -2.621,3.437 -3.806,4.923 -1.253,1.572 -2.364,2.968 -3.233,4.227 0.198,0.089 0.31,0.141 0.311,0.141 -0.096,-0.044 -0.227,-0.056 -0.373,-0.051 -0.014,0.021 -0.03,0.044 -0.045,0.065 0.629,1.119 3.729,2.931 4.409,3.389 2.818,1.899 5.571,3.516 6.8,6.873 0.974,2.654 0.974,6.133 -2.367,6.901 -4.521,1.041 -7.422,-5.052 -8.004,-8.682 -0.456,-2.845 -0.812,-7.009 -0.922,-8.36 -0.143,0.215 -0.282,0.427 -0.411,0.633 -1.711,2.752 -3.136,5.623 -4.246,8.128 0.202,0.035 0.325,0.058 0.326,0.058 -0.103,-0.019 -0.231,0.002 -0.37,0.042 -0.045,0.1 -0.09,0.202 -0.133,0.301 0.64,1.304 2.86,3.435 3.368,3.989 2.298,2.502 4.599,4.715 5.015,8.265 0.328,2.809 -0.48,6.192 -3.908,6.161 -4.64,-0.04 -6.044,-6.639 -5.765,-10.306 0.171,-2.249 0.589,-5.265 0.864,-7.114 -0.783,1.856 -1.364,3.42 -1.728,4.454 0.009,-0.007 0.014,-0.011 0.014,-0.011 -0.006,0.005 -0.011,0.015 -0.017,0.02 -0.177,0.502 -0.304,0.881 -0.376,1.102 -0.191,1.534 0.076,4.053 0.107,4.725 0.151,3.393 0.491,6.568 -1.474,9.554 -1.554,2.364 -4.349,4.434 -6.955,2.207 -3.527,-3.013 -0.36,-8.971 2.212,-11.6 1.809,-1.851 4.523,-4.271 5.796,-5.391 0.346,-1.025 1.147,-3.288 2.356,-6.073 -1.323,0.771 -3.216,2.663 -3.736,3.122 -2.547,2.249 -4.805,4.507 -8.363,4.852 -2.814,0.274 -6.18,-0.601 -6.083,-4.027 0.13,-4.638 6.757,-5.913 10.417,-5.562 2.652,0.254 6.368,0.874 7.969,1.151 1.125,-2.546 2.575,-5.479 4.322,-8.288 0.096,-0.153 0.199,-0.311 0.303,-0.469 -1.47,0.406 -3.811,1.798 -4.435,2.118 -3.023,1.553 -5.767,3.185 -9.3,2.645 -2.795,-0.428 -5.843,-2.105 -4.905,-5.403 1.268,-4.462 8.004,-4.066 11.466,-2.825 2.503,0.898 5.949,2.41 7.437,3.075 0.885,-1.29 2.019,-2.714 3.3,-4.321 1.289,-1.617 2.719,-3.413 4.156,-5.406 V 4.229 c -0.971,-0.428 -4.624,1.766 -5.427,2.178 -3.022,1.553 -5.766,3.185 -9.3,2.644 -2.795,-0.428 -5.842,-2.105 -4.905,-5.402 1.269,-4.462 8.005,-4.066 11.467,-2.826 3.228,1.158 8.029,3.342 8.165,3.405 0,-0.098 -0.001,-0.165 -0.001,-0.166 0,0.048 0.016,0.101 0.029,0.153 1.569,-2.179 3.142,-4.597 4.547,-7.278 -1.281,-0.289 -4.661,0.659 -5.453,0.827 -3.324,0.705 -6.4,1.56 -9.668,0.111 -2.585,-1.146 -5.086,-3.563 -3.316,-6.499 2.395,-3.974 8.792,-1.824 11.806,0.281 2.389,1.669 5.677,4.349 6.685,5.178 1.474,-2.827 2.756,-5.948 3.643,-9.393 -1.402,-0.165 -4.499,0.701 -5.252,0.861 -3.325,0.705 -6.401,1.559 -9.668,0.111 -2.585,-1.146 -5.086,-3.563 -3.317,-6.499 2.396,-3.974 8.792,-1.824 11.807,0.281 2.252,1.574 5.303,4.045 6.489,5.017 1.034,-4.109 1.507,-8.672 1.066,-13.752 l 0.456,-0.039 c 0.443,5.108 -0.026,9.698 -1.056,13.83 0.811,0.862 4.632,1.429 5.468,1.608 3.321,0.716 6.477,1.195 8.867,3.853 C 1.523,-5.184 2.815,-1.955 0,0"
             style="fill:#ffffff;fill-opacity:1;fill-rule:nonzero;stroke:none"
             id="path48" /></g><g
           id="g50"
           transform="translate(386.0225,125.5996)"><path
             d="m 0,0 c -3.521,-0.611 -5.604,-3.032 -7.976,-5.465 -0.538,-0.553 -2.631,-2.992 -3.889,-3.634 -1.176,3.357 -1.845,6.663 -2.19,9.833 1.298,-0.129 5.522,-0.53 8.435,-0.589 C -1.943,0.069 4.568,1.836 4.352,6.471 4.191,9.895 0.77,10.516 -2.017,10.031 -5.538,9.42 -7.621,7 -9.992,4.566 -10.558,3.986 -12.841,1.32 -14.067,0.85 c -0.322,3.008 -0.358,5.893 -0.264,8.577 0.041,-0.036 0.082,-0.072 0.108,-0.111 0,0 -0.037,0.056 -0.091,0.136 0.147,0.025 5.351,0.876 8.68,1.708 3.568,0.892 9.388,4.306 7.963,8.721 -1.053,3.263 -4.518,2.963 -7.08,1.765 -3.238,-1.513 -4.612,-4.395 -6.263,-7.366 -0.438,-0.789 -2.257,-4.643 -3.301,-4.827 -0.005,0.008 -0.008,0.013 -0.014,0.021 0.087,2.456 0.279,4.744 0.452,6.804 0.172,2.047 0.323,3.863 0.342,5.427 1.607,0.274 5.312,0.931 7.891,1.575 3.569,0.892 9.389,4.306 7.964,8.721 -1.053,3.262 -4.518,2.963 -7.08,1.766 -3.238,-1.515 -4.612,-4.396 -6.262,-7.367 -0.341,-0.613 -1.514,-3.071 -2.511,-4.225 -0.001,0.189 -0.003,0.377 -0.009,0.557 -0.108,3.307 -0.532,6.551 -1.012,9.292 1.486,0.66 4.919,2.21 7.265,3.472 3.238,1.742 8.039,6.484 5.571,10.413 -1.824,2.903 -5.108,1.76 -7.297,-0.032 -2.765,-2.265 -3.388,-5.396 -4.256,-8.681 -0.177,-0.671 -0.7,-3.296 -1.371,-4.673 -0.542,2.988 -1.133,5.315 -1.416,6.36 0.436,1.638 1.347,5.158 1.824,7.702 0.676,3.614 0,10.328 -4.608,10.874 -3.404,0.402 -4.577,-2.872 -4.555,-5.699 0.026,-3.575 2.072,-6.026 4.084,-8.764 0.398,-0.541 2.02,-2.486 2.713,-3.868 0.063,-0.224 0.168,-0.609 0.3,-1.125 -0.002,-0.008 0,-0.019 -0.002,-0.026 0,0 0.001,0.005 0.004,0.016 0.272,-1.061 0.658,-2.685 1.039,-4.662 -0.8,1.69 -2.128,4.429 -3.235,6.394 -1.805,3.203 -6.64,7.911 -10.52,5.366 -2.866,-1.88 -1.659,-5.142 0.175,-7.294 2.318,-2.721 5.461,-3.283 8.763,-4.086 0.73,-0.179 3.76,-0.716 5.015,-1.444 0.02,-0.108 0.04,-0.217 0.058,-0.326 -0.094,-0.11 -0.187,-0.198 -0.284,-0.24 0,0 0.115,0.051 0.303,0.133 0.468,-2.699 0.88,-5.878 0.986,-9.116 0.008,-0.243 0.01,-0.496 0.009,-0.755 -0.841,1.062 -3.451,4.326 -5.41,6.437 -2.502,2.696 -8.299,6.149 -11.48,2.772 -2.35,-2.496 -0.418,-5.387 1.867,-7.054 2.887,-2.106 6.075,-1.922 9.473,-1.934 0.82,-0.003 4.403,0.213 5.548,-0.369 0,-0.026 0,-0.052 -0.001,-0.079 -0.118,-0.085 -0.233,-0.148 -0.338,-0.165 10e-4,0 0.123,0.02 0.337,0.056 -0.024,-1.529 -0.171,-3.308 -0.34,-5.311 -0.159,-1.893 -0.333,-3.978 -0.429,-6.207 -0.961,1.405 -3.025,4.375 -4.637,6.389 -2.299,2.871 -7.83,6.736 -11.247,3.6 -2.527,-2.319 -0.809,-5.343 1.348,-7.171 2.727,-2.312 5.919,-2.359 9.307,-2.619 0.755,-0.058 3.871,-0.101 5.213,-0.628 -0.105,-2.751 -0.079,-5.717 0.246,-8.817 -1.016,0.883 -4.193,3.617 -6.513,5.334 -2.956,2.188 -9.291,4.511 -11.794,0.605 -1.849,-2.887 0.584,-5.371 3.137,-6.588 3.227,-1.537 6.326,-0.767 9.667,-0.152 0.806,0.148 4.282,1.02 5.518,0.663 0.346,-3.212 1.022,-6.565 2.215,-9.972 -0.045,-0.005 -0.092,-0.015 -0.133,-0.011 0.001,0 0.051,-0.005 0.142,-0.014 0.026,-0.076 0.053,-0.151 0.08,-0.227 -0.917,0.527 -4.841,2.767 -7.602,4.073 -3.325,1.573 -9.99,2.624 -11.688,-1.693 -1.254,-3.191 1.615,-5.156 4.355,-5.855 3.463,-0.882 6.354,0.474 9.513,1.724 0.795,0.314 4.285,1.967 5.44,1.701 1.439,-4.008 3.599,-8.084 6.806,-12.085 l 0.358,0.286 c -3.19,3.978 -5.332,8.035 -6.756,12.026 1.527,-0.15 5.437,-0.509 8.183,-0.566 3.677,-0.075 10.19,1.693 9.973,6.326 C 6.208,-0.137 2.786,0.483 0,0"
             style="fill:#ffffff;fill-opacity:1;fill-rule:nonzero;stroke:none"
             id="path52" /></g><g
           id="g54"
           transform="translate(115.6465,137.0742)"><path
             d="m 0,0 c -3.506,0.698 -6.32,-0.81 -9.409,-2.226 -0.701,-0.321 -3.532,-1.842 -4.938,-1.988 0.113,3.555 0.68,6.88 1.499,9.962 C -11.683,5.16 -7.887,3.265 -5.191,2.159 -1.789,0.765 4.923,0.068 6.39,4.47 7.474,7.722 4.505,9.533 1.731,10.085 -1.774,10.783 -4.588,9.275 -7.677,7.859 -8.414,7.522 -11.504,5.857 -12.818,5.86 c 0.785,2.922 1.79,5.626 2.844,8.096 0.025,-0.048 0.051,-0.096 0.061,-0.142 0,0 -0.014,0.065 -0.036,0.16 0.145,-0.031 5.308,-1.11 8.712,-1.534 3.649,-0.453 10.309,0.636 10.57,5.268 0.192,3.423 -3.147,4.392 -5.969,4.197 -3.566,-0.246 -5.886,-2.439 -8.495,-4.616 -0.693,-0.578 -3.778,-3.518 -4.819,-3.313 -0.002,0.007 -0.003,0.014 -0.005,0.023 0.966,2.26 1.968,4.325 2.872,6.185 0.898,1.848 1.692,3.487 2.273,4.939 1.599,-0.322 5.292,-1.045 7.93,-1.372 3.65,-0.453 10.309,0.635 10.57,5.267 0.192,3.422 -3.148,4.391 -5.969,4.197 -3.566,-0.246 -5.886,-2.44 -8.495,-4.616 -0.538,-0.45 -2.518,-2.32 -3.864,-3.038 0.067,0.176 0.133,0.353 0.193,0.524 1.09,3.123 1.862,6.302 2.403,9.032 1.623,0.08 5.384,0.29 8.027,0.622 3.648,0.459 9.835,3.155 8.948,7.708 -0.656,3.365 -4.133,3.482 -6.819,2.598 -3.395,-1.116 -5.105,-3.813 -7.097,-6.566 -0.407,-0.561 -1.84,-2.821 -2.962,-3.864 0.57,2.982 0.856,5.365 0.969,6.443 0.997,1.37 3.115,4.326 4.476,6.528 1.933,3.128 3.72,9.635 -0.382,11.803 -3.031,1.602 -5.304,-1.031 -6.303,-3.676 -1.263,-3.344 -0.237,-6.367 0.654,-9.646 0.176,-0.648 0.989,-3.046 1.138,-4.587 -0.023,-0.23 -0.063,-0.627 -0.126,-1.157 -0.004,-0.007 -0.006,-0.016 -0.011,-0.023 0,0 0.004,0.005 0.01,0.013 -0.129,-1.087 -0.353,-2.742 -0.709,-4.723 -0.138,1.864 -0.391,4.898 -0.716,7.13 -0.531,3.638 -3.345,9.771 -7.881,8.795 -3.351,-0.721 -3.4,-4.2 -2.465,-6.868 1.183,-3.373 3.913,-5.029 6.704,-6.967 0.617,-0.43 3.249,-2.023 4.159,-3.155 -0.021,-0.106 -0.042,-0.214 -0.064,-0.323 -0.127,-0.069 -0.246,-0.117 -0.352,-0.122 10e-4,0 0.126,0.006 0.331,0.015 -0.535,-2.687 -1.297,-5.8 -2.364,-8.86 -0.08,-0.229 -0.169,-0.466 -0.263,-0.707 -0.402,1.293 -1.661,5.279 -2.729,7.954 -1.362,3.415 -5.527,8.725 -9.711,6.72 -3.091,-1.481 -2.33,-4.875 -0.798,-7.253 1.935,-3.005 4.975,-3.98 8.14,-5.217 0.764,-0.297 4.185,-1.386 5.043,-2.341 -0.009,-0.025 -0.019,-0.049 -0.029,-0.074 -0.142,-0.036 -0.271,-0.053 -0.375,-0.032 0.001,0 0.121,-0.025 0.334,-0.069 -0.572,-1.418 -1.351,-3.025 -2.229,-4.832 -0.831,-1.709 -1.744,-3.591 -2.636,-5.636 -0.391,1.656 -1.246,5.171 -2.025,7.631 -1.111,3.505 -4.878,9.103 -9.197,7.408 -3.19,-1.252 -2.678,-4.692 -1.324,-7.175 1.711,-3.138 4.672,-4.332 7.739,-5.796 0.683,-0.326 3.575,-1.488 4.636,-2.462 -1.088,-2.53 -2.133,-5.305 -2.945,-8.314 -0.629,1.189 -2.608,4.884 -4.155,7.322 -1.969,3.105 -7.042,7.554 -10.785,4.812 -2.764,-2.028 -1.389,-5.222 0.555,-7.276 2.456,-2.596 5.624,-2.994 8.963,-3.625 0.805,-0.152 4.362,-0.589 5.386,-1.368 -0.834,-3.121 -1.411,-6.492 -1.525,-10.1 -0.044,0.011 -0.091,0.019 -0.128,0.038 0.001,-0.001 0.046,-0.024 0.127,-0.065 -0.002,-0.08 -0.005,-0.16 -0.006,-0.24 -0.666,0.822 -3.52,4.324 -5.626,6.537 -2.534,2.665 -8.374,6.046 -11.513,2.63 -2.319,-2.524 -0.351,-5.392 1.954,-7.03 2.914,-2.071 6.098,-1.847 9.496,-1.818 0.854,0.007 4.706,0.291 5.687,-0.373 -0.101,-4.256 0.446,-8.838 1.997,-13.725 l 0.436,0.138 c -1.542,4.86 -2.08,9.416 -1.971,13.652 1.371,-0.69 4.89,-2.433 7.431,-3.475 C -3.521,-9.32 3.191,-10.018 4.658,-5.615 5.742,-2.363 2.773,-0.552 0,0"
             style="fill:#ffffff;fill-opacity:1;fill-rule:nonzero;stroke:none"
             id="path56" /></g><g
           id="g58"
           transform="translate(163.5396,111.7988)"><path
             d="m 0,0 c -2.325,0.463 -4.192,-0.537 -6.241,-1.477 -0.465,-0.212 -2.342,-1.222 -3.275,-1.319 0.075,2.359 0.451,4.565 0.995,6.609 0.772,-0.391 3.29,-1.648 5.078,-2.38 C -1.187,0.507 3.266,0.045 4.239,2.965 4.958,5.121 2.988,6.323 1.148,6.689 -1.177,7.152 -3.043,6.152 -5.092,5.213 -5.581,4.989 -7.63,3.886 -8.501,3.887 c 0.52,1.938 1.187,3.732 1.886,5.37 0.016,-0.032 0.033,-0.064 0.04,-0.095 0,10e-4 -0.009,0.044 -0.024,0.107 C -6.502,9.248 -3.078,8.532 -0.82,8.252 1.6,7.951 6.018,8.673 6.19,11.745 6.318,14.016 4.103,14.658 2.231,14.529 -0.134,14.366 -1.673,12.911 -3.403,11.468 -3.863,11.084 -5.909,9.134 -6.599,9.27 l -0.004,0.015 c 0.641,1.499 1.306,2.869 1.905,4.103 0.596,1.225 1.123,2.312 1.508,3.276 1.06,-0.215 3.51,-0.693 5.26,-0.911 2.42,-0.3 6.837,0.422 7.011,3.494 0.127,2.271 -2.088,2.913 -3.959,2.784 -2.366,-0.164 -3.905,-1.618 -5.635,-3.061 -0.358,-0.299 -1.671,-1.539 -2.563,-2.016 0.044,0.117 0.088,0.234 0.128,0.348 0.722,2.071 1.235,4.179 1.594,5.991 1.076,0.053 3.571,0.192 5.324,0.412 2.42,0.305 6.523,2.092 5.935,5.112 C 9.47,31.05 7.164,31.127 5.382,30.541 3.13,29.801 1.997,28.012 0.674,26.187 0.405,25.813 -0.546,24.314 -1.29,23.623 c 0.378,1.978 0.568,3.559 0.643,4.273 0.661,0.909 2.066,2.87 2.968,4.331 1.283,2.074 2.468,6.39 -0.253,7.828 -2.01,1.062 -3.518,-0.683 -4.181,-2.438 -0.837,-2.218 -0.157,-4.223 0.434,-6.398 0.117,-0.43 0.657,-2.021 0.755,-3.042 -0.014,-0.154 -0.041,-0.417 -0.083,-0.768 -0.003,-0.005 -0.005,-0.012 -0.008,-0.015 0,0 0.003,0.002 0.007,0.009 -0.085,-0.722 -0.234,-1.819 -0.471,-3.133 -0.091,1.236 -0.258,3.249 -0.474,4.729 -0.352,2.413 -2.219,6.481 -5.228,5.833 -2.222,-0.478 -2.255,-2.785 -1.634,-4.555 0.784,-2.237 2.595,-3.336 4.446,-4.622 0.409,-0.284 2.155,-1.341 2.759,-2.092 -0.014,-0.071 -0.028,-0.142 -0.043,-0.214 -0.084,-0.046 -0.163,-0.078 -0.233,-0.08 10e-4,0 0.083,0.002 0.219,0.009 -0.354,-1.782 -0.86,-3.847 -1.568,-5.877 -0.053,-0.152 -0.112,-0.309 -0.174,-0.468 -0.267,0.857 -1.102,3.501 -1.81,5.275 -0.904,2.266 -3.666,5.787 -6.441,4.457 -2.051,-0.982 -1.546,-3.233 -0.53,-4.811 1.283,-1.993 3.3,-2.639 5.399,-3.459 0.507,-0.199 2.776,-0.92 3.346,-1.553 -0.007,-0.017 -0.013,-0.033 -0.02,-0.049 -0.094,-0.024 -0.18,-0.036 -0.249,-0.022 10e-4,0 0.081,-0.017 0.222,-0.045 -0.38,-0.942 -0.896,-2.007 -1.479,-3.205 -0.55,-1.134 -1.156,-2.383 -1.748,-3.739 -0.26,1.099 -0.827,3.43 -1.344,5.062 -0.736,2.325 -3.234,6.038 -6.099,4.914 -2.117,-0.831 -1.776,-3.113 -0.879,-4.76 1.135,-2.081 3.1,-2.873 5.134,-3.844 0.453,-0.216 2.371,-0.987 3.075,-1.633 -0.722,-1.678 -1.415,-3.519 -1.954,-5.515 -0.418,0.789 -1.73,3.239 -2.756,4.856 -1.306,2.06 -4.671,5.012 -7.153,3.192 -1.833,-1.344 -0.922,-3.463 0.367,-4.825 1.63,-1.723 3.731,-1.987 5.946,-2.405 0.534,-0.1 2.893,-0.39 3.572,-0.907 -0.553,-2.07 -0.936,-4.307 -1.011,-6.7 -0.029,0.008 -0.061,0.013 -0.085,0.025 0.001,0 0.03,-0.014 0.084,-0.043 -0.001,-0.053 -0.003,-0.105 -0.004,-0.159 -0.442,0.546 -2.335,2.868 -3.732,4.337 -1.68,1.767 -5.554,4.01 -7.636,1.744 -1.538,-1.675 -0.233,-3.576 1.296,-4.663 1.933,-1.374 4.045,-1.225 6.299,-1.206 0.566,0.005 3.121,0.193 3.772,-0.247 -0.067,-2.823 0.296,-5.862 1.325,-9.104 l 0.289,0.091 c -1.023,3.224 -1.38,6.246 -1.308,9.056 0.91,-0.457 3.244,-1.614 4.929,-2.305 2.257,-0.925 6.709,-1.388 7.682,1.532 C 3.809,-1.567 1.839,-0.366 0,0"
             style="fill:#ffffff;fill-opacity:1;fill-rule:nonzero;stroke:none"
             id="path60" /></g><g
           id="g62"
           transform="translate(156.2681,112.3926)"><path
             d="M 0,0 C -2.042,-1.205 -2.767,-3.194 -3.668,-5.26 -3.873,-5.729 -4.6,-7.733 -5.23,-8.427 c -1.517,1.808 -2.707,3.702 -3.664,5.589 0.836,0.224 3.551,0.965 5.373,1.61 2.298,0.815 5.925,3.438 4.705,6.263 -0.902,2.087 -3.171,1.67 -4.787,0.717 -2.042,-1.205 -2.767,-3.194 -3.668,-5.26 -0.215,-0.493 -1.007,-2.681 -1.658,-3.262 -0.904,1.792 -1.602,3.574 -2.173,5.261 0.034,-0.012 0.068,-0.025 0.093,-0.043 0,0 -0.036,0.026 -0.089,0.063 0.086,0.049 3.116,1.798 4.986,3.093 2.005,1.39 4.817,4.873 2.898,7.278 -1.418,1.777 -3.498,0.78 -4.807,-0.564 -1.655,-1.698 -1.833,-3.808 -2.16,-6.038 -0.087,-0.593 -0.312,-3.41 -0.917,-3.769 -0.005,0.004 -0.008,0.006 -0.014,0.01 -0.521,1.543 -0.939,3.008 -1.314,4.328 -0.373,1.31 -0.705,2.472 -1.059,3.447 0.932,0.547 3.078,1.822 4.527,2.827 2.005,1.39 4.816,4.872 2.897,7.277 -1.418,1.778 -3.497,0.781 -4.806,-0.563 -1.654,-1.698 -1.832,-3.809 -2.16,-6.038 -0.068,-0.461 -0.22,-2.261 -0.567,-3.211 -0.045,0.117 -0.091,0.233 -0.136,0.345 -0.843,2.026 -1.866,3.939 -2.806,5.528 0.767,0.757 2.535,2.523 3.694,3.856 1.601,1.84 3.469,5.908 1.016,7.767 -1.811,1.374 -3.582,-0.105 -4.52,-1.73 -1.185,-2.053 -0.838,-4.142 -0.606,-6.383 0.047,-0.458 0.338,-2.209 0.244,-3.221 -1.036,1.727 -1.949,3.031 -2.369,3.614 -0.113,1.118 -0.373,3.516 -0.673,5.206 -0.427,2.402 -2.421,6.409 -5.408,5.667 -2.206,-0.548 -2.167,-2.853 -1.491,-4.603 0.854,-2.212 2.698,-3.253 4.588,-4.481 0.374,-0.243 1.836,-1.069 2.591,-1.764 0.091,-0.124 0.246,-0.339 0.449,-0.628 0.001,-0.005 0.004,-0.012 0.005,-0.017 0,0 -0.001,0.004 -0.001,0.012 0.417,-0.596 1.038,-1.512 1.737,-2.65 -0.892,0.861 -2.358,2.249 -3.506,3.209 -1.871,1.565 -5.974,3.353 -7.785,0.865 -1.338,-1.838 0.175,-3.579 1.818,-4.486 2.076,-1.144 4.158,-0.756 6.395,-0.481 0.495,0.06 2.501,0.436 3.451,0.279 0.037,-0.062 0.074,-0.125 0.112,-0.188 -0.033,-0.09 -0.071,-0.167 -0.121,-0.216 0.001,10e-4 0.06,0.058 0.157,0.154 0.924,-1.565 1.924,-3.441 2.748,-5.426 0.062,-0.149 0.123,-0.305 0.183,-0.466 -0.771,0.462 -3.155,1.876 -4.866,2.726 -2.183,1.087 -6.59,1.87 -7.772,-0.971 -0.874,-2.099 1.003,-3.44 2.811,-3.939 2.286,-0.63 4.22,0.231 6.331,1.02 0.511,0.19 2.683,1.165 3.53,1.072 0.005,-0.017 0.012,-0.033 0.018,-0.049 -0.054,-0.081 -0.11,-0.147 -0.172,-0.183 0.001,10e-4 0.072,0.042 0.197,0.115 0.343,-0.955 0.668,-2.093 1.033,-3.375 0.345,-1.212 0.726,-2.547 1.189,-3.953 -0.926,0.647 -2.903,2.006 -4.375,2.878 -2.099,1.243 -6.437,2.345 -7.823,-0.403 -1.024,-2.03 0.75,-3.504 2.518,-4.133 2.233,-0.796 4.225,-0.076 6.388,0.556 0.483,0.141 2.426,0.845 3.382,0.832 0.58,-1.731 1.291,-3.565 2.219,-5.413 -0.837,0.309 -3.449,1.262 -5.291,1.784 -2.347,0.664 -6.822,0.621 -7.46,-2.39 -0.471,-2.224 1.621,-3.195 3.491,-3.352 2.362,-0.197 4.104,1.007 6.034,2.171 0.465,0.281 2.417,1.636 3.268,1.705 0.968,-1.912 2.173,-3.834 3.711,-5.669 -0.026,-0.014 -0.054,-0.03 -0.079,-0.037 0,0 0.032,0.009 0.091,0.024 0.034,-0.041 0.068,-0.082 0.102,-0.122 -0.692,0.112 -3.651,0.582 -5.671,0.745 -2.432,0.198 -6.814,-0.713 -6.855,-3.79 -0.031,-2.273 2.21,-2.82 4.074,-2.611 2.356,0.264 3.831,1.782 5.499,3.299 0.419,0.381 2.198,2.224 2.976,2.33 1.833,-2.15 4.128,-4.173 7.056,-5.904 l 0.155,0.261 c -2.911,1.722 -5.192,3.737 -7.01,5.879 0.982,0.266 3.493,0.959 5.21,1.568 2.299,0.814 5.926,3.437 4.705,6.262 C 3.884,1.37 1.615,0.953 0,0"
             style="fill:#ffffff;fill-opacity:1;fill-rule:nonzero;stroke:none"
             id="path64" /></g></g></g><g
       id="g66"><g
         id="g68"
         clip-path="url(#clipPath72)"><g
           id="g74"
           transform="translate(114.1748,212.1582)"><path
             d="m 0,0 c -7.412,0 -13.442,6.03 -13.442,13.442 0,7.412 6.03,13.443 13.442,13.443 7.412,0 13.442,-6.031 13.442,-13.443 C 13.442,6.03 7.412,0 0,0 m 16.879,13.442 c 0,9.092 -7.186,16.503 -16.187,16.87 v 0.176 h 8.766 c -0.665,4.639 -4.644,8.208 -9.467,8.208 -4.823,0 -8.802,-3.569 -9.467,-8.208 h 8.767 v -0.176 c -9.002,-0.367 -16.188,-7.778 -16.188,-16.87 0,-5.967 3.098,-11.208 7.77,-14.212 l -2.226,-6.61 c -0.203,-0.605 0.123,-1.261 0.728,-1.465 0.122,-0.041 0.247,-0.06 0.369,-0.06 0.483,0 0.934,0.303 1.097,0.788 l 2.093,6.217 c 2.148,-0.99 4.537,-1.546 7.057,-1.546 2.413,0 4.705,0.509 6.781,1.421 l 2.051,-6.092 c 0.162,-0.484 0.613,-0.788 1.096,-0.788 0.123,0 0.247,0.019 0.37,0.06 0.605,0.204 0.931,0.86 0.727,1.465 l -2.168,6.443 c 4.819,2.974 8.031,8.3 8.031,14.379"
             style="fill:#1a2e35;fill-opacity:1;fill-rule:nonzero;stroke:none"
             id="path76" /></g><g
           id="g78"
           transform="translate(114.1748,227.1611)"><path
             d="M 0,0 C -0.023,0 -0.045,-0.006 -0.068,-0.007 L -4.54,7.082 c -0.228,0.36 -0.704,0.467 -1.064,0.24 -0.36,-0.226 -0.468,-0.703 -0.241,-1.063 l 4.473,-7.09 c -0.117,-0.219 -0.189,-0.465 -0.189,-0.73 0,-0.58 0.32,-1.08 0.79,-1.349 v -5.911 c 0,-0.427 0.345,-0.772 0.771,-0.772 0.426,0 0.771,0.345 0.771,0.772 v 5.911 c 0.47,0.269 0.79,0.769 0.79,1.349 C 1.561,-0.698 0.862,0 0,0"
             style="fill:#1a2e35;fill-opacity:1;fill-rule:nonzero;stroke:none"
             id="path80" /></g><g
           id="g82"
           transform="translate(147.2173,226.3301)"><path
             d="m 0,0 c 0,18.076 -14.654,32.73 -32.73,32.73 -18.077,0 -32.731,-14.654 -32.731,-32.73 0,-18.077 14.654,-32.73 32.731,-32.73 C -14.654,-32.73 0,-18.077 0,0 Z"
             style="fill:none;stroke:#aaff00;stroke-width:2;stroke-linecap:round;stroke-linejoin:round;stroke-miterlimit:10;stroke-dasharray:none;stroke-opacity:1"
             id="path84" /></g><g
           id="g86"
           transform="translate(399.4453,233.0146)"><path
             d="m 0,0 v 10.066 c 0,1.236 -1.217,2.238 -2.717,2.238 h -17.207 c -1.501,0 -2.717,-1.002 -2.717,-2.238 V 0 c 0,-0.858 0.594,-1.595 1.455,-1.97 -0.861,-0.375 -1.455,-1.112 -1.455,-1.97 v -5.689 c 0,-0.981 0.773,-1.806 1.841,-2.107 -1.07,-0.97 -1.841,-3.438 -1.841,-4.421 v -13.314 c 0,-1.235 1.216,-2.237 2.717,-2.237 h 17.207 c 1.5,0 2.717,1.002 2.717,2.237 v 13.314 c 0,0.983 -0.771,3.451 -1.842,4.421 C -0.773,-11.435 0,-10.61 0,-9.629 v 5.689 c 0,0.858 -0.594,1.595 -1.455,1.97 C -0.594,-1.595 0,-0.858 0,0"
             style="fill:#1a2e35;fill-opacity:1;fill-rule:nonzero;stroke:none"
             id="path88" /></g><g
           id="g90"
           transform="translate(391.3486,246.5742)"><path
             d="m 0,0 h -6.447 v 3.256 c 0,0.841 0.682,1.523 1.523,1.523 h 3.401 C -0.683,4.779 0,4.097 0,3.256 Z"
             style="fill:#1a2e35;fill-opacity:1;fill-rule:nonzero;stroke:none"
             id="path92" /></g><path
           d="m 390.623,243.189 h -4.996 v 4.778 h 4.996 z"
           style="fill:#1a2e35;fill-opacity:1;fill-rule:nonzero;stroke:none"
           id="path94" /><g
           id="g96"
           transform="translate(378.1104,232.0742)"><path
             d="M 0,0 C 0.047,-0.754 0.553,-1.396 1.279,-1.729 0.517,-2.081 -0.01,-2.77 -0.01,-3.573 v -5.323 c 0,-0.917 0.685,-1.689 1.631,-1.971 -0.948,-0.907 -1.631,-3.217 -1.631,-4.137 V -27.46 c 0,-1.156 1.077,-2.093 2.406,-2.093 h 15.237 c 1.328,0 2.405,0.937 2.405,2.093 v 12.456 c 0,0.92 -0.683,3.23 -1.63,4.137 0.946,0.282 1.63,1.054 1.63,1.971 v 5.323 c 0,0.803 -0.525,1.492 -1.288,1.844 0.726,0.333 1.232,0.975 1.279,1.729 h -0.004 c 0.002,0.038 0.013,0.074 0.013,0.113 V 5.741 C 18.343,5.121 15.571,4.252 12.651,3.947 7.926,3.454 6.602,5.099 2.442,5.099 1.541,5.099 0.725,4.851 -0.01,4.476 V 0.113 C -0.01,0.074 0.001,0.038 0.004,0 Z"
             style="fill:#ffffff;fill-opacity:1;fill-rule:nonzero;stroke:none"
             id="path98" /></g><g
           id="g100"
           transform="translate(393.2422,222.3594)"><path
             d="m 0,0 c 0,-2.937 -2.381,-5.318 -5.318,-5.318 -2.938,0 -5.319,2.381 -5.319,5.318 0,2.938 5.319,9.029 5.319,9.029 C -5.318,9.029 0,2.938 0,0"
             style="fill:#1a2e35;fill-opacity:1;fill-rule:nonzero;stroke:none"
             id="path102" /></g><g
           id="g104"
           transform="translate(420.8555,226.3301)"><path
             d="m 0,0 c 0,18.076 -14.654,32.73 -32.73,32.73 -18.078,0 -32.731,-14.654 -32.731,-32.73 0,-18.077 14.653,-32.73 32.731,-32.73 C -14.654,-32.73 0,-18.077 0,0 Z"
             style="fill:none;stroke:#aaff00;stroke-width:2;stroke-linecap:round;stroke-linejoin:round;stroke-miterlimit:10;stroke-dasharray:none;stroke-opacity:1"
             id="path106" /></g><g
           id="g108"
           transform="translate(150.4321,301.3325)"><path
             d="m 0,0 c 0,-8.163 -5.777,-14.781 -12.904,-14.781 -7.126,0 -12.904,6.618 -12.904,14.781 0,8.163 5.778,14.781 12.904,14.781 C -5.777,14.781 0,8.163 0,0"
             style="fill:#1a2e35;fill-opacity:1;fill-rule:nonzero;stroke:none"
             id="path110" /></g><g
           id="g112"
           transform="translate(137.5283,315.644)"><path
             d="m 0,0 c -6.856,0 -12.435,-6.42 -12.435,-14.312 0,-7.891 5.579,-14.311 12.435,-14.311 6.856,0 12.435,6.42 12.435,14.311 C 12.435,-6.42 6.856,0 0,0 m 0,-29.562 c -7.374,0 -13.373,6.842 -13.373,15.25 0,8.409 5.999,15.25 13.373,15.25 7.374,0 13.373,-6.841 13.373,-15.25 0,-8.408 -5.999,-15.25 -13.373,-15.25"
             style="fill:#ffffff;fill-opacity:1;fill-rule:nonzero;stroke:none"
             id="path114" /></g><g
           id="g116"
           transform="translate(146.209,301.3325)"><path
             d="m 0,0 c 0,-8.163 -5.777,-14.781 -12.904,-14.781 -7.126,0 -12.904,6.618 -12.904,14.781 0,8.163 5.778,14.781 12.904,14.781 C -5.777,14.781 0,8.163 0,0"
             style="fill:#1a2e35;fill-opacity:1;fill-rule:nonzero;stroke:none"
             id="path118" /></g><g
           id="g120"
           transform="translate(133.3052,315.644)"><path
             d="m 0,0 c -6.856,0 -12.435,-6.42 -12.435,-14.312 0,-7.891 5.579,-14.311 12.435,-14.311 6.856,0 12.435,6.42 12.435,14.311 C 12.435,-6.42 6.856,0 0,0 m 0,-29.562 c -7.374,0 -13.373,6.842 -13.373,15.25 0,8.409 5.999,15.25 13.373,15.25 7.374,0 13.373,-6.841 13.373,-15.25 0,-8.408 -5.999,-15.25 -13.373,-15.25"
             style="fill:#ffffff;fill-opacity:1;fill-rule:nonzero;stroke:none"
             id="path122" /></g><g
           id="g124"
           transform="translate(134.7129,299.6899)"><path
             d="M 0,0 H -26.511 V 4.223 H 0 C 1.167,4.223 2.112,3.278 2.112,2.112 2.112,0.945 1.167,0 0,0"
             style="fill:#1a2e35;fill-opacity:1;fill-rule:nonzero;stroke:none"
             id="path126" /></g><g
           id="g128"
           transform="translate(108.6709,300.1592)"><path
             d="m 0,0 h 26.042 c 0.906,0 1.643,0.737 1.643,1.643 0,0.905 -0.737,1.642 -1.643,1.642 H 0 Z m 26.042,-0.938 h -26.98 v 5.161 h 26.98 c 1.423,0 2.581,-1.157 2.581,-2.58 0,-1.424 -1.158,-2.581 -2.581,-2.581"
             style="fill:#ffffff;fill-opacity:1;fill-rule:nonzero;stroke:none"
             id="path130" /></g><g
           id="g132"
           transform="translate(127.4399,301.3325)"><path
             d="m 0,0 c 0,-8.163 -5.777,-14.781 -12.904,-14.781 -7.126,0 -12.904,6.618 -12.904,14.781 0,8.163 5.778,14.781 12.904,14.781 C -5.777,14.781 0,8.163 0,0"
             style="fill:#1a2e35;fill-opacity:1;fill-rule:nonzero;stroke:none"
             id="path134" /></g><g
           id="g136"
           transform="translate(114.5361,315.644)"><path
             d="m 0,0 c -6.856,0 -12.435,-6.42 -12.435,-14.312 0,-7.891 5.579,-14.311 12.435,-14.311 6.856,0 12.435,6.42 12.435,14.311 C 12.435,-6.42 6.856,0 0,0 m 0,-29.562 c -7.374,0 -13.373,6.842 -13.373,15.25 0,8.409 5.999,15.25 13.373,15.25 7.374,0 13.373,-6.841 13.373,-15.25 0,-8.408 -5.999,-15.25 -13.373,-15.25"
             style="fill:#ffffff;fill-opacity:1;fill-rule:nonzero;stroke:none"
             id="path138" /></g><g
           id="g140"
           transform="translate(123.2168,301.3325)"><path
             d="m 0,0 c 0,-8.163 -5.777,-14.781 -12.904,-14.781 -7.126,0 -12.904,6.618 -12.904,14.781 0,8.163 5.778,14.781 12.904,14.781 C -5.777,14.781 0,8.163 0,0"
             style="fill:#1a2e35;fill-opacity:1;fill-rule:nonzero;stroke:none"
             id="path142" /></g><g
           id="g144"
           transform="translate(110.313,315.644)"><path
             d="m 0,0 c -6.856,0 -12.435,-6.42 -12.435,-14.312 0,-7.891 5.579,-14.311 12.435,-14.311 6.856,0 12.435,6.42 12.435,14.311 C 12.435,-6.42 6.856,0 0,0 m 0,-29.562 c -7.374,0 -13.373,6.842 -13.373,15.25 0,8.409 5.999,15.25 13.373,15.25 7.374,0 13.373,-6.841 13.373,-15.25 0,-8.408 -5.999,-15.25 -13.373,-15.25"
             style="fill:#ffffff;fill-opacity:1;fill-rule:nonzero;stroke:none"
             id="path146" /></g><g
           id="g148"
           transform="translate(115.0239,301.3325)"><path
             d="m 0,0 c 0,-2.98 -2.109,-5.396 -4.711,-5.396 -2.601,0 -4.711,2.416 -4.711,5.396 0,2.98 2.11,5.396 4.711,5.396 C -2.109,5.396 0,2.98 0,0"
             style="fill:#1a2e35;fill-opacity:1;fill-rule:nonzero;stroke:none"
             id="path150" /></g><g
           id="g152"
           transform="translate(110.313,306.2593)"><path
             d="m 0,0 c -2.339,0 -4.241,-2.21 -4.241,-4.927 0,-2.717 1.902,-4.927 4.241,-4.927 2.339,0 4.241,2.21 4.241,4.927 C 4.241,-2.21 2.339,0 0,0 m 0,-10.792 c -2.856,0 -5.18,2.631 -5.18,5.865 0,3.234 2.324,5.865 5.18,5.865 2.857,0 5.18,-2.631 5.18,-5.865 0,-3.234 -2.323,-5.865 -5.18,-5.865"
             style="fill:#ffffff;fill-opacity:1;fill-rule:nonzero;stroke:none"
             id="path154" /></g><g
           id="g156"
           transform="translate(113.147,301.3325)"><path
             d="m 0,0 c 0,-2.98 -2.109,-5.396 -4.711,-5.396 -2.601,0 -4.711,2.416 -4.711,5.396 0,2.98 2.11,5.396 4.711,5.396 C -2.109,5.396 0,2.98 0,0"
             style="fill:#1a2e35;fill-opacity:1;fill-rule:nonzero;stroke:none"
             id="path158" /></g><g
           id="g160"
           transform="translate(108.436,306.2593)"><path
             d="m 0,0 c -2.339,0 -4.241,-2.21 -4.241,-4.927 0,-2.717 1.902,-4.927 4.241,-4.927 2.339,0 4.242,2.21 4.242,4.927 C 4.242,-2.21 2.339,0 0,0 m 0,-10.792 c -2.856,0 -5.18,2.631 -5.18,5.865 0,3.234 2.324,5.865 5.18,5.865 2.856,0 5.18,-2.631 5.18,-5.865 0,-3.234 -2.324,-5.865 -5.18,-5.865"
             style="fill:#ffffff;fill-opacity:1;fill-rule:nonzero;stroke:none"
             id="path162" /></g><g
           id="g164"
           transform="translate(157.3208,302.1069)"><path
             d="m 0,0 c 0,18.077 -14.654,32.73 -32.73,32.73 -18.077,0 -32.731,-14.653 -32.731,-32.73 0,-18.077 14.654,-32.731 32.731,-32.731 C -14.654,-32.731 0,-18.077 0,0 Z"
             style="fill:none;stroke:#aaff00;stroke-width:2;stroke-linecap:round;stroke-linejoin:round;stroke-miterlimit:10;stroke-dasharray:none;stroke-opacity:1"
             id="path166" /></g><g
           id="g168"
           transform="translate(403.7236,317.104)"><path
             d="m 0,0 c 0,0 3.768,4.496 0.84,5.658 -2.927,1.161 -5.563,-7.875 -5.563,-7.875 0,0 0.586,4.809 -1.381,7.035 -1.967,2.227 -2.553,-2.581 -1.872,-6.487 0.429,-2.46 1.03,-4.149 1.417,-5.066 -0.778,0.818 -1.66,1.614 -2.65,2.373 -6.349,4.862 -12.689,-6.016 -12.689,-6.016 0,0 -15.465,-12.996 -18.041,-22.047 -2.577,-9.052 24.543,5.567 32.035,11.262 5.373,4.085 5.617,8.451 2.991,12.388 2.647,-0.226 8.143,-0.524 9.692,0.722 2.064,1.66 -3.594,2.5 -3.594,2.5 0,0 8.701,2.663 9.809,6.603 C 12.104,4.99 0,0 0,0"
             style="fill:#1a2e35;fill-opacity:1;fill-rule:nonzero;stroke:none"
             id="path170" /></g><g
           id="g172"
           transform="translate(373.1123,291.3228)"><path
             d="m 0,0 c -0.146,-0.044 -0.31,-0.022 -0.441,0.075 -0.892,0.654 -1.866,0.739 -1.874,0.74 -0.275,0.022 -0.481,0.263 -0.46,0.537 0.022,0.275 0.265,0.482 0.535,0.46 C -2.189,1.809 -0.982,1.711 0.149,0.881 0.371,0.718 0.42,0.405 0.257,0.182 0.19,0.092 0.1,0.031 0,0"
             style="fill:#ffffff;fill-opacity:1;fill-rule:nonzero;stroke:none"
             id="path174" /></g><g
           id="g176"
           transform="translate(389.2471,294.6621)"><path
             d="M 0,0 C -0.265,-0.081 -0.544,0.067 -0.625,0.332 -1.35,2.701 -2.429,4.633 -3.83,6.075 -4.023,6.273 -4.019,6.59 -3.82,6.782 -3.623,6.974 -3.306,6.971 -3.114,6.772 -1.6,5.215 -0.44,3.147 0.331,0.625 0.412,0.36 0.264,0.081 0,0"
             style="fill:#ffffff;fill-opacity:1;fill-rule:nonzero;stroke:none"
             id="path178" /></g><g
           id="g180"
           transform="translate(383.8477,302.2554)"><path
             d="m 0,0 c -0.13,-0.04 -0.275,-0.027 -0.402,0.048 -1.36,0.808 -2.423,0.939 -2.433,0.94 -0.274,0.032 -0.472,0.279 -0.441,0.553 0.031,0.273 0.274,0.471 0.55,0.441 C -2.675,1.977 -1.451,1.835 0.109,0.908 0.347,0.767 0.425,0.46 0.283,0.222 0.217,0.111 0.115,0.035 0,0"
             style="fill:#ffffff;fill-opacity:1;fill-rule:nonzero;stroke:none"
             id="path182" /></g><g
           id="g184"
           transform="translate(395.543,297.6182)"><path
             d="m 0,0 c -0.072,-0.022 -0.149,-0.028 -0.229,-0.015 -0.273,0.046 -0.456,0.304 -0.411,0.576 0.661,3.931 -2.353,5.778 -2.482,5.855 -0.237,0.141 -0.316,0.448 -0.175,0.685 0.14,0.235 0.445,0.316 0.683,0.176 C -2.576,7.255 1.124,5.019 0.347,0.395 0.314,0.202 0.175,0.053 0,0"
             style="fill:#ffffff;fill-opacity:1;fill-rule:nonzero;stroke:none"
             id="path186" /></g><g
           id="g188"
           transform="translate(381.4482,290.7324)"><path
             d="m 0,0 c -0.265,-0.081 -0.544,0.067 -0.625,0.332 -0.637,2.082 -3.016,3.02 -3.04,3.029 -0.257,0.099 -0.386,0.388 -0.287,0.646 0.098,0.256 0.386,0.387 0.643,0.288 C -3.191,4.25 -0.451,3.18 0.331,0.625 0.412,0.36 0.264,0.081 0,0"
             style="fill:#ffffff;fill-opacity:1;fill-rule:nonzero;stroke:none"
             id="path190" /></g><g
           id="g192"
           transform="translate(421.6094,302.1069)"><path
             d="m 0,0 c 0,18.077 -14.654,32.73 -32.73,32.73 -18.078,0 -32.731,-14.653 -32.731,-32.73 0,-18.077 14.653,-32.731 32.731,-32.731 C -14.654,-32.731 0,-18.077 0,0 Z"
             style="fill:none;stroke:#aaff00;stroke-width:2;stroke-linecap:round;stroke-linejoin:round;stroke-miterlimit:10;stroke-dasharray:none;stroke-opacity:1"
             id="path194" /></g><g
           id="g196"
           transform="translate(186.5654,365.4854)"><path
             d="m 0,0 c 0.631,0.193 1.115,0.555 1.463,1.1 1.176,1.841 0.635,5.321 -0.06,7.794 -2.914,4.007 -7.532,6.678 -12.797,6.958 C -5.352,13.299 -0.895,7.241 0,0"
             style="fill:#1a2e35;fill-opacity:1;fill-rule:nonzero;stroke:none"
             id="path198" /></g><g
           id="g200"
           transform="translate(169.2949,359.8984)"><path
             d="m 0,0 c 5.828,-0.777 11.398,-0.442 15.837,0.811 0.07,0.688 0.115,1.382 0.115,2.087 0,0.345 -0.012,0.687 -0.028,1.027 -0.015,0 -0.03,-0.002 -0.046,-0.002 -3.731,0 -7.121,2.334 -10.698,4.797 -1.695,1.167 -3.447,2.373 -5.33,3.408 -3.535,1.945 -6.731,2.255 -8.696,2.201 -1.958,-2.757 -3.121,-6.116 -3.13,-9.752 C -10.785,3.394 -7.528,1.003 0,0"
             style="fill:#1a2e35;fill-opacity:1;fill-rule:nonzero;stroke:none"
             id="path202" /></g><g
           id="g204"
           transform="translate(190.1909,370.1855)"><path
             d="m 0,0 c 0.067,-1.594 -0.137,-3.192 -0.909,-4.401 -0.6,-0.94 -1.47,-1.539 -2.584,-1.801 0.022,-0.393 0.036,-0.788 0.036,-1.187 0,-0.537 -0.022,-1.069 -0.059,-1.598 1.734,0.613 3.249,1.383 4.491,2.293 0.017,0.314 0.047,0.625 0.047,0.944 C 1.022,-3.729 0.649,-1.798 0,0"
             style="fill:#1a2e35;fill-opacity:1;fill-rule:nonzero;stroke:none"
             id="path206" /></g><g
           id="g208"
           transform="translate(185.9761,357.0645)"><path
             d="M 0,0 C 1.281,0.093 2.346,-0.156 3.171,-0.741 4.046,0.86 4.654,2.624 4.974,4.486 3.675,3.692 2.177,3.022 0.518,2.484 0.393,1.64 0.219,0.811 0,0"
             style="fill:#1a2e35;fill-opacity:1;fill-rule:nonzero;stroke:none"
             id="path210" /></g><g
           id="g212"
           transform="translate(183.6162,354.8218)"><path
             d="m 0,0 c -0.89,-0.43 -1.871,-1.001 -2.931,-1.622 -2.684,-1.571 -5.726,-3.351 -9.12,-3.887 -0.809,-0.128 -1.594,-0.183 -2.347,-0.183 -0.95,0 -1.845,0.09 -2.68,0.234 2.319,-1.192 4.941,-1.876 7.727,-1.876 1.506,0 2.958,0.215 4.348,0.584 C -2.847,-4.965 -1.141,-2.646 0,0"
             style="fill:#1a2e35;fill-opacity:1;fill-rule:nonzero;stroke:none"
             id="path214" /></g><g
           id="g216"
           transform="translate(185.7725,355.5557)"><path
             d="M 0,0 C -0.091,-0.011 -0.189,-0.036 -0.284,-0.054 -1.087,-2.315 -2.265,-4.39 -3.754,-6.18 -1.185,-4.854 1.005,-2.899 2.6,-0.507 1.999,-0.036 1.126,0.136 0,0"
             style="fill:#1a2e35;fill-opacity:1;fill-rule:nonzero;stroke:none"
             id="path218" /></g><g
           id="g220"
           transform="translate(169.8618,373.3301)"><path
             d="M 0,0 C 1.948,-1.071 3.731,-2.299 5.456,-3.486 8.949,-5.891 11.995,-7.989 15.228,-8.021 14.215,0.152 8.344,6.691 0.902,7.686 -2.694,6.931 -5.858,5.026 -8.22,2.386 -6.083,2.288 -3.178,1.748 0,0"
             style="fill:#1a2e35;fill-opacity:1;fill-rule:nonzero;stroke:none"
             id="path222" /></g><g
           id="g224"
           transform="translate(171.333,350.7817)"><path
             d="M 0,0 C 3.117,0.492 6.03,2.198 8.601,3.702 10.22,4.65 11.672,5.5 12.994,5.948 13.233,6.716 13.43,7.505 13.577,8.311 10.786,7.588 7.624,7.203 4.234,7.203 c -2.085,0 -4.253,0.144 -6.469,0.439 -6.228,0.831 -9.747,2.588 -11.649,3.989 C -13.407,7.626 -11.536,4.057 -8.766,1.41 -7.105,0.61 -3.813,-0.603 0,0"
             style="fill:#1a2e35;fill-opacity:1;fill-rule:nonzero;stroke:none"
             id="path226" /></g><g
           id="g228"
           transform="translate(206.9966,364.4121)"><path
             d="m 0,0 c 0,18.077 -14.654,32.73 -32.73,32.73 -18.077,0 -32.731,-14.653 -32.731,-32.73 0,-18.077 14.654,-32.73 32.731,-32.73 C -14.654,-32.73 0,-18.077 0,0 Z"
             style="fill:none;stroke:#aaff00;stroke-width:2;stroke-linecap:round;stroke-linejoin:round;stroke-miterlimit:10;stroke-dasharray:none;stroke-opacity:1"
             id="path230" /></g><g
           id="g232"
           transform="translate(355.2002,363.2905)"><path
             d="m 0,0 c 0,-8.78 -7.179,-18.098 -14.059,-18.098 -1.684,0 -6.067,-0.006 -7.628,0.597 -8.525,3.292 -11.815,11.452 -11.816,18.547 0,3.687 1.103,7.704 4.021,10.159 3.871,3.258 8.134,1.209 12.626,1.209 3.907,0 9.39,1.599 12.369,-0.599 C -0.729,9.042 0,4.365 0,0"
             style="fill:#1a2e35;fill-opacity:1;fill-rule:nonzero;stroke:none"
             id="path234" /></g><g
           id="g236"
           transform="translate(337.8945,374.5078)"><path
             d="M 0,0 C 0,0 1.303,4.038 2.35,6.132 3.396,8.226 5.191,9.123 5.191,9.123 L 6.985,8.375 c 0,0 -2.093,-1.346 -3.439,-3.14 C 2.199,3.44 0.405,-1.047 0.405,-1.047"
             style="fill:#1a2e35;fill-opacity:1;fill-rule:nonzero;stroke:none"
             id="path238" /></g><g
           id="g240"
           transform="translate(339.0469,377.1997)"><path
             d="M 0,0 C 0,0 0.15,1.346 -1.047,2.393 -2.243,3.44 -6.88,5.684 -6.88,5.684 c 0,0 -0.448,-2.543 1.047,-4.038 C -4.337,0.15 0,0 0,0"
             style="fill:#1a2e35;fill-opacity:1;fill-rule:nonzero;stroke:none"
             id="path242" /></g><g
           id="g244"
           transform="translate(350.5918,369.1885)"><path
             d="m 0,0 c -0.566,-0.981 -2.274,-1.055 -3.816,-0.165 -1.541,0.89 -2.331,2.406 -1.766,3.387 0.566,0.981 2.275,1.054 3.816,0.165 C -0.225,2.497 0.565,0.981 0,0"
             style="fill:#ffffff;fill-opacity:1;fill-rule:nonzero;stroke:none"
             id="path246" /></g><g
           id="g248"
           transform="translate(371.1797,364.4121)"><path
             d="m 0,0 c 0,18.077 -14.654,32.73 -32.73,32.73 -18.078,0 -32.731,-14.653 -32.731,-32.73 0,-18.077 14.653,-32.73 32.731,-32.73 C -14.654,-32.73 0,-18.077 0,0 Z"
             style="fill:none;stroke:#aaff00;stroke-width:2;stroke-linecap:round;stroke-linejoin:round;stroke-miterlimit:10;stroke-dasharray:none;stroke-opacity:1"
             id="path250" /></g></g></g><g
       id="g252"><g
         id="g254"
         clip-path="url(#clipPath258)"><g
           id="g260"
           transform="translate(281.4873,393.3257)"><path
             d="m 0,0 -0.15,0.081 c -0.101,0.054 -10.164,5.444 -12.555,5.922 -1.989,0.399 -6.558,0.304 -8.752,0.257 -0.495,-0.01 -0.879,-0.018 -1.103,-0.018 -1.515,0 -2.777,-0.305 -2.933,-0.709 -0.068,-0.176 0.099,-0.58 0.768,-1.189 1.996,-1.816 5.876,-2.098 7.742,-2.235 0.719,-0.052 1.076,-0.082 1.291,-0.153 0.828,-0.275 2.393,-2.03 2.698,-2.379 l 0.612,-0.7 -25.901,-2.662 c -0.658,-0.068 -1.136,-0.639 -1.085,-1.3 0.049,-0.631 0.579,-1.12 1.21,-1.12 h 0.017 l 19.508,0.295 -21.932,-4.905 c -0.278,-0.062 -0.51,-0.229 -0.657,-0.472 -0.146,-0.242 -0.185,-0.527 -0.111,-0.801 0.13,-0.478 0.592,-0.788 1.078,-0.753 l 16.41,1.387 0.176,-0.941 -14.669,-4.288 c -0.593,-0.174 -0.94,-0.779 -0.789,-1.378 0.144,-0.58 0.718,-0.95 1.307,-0.851 l 14.181,2.476 0.249,-0.926 -8.524,-3.118 c -0.235,-0.086 -0.287,-0.287 -0.298,-0.37 -0.012,-0.083 -0.016,-0.29 0.188,-0.435 0.095,-0.068 0.2,-0.098 0.309,-0.085 2.367,0.247 14.278,1.503 16.265,1.945 2.173,0.483 13.488,5.152 13.602,5.199 l 0.173,0.037 22.749,0.495 L 15.89,3.038 C 15.872,3.032 15.858,3.021 15.84,3.017 Z"
             style="fill:#1a2e35;fill-opacity:1;fill-rule:nonzero;stroke:none"
             id="path262" /></g><g
           id="g264"
           transform="translate(246.2451,378.5498)"><path
             d="M 0,0 4.766,1.393 C 4.873,1.552 4.971,1.696 5.054,1.82 L 0.727,1.454 Z"
             style="fill:#1a2e35;fill-opacity:1;fill-rule:nonzero;stroke:none"
             id="path266" /></g><g
           id="g268"
           transform="translate(251.4717,380.3843)"><path
             d="M 0,0 -0.112,-0.339 1.474,0.125 Z"
             style="fill:#1a2e35;fill-opacity:1;fill-rule:nonzero;stroke:none"
             id="path270" /></g><g
           id="g272"
           transform="translate(244.8096,386.1807)"><path
             d="M 0,0 C -0.384,-0.577 -0.692,-1.039 -0.888,-1.332 -1.052,-1.579 -1.203,-1.843 -1.344,-2.114 L 8.698,0.132 Z"
             style="fill:#1a2e35;fill-opacity:1;fill-rule:nonzero;stroke:none"
             id="path274" /></g><g
           id="g276"
           transform="translate(248.6484,383.3564)"><path
             d="M 0,0 -1.172,-2.344 8.994,-1.485 9.17,-2.426 2.34,-4.422 1.193,-7.865 6.388,-6.958 c 1.465,1.477 2.816,2.978 2.816,2.978 0,0 -1.216,-1.523 -1.901,-2.818 L 9.2,-6.467 9.449,-7.393 6.892,-8.328 c 0.019,-0.047 0.039,-0.095 0.074,-0.13 0.746,-0.747 1.99,-1.493 2.736,-0.747 0.746,0.747 6.717,8.458 7.96,9.205 1.244,0.746 5.225,2.985 8.707,5.97 0.835,0.716 2.574,2.551 4.73,4.92 -2.954,1.547 -9.156,4.72 -10.965,5.083 -1.989,0.398 -6.558,0.303 -8.752,0.256 -0.495,-0.01 -0.879,-0.018 -1.103,-0.018 -1.515,0 -2.777,-0.305 -2.933,-0.709 -0.068,-0.176 0.099,-0.58 0.768,-1.189 1.995,-1.815 5.876,-2.098 7.741,-2.234 0.72,-0.053 1.077,-0.082 1.291,-0.154 0.829,-0.275 2.394,-2.03 2.699,-2.379 L 20.457,8.846 -1.316,6.608 C -1.994,5.591 -2.637,4.627 -3.19,3.797 L 14.206,4.06 -5.683,-0.389 c -0.339,-0.856 -0.581,-1.711 -0.745,-2.4 l 4.057,0.343 C -1.183,-1.184 0,0 0,0"
             style="fill:#1a2e35;fill-opacity:1;fill-rule:nonzero;stroke:none"
             id="path278" /></g><g
           id="g280"
           transform="translate(243.9219,378.1323)"><path
             d="m 0,0 c 0.161,0.322 0.715,0.984 1.388,1.731 l -3.3,-0.279 C -1.964,1.168 -1.99,0.995 -1.99,0.995 c 0,0 1.492,-1.99 1.99,-0.995"
             style="fill:#1a2e35;fill-opacity:1;fill-rule:nonzero;stroke:none"
             id="path282" /></g><g
           id="g284"
           transform="translate(248.3999,398.5312)"><path
             d="m 0,0 c 1.741,0.498 4.975,0.498 4.975,0.498 l -5.35,-8.026 19.102,1.964 c -0.661,0.687 -1.349,1.306 -1.636,1.401 -0.116,0.038 -0.616,0.074 -1.057,0.106 -2.123,0.156 -6.077,0.445 -8.318,2.482 -0.346,0.314 -1.398,1.27 -1.019,2.249 0.446,1.153 2.592,1.325 3.831,1.325 0.22,0 0.597,0.008 1.081,0.018 2.23,0.046 6.866,0.143 8.963,-0.275 1.997,-0.4 8.559,-3.774 11.444,-5.289 6.866,7.593 17.239,19.716 17.239,19.716 l -16.667,6.22 c -0.746,0 -8.458,-15.175 -8.458,-15.175 0,0 -13.433,1.99 -15.174,1.742 C 7.214,8.707 -0.498,4.478 -2.239,3.731 -3.98,2.985 -5.971,2.239 -4.976,1.244 -3.98,0.249 -1.742,-0.498 0,0"
             style="fill:#1a2e35;fill-opacity:1;fill-rule:nonzero;stroke:none"
             id="path286" /></g><g
           id="g288"
           transform="translate(252.0361,373.7466)"><path
             d="m 0,0 -0.691,-0.253 c 0.167,0.016 0.345,0.065 0.538,0.161 C -0.107,-0.069 -0.051,-0.031 0,0"
             style="fill:#1a2e35;fill-opacity:1;fill-rule:nonzero;stroke:none"
             id="path290" /></g><g
           id="g292"
           transform="translate(252.6992,375.0137)"><path
             d="m 0,0 -2.867,-0.5 c 0.077,-0.136 0.178,-0.289 0.304,-0.437 z"
             style="fill:#1a2e35;fill-opacity:1;fill-rule:nonzero;stroke:none"
             id="path294" /></g><g
           id="g296"
           transform="translate(250.1558,378.6909)"><path
             d="m 0,0 -4.498,-1.315 -0.243,-0.488 c 0,0 0.151,-1.301 0.547,-2.073 l 1.619,0.282 C -1.834,-2.637 -0.828,-1.203 0,0"
             style="fill:#1a2e35;fill-opacity:1;fill-rule:nonzero;stroke:none"
             id="path298" /></g></g></g><g
       id="g300"><g
         id="g302"
         clip-path="url(#clipPath306)"><g
           id="g308"
           transform="translate(255.125,407.707)"><path
             d="M 0,0 C 0,0 -3.541,7.553 -6.18,4.96 -8.976,2.212 0,0 0,0"
             style="fill:#1a2e35;fill-opacity:1;fill-rule:nonzero;stroke:none"
             id="path310" /></g><g
           id="g312"
           transform="translate(265.9727,407.707)"><path
             d="M 0,0 C 0,0 3.54,7.553 6.179,4.96 8.976,2.212 0,0 0,0"
             style="fill:#1a2e35;fill-opacity:1;fill-rule:nonzero;stroke:none"
             id="path314" /></g><g
           id="g316"
           transform="translate(256.8535,408.2539)"><path
             d="m 0,0 c -0.266,0 -0.481,0.215 -0.481,0.481 v 16.563 c 0,0.266 0.215,0.481 0.481,0.481 0.267,0 0.481,-0.215 0.481,-0.481 V 0.481 C 0.481,0.215 0.267,0 0,0"
             style="fill:#1a2e35;fill-opacity:1;fill-rule:nonzero;stroke:none"
             id="path318" /></g><g
           id="g320"
           transform="translate(260.3672,402.2314)"><path
             d="m 0,0 c -0.266,0 -0.481,0.215 -0.481,0.481 v 3.513 c 0,0.266 0.215,0.481 0.481,0.481 0.266,0 0.481,-0.215 0.481,-0.481 V 0.481 C 0.481,0.215 0.266,0 0,0"
             style="fill:#ffffff;fill-opacity:1;fill-rule:nonzero;stroke:none"
             id="path322" /></g><g
           id="g324"
           transform="translate(260.3672,405.7441)"><path
             d="m 0,0 c -0.266,0 -0.481,0.215 -0.481,0.481 v 9.035 c 0,0.266 0.215,0.482 0.481,0.482 0.266,0 0.481,-0.216 0.481,-0.482 V 0.481 C 0.481,0.215 0.266,0 0,0"
             style="fill:#1a2e35;fill-opacity:1;fill-rule:nonzero;stroke:none"
             id="path326" /></g><g
           id="g328"
           transform="translate(264.6338,403.7373)"><path
             d="m 0,0 c -0.267,0 -0.481,0.215 -0.481,0.481 v 14.807 c 0,0.265 0.214,0.481 0.481,0.481 0.266,0 0.481,-0.216 0.481,-0.481 V 0.481 C 0.481,0.215 0.266,0 0,0"
             style="fill:#1a2e35;fill-opacity:1;fill-rule:nonzero;stroke:none"
             id="path330" /></g><g
           id="g332"
           transform="translate(264.6338,420.0493)"><path
             d="m 0,0 c -0.267,0 -0.481,0.215 -0.481,0.481 v 3.764 c 0,0.266 0.214,0.481 0.481,0.481 0.266,0 0.481,-0.215 0.481,-0.481 V 0.481 C 0.481,0.215 0.266,0 0,0"
             style="fill:#1a2e35;fill-opacity:1;fill-rule:nonzero;stroke:none"
             id="path334" /></g><g
           id="g336"
           transform="translate(252.3369,396.6899)"><path
             d="M 0,0 C 0,0 -2.76,1.505 -6.274,0.25 -9.787,-1.004 -8.281,-3.514 -6.023,-3.012 -3.764,-2.51 0,0 0,0"
             style="fill:#1a2e35;fill-opacity:1;fill-rule:nonzero;stroke:none"
             id="path338" /></g><g
           id="g340"
           transform="translate(253.5918,391.189)"><path
             d="m 0,0 c -0.266,0 -0.48,0.215 -0.48,0.481 v 4.518 c 0,0.266 0.214,0.481 0.48,0.481 0.267,0 0.481,-0.215 0.481,-0.481 V 0.481 C 0.481,0.215 0.267,0 0,0"
             style="fill:#ffffff;fill-opacity:1;fill-rule:nonzero;stroke:none"
             id="path342" /></g><g
           id="g344"
           transform="translate(294.5605,390.7432)"><path
             d="m 0,0 c 0,18.077 -14.653,32.731 -32.73,32.731 -18.077,0 -32.731,-14.654 -32.731,-32.731 0,-18.077 14.654,-32.73 32.731,-32.73 C -14.653,-32.73 0,-18.077 0,0 Z"
             style="fill:none;stroke:#aaff00;stroke-width:2;stroke-linecap:round;stroke-linejoin:round;stroke-miterlimit:10;stroke-dasharray:none;stroke-opacity:1"
             id="path346" /></g></g></g><g
       id="g348"><g
         id="g350"
         clip-path="url(#clipPath354)"><g
           id="g356"
           transform="translate(328.5674,74.5)"><path
             d="m 0,0 c 0,-7.456 -39.205,-13.5 -87.567,-13.5 -48.363,0 -87.568,6.044 -87.568,13.5 0,7.456 39.205,13.5 87.568,13.5 C -39.205,13.5 0,7.456 0,0"
             style="fill:#1a2e35;fill-opacity:1;fill-rule:nonzero;stroke:none"
             id="path358" /></g></g></g><g
       id="g360"><g
         id="g362"
         clip-path="url(#clipPath366)"><g
           id="g368"
           transform="translate(226.4766,221.5078)"><path
             d="m 0,0 c 0,0 -1.965,-7.831 -3.401,-19.539 -1.437,-11.709 0.94,-30.04 0.94,-30.04 0,0 -17.037,8.72 -26.244,7.566 -9.207,-1.152 -46.502,-14.363 -51.407,-13.902 0,0 -3.671,-6.512 -0.109,-6.424 4.886,0.12 56.897,-0.961 65.3,-1.945 8.595,-1.007 20.765,-3.601 25.039,0.275 2.899,2.629 13.505,35.635 13.667,46.447 0.161,10.812 1.274,18.189 1.274,18.189"
             style="fill:#ffffff;fill-opacity:1;fill-rule:nonzero;stroke:#1a2e35;stroke-width:1;stroke-linecap:round;stroke-linejoin:round;stroke-miterlimit:10;stroke-dasharray:none;stroke-opacity:1"
             id="path370" /></g><g
           id="g372"
           transform="translate(223.0752,201.9687)"><path
             d="m 0,0 c -1.437,-11.709 0.94,-30.04 0.94,-30.04 0,0 -17.036,8.72 -26.243,7.566 -2.054,-0.256 -5.511,-1.116 -9.69,-2.288 -2.325,-4.509 -4.39,-11.415 -1.164,-18.856 11.279,-0.338 21.332,-0.74 24.637,-1.127 8.596,-1.007 20.766,-3.601 25.039,0.275 2.899,2.629 13.505,35.635 13.667,46.448 0.162,10.811 1.274,18.188 1.274,18.188 L 3.401,19.539 C 3.401,19.539 1.436,11.708 0,0"
             style="fill:#1a2e35;fill-opacity:1;fill-rule:nonzero;stroke:none"
             id="path374" /></g><g
           id="g376"
           transform="translate(223.0752,201.9687)"><path
             d="m 0,0 c -1.437,-11.709 0.94,-30.04 0.94,-30.04 0,0 -17.036,8.72 -26.243,7.566 -2.054,-0.256 -5.511,-1.116 -9.69,-2.288 -2.325,-4.509 -4.39,-11.415 -1.164,-18.856 11.279,-0.338 21.332,-0.74 24.637,-1.127 8.596,-1.007 20.766,-3.601 25.039,0.275 2.899,2.629 13.505,35.635 13.667,46.448 0.162,10.811 1.274,18.188 1.274,18.188 L 3.401,19.539 C 3.401,19.539 1.436,11.708 0,0 Z"
             style="fill:none;stroke:#1a2e35;stroke-width:1;stroke-linecap:round;stroke-linejoin:round;stroke-miterlimit:10;stroke-dasharray:none;stroke-opacity:1"
             id="path378" /></g><g
           id="g380"
           transform="translate(239.2827,216.6484)"><path
             d="m 0,0 -5.573,-2.808 c 0,0 -1.856,0.2 1.672,5.078"
             style="fill:#ffffff;fill-opacity:1;fill-rule:nonzero;stroke:#1a2e35;stroke-width:1;stroke-linecap:round;stroke-linejoin:round;stroke-miterlimit:10;stroke-dasharray:none;stroke-opacity:1"
             id="path382" /></g><g
           id="g384"
           transform="translate(257.9365,332.8633)"><path
             d="m 0,0 c 0,0 -5.594,3.872 -15.06,4.302 -9.465,0.431 -15.919,-12.477 -14.628,-20.652 1.291,-8.175 0.86,-16.78 -10.326,-15.489 -11.187,1.291 -24.955,0 -27.967,-12.047 -3.012,-12.048 10.326,-27.106 25.385,-21.513 15.059,5.593 11.426,16.642 18.501,18.931 7.076,2.29 14.199,2.152 15.059,10.757 0.861,8.605 -4.733,16.349 -0.86,24.094 C -6.024,-3.873 0,0 0,0"
             style="fill:#1a2e35;fill-opacity:1;fill-rule:nonzero;stroke:none"
             id="path386" /></g><g
           id="g388"
           transform="translate(257.9365,332.8633)"><path
             d="m 0,0 c 0,0 -5.594,3.872 -15.06,4.302 -9.465,0.431 -15.919,-12.477 -14.628,-20.652 1.291,-8.175 0.86,-16.78 -10.326,-15.489 -11.187,1.291 -24.955,0 -27.967,-12.047 -3.012,-12.048 10.326,-27.106 25.385,-21.513 15.059,5.593 11.426,16.642 18.501,18.931 7.076,2.29 14.199,2.152 15.059,10.757 0.861,8.605 -4.733,16.349 -0.86,24.094 C -6.024,-3.873 0,0 0,0 Z"
             style="fill:none;stroke:#1a2e35;stroke-width:1;stroke-linecap:round;stroke-linejoin:round;stroke-miterlimit:10;stroke-dasharray:none;stroke-opacity:1"
             id="path390" /></g><g
           id="g392"
           transform="translate(251.8184,331.1001)"><path
             d="m 0,0 c 0,0 -11.741,2.283 -15.654,-7.501 -3.914,-9.784 4.891,-18.263 1.956,-28.047 -2.935,-9.784 -14.023,-17.285 -23.155,-14.023 -9.131,3.261 -17.937,6.522 -18.589,1.304 -0.652,-5.218 6.196,-6.523 7.827,-5.544 1.631,0.978 -0.652,2.935 -0.652,2.935"
             style="fill:none;stroke:#ffffff;stroke-width:1;stroke-linecap:round;stroke-linejoin:round;stroke-miterlimit:10;stroke-dasharray:none;stroke-opacity:1"
             id="path394" /></g><g
           id="g396"
           transform="translate(214.2285,292.8979)"><path
             d="M 0,0 C -1.335,0.345 -2.72,0.602 -4.155,0.697"
             style="fill:none;stroke:#ffffff;stroke-width:1;stroke-linecap:round;stroke-linejoin:round;stroke-miterlimit:10;stroke-dasharray:none;stroke-opacity:1"
             id="path398" /></g><g
           id="g400"
           transform="translate(242.6865,332.4043)"><path
             d="m 0,0 c 0,0 -11.088,-1.957 -11.088,-13.697 0,-11.74 5.544,-18.915 0.652,-26.416 -3.39,-5.198 -8.032,-2.879 -13.818,-0.748"
             style="fill:none;stroke:#ffffff;stroke-width:1;stroke-linecap:round;stroke-linejoin:round;stroke-miterlimit:10;stroke-dasharray:none;stroke-opacity:1"
             id="path402" /></g><g
           id="g404"
           transform="translate(264.3555,321.2612)"><path
             d="m 0,0 c 0,0 0.388,-6.293 -1.036,-9.966 -1.424,-3.673 -7.601,-9.63 -7.235,-12.795 0.367,-3.164 9.417,-9.662 12.309,-8.573 2.892,1.089 5.293,17.512 5.293,17.512 0,0 -5.043,11.639 -9.331,13.822"
             style="fill:#ffffff;fill-opacity:1;fill-rule:nonzero;stroke:none"
             id="path406" /></g><g
           id="g408"
           transform="translate(264.3555,321.2612)"><path
             d="m 0,0 c 0,0 0.388,-6.293 -1.036,-9.966 -1.424,-3.673 -7.601,-9.63 -7.235,-12.795 0.367,-3.164 9.417,-9.662 12.309,-8.573 2.892,1.089 5.293,17.512 5.293,17.512 0,0 -5.043,11.639 -9.331,13.822 z"
             style="fill:none;stroke:#1a2e35;stroke-width:1;stroke-linecap:round;stroke-linejoin:round;stroke-miterlimit:10;stroke-dasharray:none;stroke-opacity:1"
             id="path410" /></g><g
           id="g412"
           transform="translate(269.4248,309.8257)"><path
             d="m 0,0 c 1.859,-3.475 3.447,-6.367 7.585,-7.129 5.675,-1.045 7.756,6.3 8.525,13.707 C 16.302,6.494 16.499,6.43 16.696,6.41 18.11,6.263 19.572,6.586 20.64,7.667 21.094,8.131 20.397,9.03 19.479,10 c -2.708,2.864 -2.935,5.079 -2.904,8.974 0.015,1.758 0.022,3.543 -0.439,5.239 -0.103,0.378 -0.227,0.744 -0.372,1.097 -4.132,10.101 -24.796,10.475 -25.915,-1.954 -0.363,-4.031 0.162,-8.651 1.519,-13.064"
             style="fill:#ffffff;fill-opacity:1;fill-rule:nonzero;stroke:none"
             id="path414" /></g></g></g><g
       id="g416"><g
         id="g418"
         clip-path="url(#clipPath422)"><g
           id="g424"
           transform="translate(286,328.7998)"><path
             d="m 0,0 c 0.015,1.758 0.021,3.542 -0.439,5.239 -0.103,0.378 -0.227,0.743 -0.373,1.097 -4.131,10.101 -24.795,10.475 -25.915,-1.954 -0.361,-4.015 0.16,-8.614 1.504,-13.011 10.124,3.404 19.821,5.171 25.284,5.983 C 0.001,-1.846 -0.008,-0.976 0,0"
             style="fill:#aaff00;fill-opacity:1;fill-rule:nonzero;stroke:none"
             id="path426" /></g><g
           id="g428"><g
             id="g430" /><g
             id="g442"><g
               clip-path="url(#clipPath434)"
               opacity="0.5"
               id="g440"><g
                 transform="translate(286,328.7998)"
                 id="g438"><path
                   d="m 0,0 c 0.015,1.758 0.021,3.542 -0.439,5.239 -0.103,0.378 -0.227,0.743 -0.373,1.097 -4.131,10.101 -24.795,10.475 -25.915,-1.954 -0.361,-4.015 0.16,-8.614 1.504,-13.011 10.124,3.404 19.821,5.171 25.284,5.983 C 0.001,-1.846 -0.008,-0.976 0,0"
                   style="fill:#ffffff;fill-opacity:1;fill-rule:nonzero;stroke:none"
                   id="path436" /></g></g></g></g></g></g><g
       id="g444"><g
         id="g446"
         clip-path="url(#clipPath450)"><g
           id="g452"
           transform="translate(269.4248,309.8257)"><path
             d="m 0,0 c 1.859,-3.475 3.447,-6.367 7.585,-7.129 5.675,-1.045 7.756,6.3 8.525,13.707 C 16.302,6.494 16.499,6.43 16.696,6.41 18.11,6.263 19.572,6.586 20.64,7.667 21.094,8.131 20.397,9.03 19.479,10 c -2.708,2.864 -2.935,5.079 -2.904,8.974 0.015,1.758 0.022,3.543 -0.439,5.239 -0.103,0.378 -0.227,0.744 -0.372,1.097 -4.132,10.101 -24.796,10.475 -25.915,-1.954 -0.363,-4.031 0.162,-8.651 1.519,-13.064"
             style="fill:none;stroke:#1a2e35;stroke-width:1;stroke-linecap:round;stroke-linejoin:round;stroke-miterlimit:10;stroke-dasharray:none;stroke-opacity:1"
             id="path454" /></g><g
           id="g456"
           transform="translate(283.1396,324.2207)"><path
             d="m 0,0 c 0.044,-0.761 -0.21,-1.394 -0.568,-1.415 -0.359,-0.021 -0.684,0.58 -0.728,1.34 C -1.34,0.686 -1.085,1.319 -0.727,1.34 -0.369,1.36 -0.043,0.761 0,0"
             style="fill:#1a2e35;fill-opacity:1;fill-rule:nonzero;stroke:none"
             id="path458" /></g><g
           id="g460"
           transform="translate(282.998,313.3936)"><path
             d="M 0,0 C 0,0 -3.071,-0.205 -3.686,2.047"
             style="fill:none;stroke:#1a2e35;stroke-width:1;stroke-linecap:round;stroke-linejoin:round;stroke-miterlimit:10;stroke-dasharray:none;stroke-opacity:1"
             id="path462" /></g><g
           id="g464"
           transform="translate(284.043,337.1606)"><path
             d="m 0,0 c -5.872,8.058 -24.88,2.166 -25.918,-9.367 -0.526,-5.839 -0.746,-13.667 4.855,-14.574 1.725,5.432 7.316,5.578 7.144,8.368 -0.256,4.144 7.963,3.977 6.9,10.264 C -7.937,0.123 -3.618,-3.17 0,0"
             style="fill:#1a2e35;fill-opacity:1;fill-rule:nonzero;stroke:none"
             id="path466" /></g><g
           id="g468"
           transform="translate(284.043,337.1606)"><path
             d="m 0,0 c -5.872,8.058 -24.88,2.166 -25.918,-9.367 -0.526,-5.839 -0.746,-13.667 4.855,-14.574 1.725,5.432 7.316,5.578 7.144,8.368 -0.256,4.144 7.963,3.977 6.9,10.264 C -7.937,0.123 -3.618,-3.17 0,0 Z"
             style="fill:none;stroke:#1a2e35;stroke-width:1;stroke-linecap:round;stroke-linejoin:round;stroke-miterlimit:10;stroke-dasharray:none;stroke-opacity:1"
             id="path470" /></g><g
           id="g472"
           transform="translate(258.2764,323.1616)"><path
             d="m 0,0 28.806,9.705 c 0,0 -3.766,10 -8.647,12.566 C 15.278,24.837 3.687,22.267 -0.273,17.187 -4.233,12.108 -1.87,8.431 0,0"
             style="fill:#aaff00;fill-opacity:1;fill-rule:nonzero;stroke:none"
             id="path474" /></g></g></g><g
       id="g476"><g
         id="g478"
         clip-path="url(#clipPath482)"><g
           id="g484"><g
             id="g486" /><g
             id="g498"><g
               clip-path="url(#clipPath490)"
               opacity="0.199997"
               id="g496"><g
                 transform="translate(263.2422,337.4663)"
                 id="g494"><path
                   d="M 0,0 C 0.319,4.785 5.306,7.913 6.674,8.685 2.005,7.957 -2.923,5.854 -5.239,2.883 c -3.96,-5.08 -1.597,-8.757 0.273,-17.188 l 8.881,2.992 C 2.269,-8.063 -0.23,-3.458 0,0"
                   style="fill:#000000;fill-opacity:1;fill-rule:nonzero;stroke:none"
                   id="path492" /></g></g></g></g></g></g><g
       id="g500"><g
         id="g502"
         clip-path="url(#clipPath506)"><g
           id="g508"
           transform="translate(258.2764,323.1616)"><path
             d="m 0,0 28.806,9.705 c 0,0 -3.766,10 -8.647,12.566 C 15.278,24.837 3.687,22.267 -0.273,17.187 -4.233,12.108 -1.87,8.431 0,0 Z"
             style="fill:none;stroke:#1a2e35;stroke-width:1;stroke-linecap:round;stroke-linejoin:round;stroke-miterlimit:10;stroke-dasharray:none;stroke-opacity:1"
             id="path510" /></g><g
           id="g512"
           transform="translate(277.457,329.4048)"><path
             d="M 0,0 C 0,0 12.398,0.428 18.51,-0.208 24.621,-0.843 20.829,2.297 9.625,3.461 9.625,3.461 2.143,0.807 0,0"
             style="fill:#ffffff;fill-opacity:1;fill-rule:nonzero;stroke:none"
             id="path514" /></g><g
           id="g516"
           transform="translate(277.457,329.4048)"><path
             d="M 0,0 C 0,0 12.398,0.428 18.51,-0.208 24.621,-0.843 20.829,2.297 9.625,3.461 9.625,3.461 2.143,0.807 0,0 Z"
             style="fill:none;stroke:#1a2e35;stroke-width:1;stroke-linecap:round;stroke-linejoin:round;stroke-miterlimit:10;stroke-dasharray:none;stroke-opacity:1"
             id="path518" /></g><g
           id="g520"
           transform="translate(259.3018,305.6777)"><path
             d="m 0,0 c 0,0 11.619,-8.498 14.116,-16.167 3.122,-9.593 1.811,-17.332 -1.179,-26.052 -2.991,-8.719 -6.897,-9.067 -9.236,-18.294 -2.58,-10.176 -3.096,-30.062 -8.103,-39.133 -9.299,-16.849 -35.287,-1.816 -35.729,14.35 -0.476,17.47 15.691,27.902 17.564,36.681 2.031,9.515 -0.218,22.701 4.183,31.622 C -13.984,-8.072 -5.572,0.36 0,0"
             style="fill:#1a2e35;fill-opacity:1;fill-rule:nonzero;stroke:none"
             id="path522" /></g><g
           id="g524"
           transform="translate(259.3018,305.6777)"><path
             d="m 0,0 c 0,0 11.619,-8.498 14.116,-16.167 3.122,-9.593 1.811,-17.332 -1.179,-26.052 -2.991,-8.719 -6.897,-9.067 -9.236,-18.294 -2.58,-10.176 -3.096,-30.062 -8.103,-39.133 -9.299,-16.849 -35.287,-1.816 -35.729,14.35 -0.476,17.47 15.691,27.902 17.564,36.681 2.031,9.515 -0.218,22.701 4.183,31.622 C -13.984,-8.072 -5.572,0.36 0,0 Z"
             style="fill:none;stroke:#1a2e35;stroke-width:1;stroke-linecap:round;stroke-linejoin:round;stroke-miterlimit:10;stroke-dasharray:none;stroke-opacity:1"
             id="path526" /></g><g
           id="g528"
           transform="translate(255.8809,297.3613)"><path
             d="m 0,0 c -2.338,-0.666 -5.235,-2.04 -7.612,-4.871 -4.853,-5.78 -10.721,-28.527 -11.912,-32.022 -1.751,-5.143 -4.796,-23.638 -3.568,-24.052 1.229,-0.414 8.887,-0.115 22.141,-1.386 13.252,-1.272 38.053,5.697 38.053,5.697 0,0 4.091,-2.746 7.648,-1.664 0.456,0.139 0.87,0.275 1.247,0.406 1.1,0.385 2.037,1.139 2.637,2.137 0.248,0.413 0.457,0.846 0.542,1.223 0.171,0.576 0.249,1.24 0.084,1.995 -0.129,1.21 -0.197,2.715 -1.041,4.16 -0.845,1.445 -1.394,0.644 -2.566,1.272 -1.173,0.627 -3.761,0.874 -4.715,0.465 -0.955,-0.409 -4.504,-5.209 -4.504,-5.209 0,0 -14.523,-1.613 -27.345,2.481 -11.546,3.685 -14.301,3.668 -14.301,3.668 0,0 11.138,25.587 14.956,32.753"
             style="fill:#aaff00;fill-opacity:1;fill-rule:nonzero;stroke:#1a2e35;stroke-width:1;stroke-linecap:round;stroke-linejoin:round;stroke-miterlimit:10;stroke-dasharray:none;stroke-opacity:1"
             id="path530" /></g><g
           id="g532"
           transform="translate(300.6309,239.0635)"><path
             d="m 0,0 c 0.325,0.099 0.629,0.196 0.913,0.292 1.393,0.468 2.596,1.425 3.241,2.744 0.123,0.252 0.22,0.501 0.272,0.73 0.171,0.576 0.249,1.24 0.084,1.995 -0.129,1.21 -0.197,2.715 -1.041,4.16 -0.845,1.445 -1.394,0.644 -2.566,1.271 -1.173,0.628 -3.761,0.874 -4.716,0.466 -0.954,-0.409 -4.503,-5.209 -4.503,-5.209 0,0 -4.215,-0.467 -10.105,-0.259 l 0.133,-7.131 c 6.161,1.348 10.64,2.605 10.64,2.605 0,0 4.091,-2.746 7.648,-1.664"
             style="fill:#ffffff;fill-opacity:1;fill-rule:nonzero;stroke:none"
             id="path534" /></g><g
           id="g536"
           transform="translate(300.6309,239.0635)"><path
             d="m 0,0 c 0.325,0.099 0.629,0.196 0.913,0.292 1.393,0.468 2.596,1.425 3.241,2.744 0.123,0.252 0.22,0.501 0.272,0.73 0.171,0.576 0.249,1.24 0.084,1.995 -0.129,1.21 -0.197,2.715 -1.041,4.16 -0.845,1.445 -1.394,0.644 -2.566,1.271 -1.173,0.628 -3.761,0.874 -4.716,0.466 -0.954,-0.409 -4.503,-5.209 -4.503,-5.209 0,0 -4.215,-0.467 -10.105,-0.259 l 0.133,-7.131 c 6.161,1.348 10.64,2.605 10.64,2.605 0,0 4.091,-2.746 7.648,-1.664 z"
             style="fill:none;stroke:#1a2e35;stroke-width:1;stroke-linecap:round;stroke-linejoin:round;stroke-miterlimit:10;stroke-dasharray:none;stroke-opacity:1"
             id="path538" /></g><g
           id="g540"
           transform="translate(301.5342,250.2559)"><path
             d="m 0,0 c 0,0 1.23,-3.397 0.465,-5.184 -0.766,-1.785 -3.317,2.552 -3.317,2.552"
             style="fill:none;stroke:#1a2e35;stroke-width:1;stroke-linecap:round;stroke-linejoin:round;stroke-miterlimit:10;stroke-dasharray:none;stroke-opacity:1"
             id="path542" /></g><g
           id="g544"
           transform="translate(300.4678,242.0107)"><path
             d="m 0,0 -0.51,3.317 c 0,0 -4.082,-4.338 -5.868,-2.551"
             style="fill:none;stroke:#1a2e35;stroke-width:1;stroke-linecap:round;stroke-linejoin:round;stroke-miterlimit:10;stroke-dasharray:none;stroke-opacity:1"
             id="path546" /></g><g
           id="g548"
           transform="translate(278.1162,274.0459)"><path
             d="m 0,0 c -0.488,2.26 -1.123,4.504 -1.819,6.734 -0.916,2.933 -1.94,5.842 -2.879,8.73 -0.208,0.638 -0.484,1.281 -0.805,1.925 v 1.48 c 0,1.598 1.865,4.529 1.865,4.529 0,0 -1.066,1.332 -4.53,4.263 -3.463,2.931 -9.592,6.927 -9.592,6.927 l -2.878,-3.139 c -5.456,-1.232 -12.617,-8.814 -16.561,-16.81 -4.401,-8.921 -2.152,-22.107 -4.182,-31.622 -1.063,-4.978 -6.722,-10.492 -11.336,-17.516 5.674,-3.342 17.931,-9.36 34.914,-11.153 0.861,6.295 1.587,12.421 2.69,16.771 1.145,4.52 3.509,8.742 6.669,12.156 C -3.838,-11.747 1.669,-7.717 0,0"
             style="fill:#aaff00;fill-opacity:1;fill-rule:nonzero;stroke:none"
             id="path550" /></g></g></g><g
       id="g552"><g
         id="g554"
         clip-path="url(#clipPath558)"><g
           id="g560"><g
             id="g562" /><g
             id="g574"><g
               clip-path="url(#clipPath566)"
               opacity="0.199997"
               id="g572"><g
                 transform="translate(241.4214,235.0176)"
                 id="g570"><path
                   d="m 0,0 c 0,1.479 10.356,12.945 12.575,15.904 2.218,2.959 -9.246,0.74 -11.096,0.74 -1.849,0 5.178,8.506 9.986,17.383 4.808,8.876 3.699,11.095 3.699,11.095 L 2.589,50.67 c 0,0 -2.052,-0.947 -4.925,-2.365 C -4.215,39.974 -3.033,29.793 -4.687,22.045 -5.749,17.067 -11.408,11.554 -16.022,4.529 -12.794,2.628 -7.43,-0.138 -0.283,-2.5 -0.092,-1.362 0,-0.415 0,0"
                   style="fill:#000000;fill-opacity:1;fill-rule:nonzero;stroke:none"
                   id="path568" /></g></g></g></g></g></g><g
       id="g576"><g
         id="g578"
         clip-path="url(#clipPath582)"><g
           id="g584"
           transform="translate(278.1162,274.0459)"><path
             d="m 0,0 c -0.488,2.26 -1.123,4.504 -1.819,6.734 -0.916,2.933 -1.94,5.842 -2.879,8.73 -0.208,0.638 -0.484,1.281 -0.805,1.925 v 1.48 c 0,1.598 1.865,4.529 1.865,4.529 0,0 -1.066,1.332 -4.53,4.263 -3.463,2.931 -9.592,6.927 -9.592,6.927 l -2.878,-3.139 c -5.456,-1.232 -12.617,-8.814 -16.561,-16.81 -4.401,-8.921 -2.152,-22.107 -4.182,-31.622 -1.063,-4.978 -6.722,-10.492 -11.336,-17.516 5.674,-3.342 17.931,-9.36 34.914,-11.153 0.861,6.295 1.587,12.421 2.69,16.771 1.145,4.52 3.509,8.742 6.669,12.156 C -3.838,-11.747 1.669,-7.717 0,0 Z"
             style="fill:none;stroke:#1a2e35;stroke-width:1;stroke-linecap:round;stroke-linejoin:round;stroke-miterlimit:10;stroke-dasharray:none;stroke-opacity:1"
             id="path586" /></g><g
           id="g588"
           transform="translate(260.2812,298.438)"><path
             d="m 0,0 c -2.295,0.802 -5.455,1.346 -9.027,0.4 -7.297,-1.933 -25.191,-17.153 -28.177,-19.326 -4.392,-3.196 -17.53,-16.566 -16.764,-17.612 0.766,-1.045 7.201,-5.21 17.305,-13.879 10.104,-8.669 31.037,-16.523 31.037,-16.523 0,0 5.122,-5.328 8.653,-6.49 1.057,-0.349 1.916,-0.577 2.631,-0.739 0.202,-0.07 0.407,-0.134 0.613,-0.194 1.934,-0.555 3.243,0.027 4.113,0.811 0.47,0.373 0.918,0.871 1.217,1.583 0.591,1.063 1.402,2.334 1.544,4.001 0.141,1.668 -2.339,1.981 -2.936,3.17 -0.597,1.187 -2.572,2.88 -3.588,3.094 -1.016,0.216 -6.681,-1.666 -6.681,-1.666 0,0 -12.803,7.042 -20.93,17.771 -7.319,9.661 -9.581,11.233 -9.581,11.233 0,0 23.837,14.51 31.085,18.17"
             style="fill:#aaff00;fill-opacity:1;fill-rule:nonzero;stroke:none"
             id="path590" /></g></g></g><g
       id="g592"><g
         id="g594"
         clip-path="url(#clipPath598)"><g
           id="g600"><g
             id="g602" /><g
             id="g614"><g
               clip-path="url(#clipPath606)"
               opacity="0.199997"
               id="g612"><g
                 transform="translate(269.5303,225.4023)"
                 id="g610"><path
                   d="m 0,0 c -8.137,2.219 -17.753,9.615 -24.78,14.054 -7.028,4.438 -26.26,20.712 -28.849,21.451 -2.589,0.74 0.74,1.849 4.808,4.808 4.069,2.959 -5.178,0 -7.397,0 -2.219,0 32.177,22.191 36.985,27.739 3.631,4.19 -1.173,3.739 -3.744,3.267 -8.435,-4.774 -21.015,-15.419 -23.476,-17.209 -4.392,-3.196 -17.53,-16.566 -16.764,-17.612 0.766,-1.046 7.201,-5.21 17.305,-13.88 10.104,-8.669 31.037,-16.522 31.037,-16.522 0,0 5.122,-5.328 8.653,-6.491 1.057,-0.348 1.916,-0.577 2.631,-0.739 0.202,-0.069 0.407,-0.134 0.612,-0.193 1.935,-0.556 3.244,0.026 4.114,0.81 0.057,0.045 0.112,0.099 0.168,0.148 C 0.874,-0.245 0.441,-0.121 0,0"
                   style="fill:#000000;fill-opacity:1;fill-rule:nonzero;stroke:none"
                   id="path608" /></g></g></g></g></g></g><g
       id="g616"><g
         id="g618"
         clip-path="url(#clipPath622)"><g
           id="g624"
           transform="translate(260.2812,298.438)"><path
             d="m 0,0 c -2.295,0.802 -5.455,1.346 -9.027,0.4 -7.297,-1.933 -25.191,-17.153 -28.177,-19.326 -4.392,-3.196 -17.53,-16.566 -16.764,-17.612 0.766,-1.045 7.201,-5.21 17.305,-13.879 10.104,-8.669 31.037,-16.523 31.037,-16.523 0,0 5.122,-5.328 8.653,-6.49 1.057,-0.349 1.916,-0.577 2.631,-0.739 0.202,-0.07 0.407,-0.134 0.613,-0.194 1.934,-0.555 3.243,0.027 4.113,0.811 0.47,0.373 0.918,0.871 1.217,1.583 0.591,1.063 1.402,2.334 1.544,4.001 0.141,1.668 -2.339,1.981 -2.936,3.17 -0.597,1.187 -2.572,2.88 -3.588,3.094 -1.016,0.216 -6.681,-1.666 -6.681,-1.666 0,0 -12.803,7.042 -20.93,17.771 -7.319,9.661 -9.581,11.233 -9.581,11.233 0,0 23.837,14.51 31.085,18.17"
             style="fill:none;stroke:#1a2e35;stroke-width:1;stroke-linecap:round;stroke-linejoin:round;stroke-miterlimit:10;stroke-dasharray:none;stroke-opacity:1"
             id="path626" /></g><g
           id="g628"
           transform="translate(270.4902,233.6396)"><path
             d="m 0,0 c -0.597,1.187 -2.572,2.88 -3.588,3.095 -1.016,0.216 -6.681,-1.666 -6.681,-1.666 0,0 -2.501,1.377 -5.991,3.836 l -4.607,-5.375 c 3.043,-1.285 5.032,-2.032 5.032,-2.032 0,0 5.122,-5.328 8.653,-6.49 1.057,-0.348 1.916,-0.577 2.631,-0.739 0.202,-0.069 0.407,-0.134 0.613,-0.192 1.934,-0.557 3.243,0.025 4.113,0.809 0.471,0.373 0.918,0.871 1.217,1.583 0.591,1.064 1.402,2.334 1.544,4.001 C 3.077,-1.502 0.597,-1.188 0,0"
             style="fill:#ffffff;fill-opacity:1;fill-rule:nonzero;stroke:none"
             id="path630" /></g><g
           id="g632"
           transform="translate(270.4902,233.6396)"><path
             d="m 0,0 c -0.597,1.187 -2.572,2.88 -3.588,3.095 -1.016,0.216 -6.681,-1.666 -6.681,-1.666 0,0 -2.501,1.377 -5.991,3.836 l -4.607,-5.375 c 3.043,-1.285 5.032,-2.032 5.032,-2.032 0,0 5.122,-5.328 8.653,-6.49 1.057,-0.348 1.916,-0.577 2.631,-0.739 0.202,-0.069 0.407,-0.134 0.613,-0.192 1.934,-0.557 3.243,0.025 4.113,0.809 0.471,0.373 0.918,0.871 1.217,1.583 0.591,1.064 1.402,2.334 1.544,4.001 C 3.077,-1.502 0.597,-1.188 0,0 Z"
             style="fill:none;stroke:#1a2e35;stroke-width:1;stroke-linecap:round;stroke-linejoin:round;stroke-miterlimit:10;stroke-dasharray:none;stroke-opacity:1"
             id="path634" /></g><g
           id="g636"
           transform="translate(268.7988,319.4775)"><path
             d="m 0,0 c 0,0 -3.116,5.682 -5.582,3.681 -2.465,-2.001 0.473,-5.784 3.745,-6.876 3.273,-1.093 1.916,1.041 1.916,1.041"
             style="fill:#ffffff;fill-opacity:1;fill-rule:nonzero;stroke:#1a2e35;stroke-width:1;stroke-linecap:round;stroke-linejoin:round;stroke-miterlimit:10;stroke-dasharray:none;stroke-opacity:1"
             id="path638" /></g><g
           id="g640"
           transform="translate(233.1582,205.9492)"><path
             d="m 0,0 c 0,0 5.46,-5.947 14.451,-13.584 8.989,-7.638 25.388,-14.605 25.388,-14.605 0,0 -8.922,-20.827 -8.594,-30.099 0.328,-9.274 10.165,-47.597 9.269,-52.441 0,0 5.415,-4.109 6.388,-0.681 1.576,5.543 4.541,50.574 5.722,59.146 1.159,8.418 4.236,23.553 4.232,27.466 -0.008,7.501 -20.168,28.93 -29.11,35.009 -8.942,6.08 -14.492,11.064 -14.492,11.064"
             style="fill:#ffffff;fill-opacity:1;fill-rule:nonzero;stroke:#1a2e35;stroke-width:1;stroke-linecap:round;stroke-linejoin:round;stroke-miterlimit:10;stroke-dasharray:none;stroke-opacity:1"
             id="path642" /></g><g
           id="g644"
           transform="translate(260.9043,216.1602)"><path
             d="m 0,0 c -8.942,6.08 -14.493,11.064 -14.493,11.064 l -13.253,-21.275 c 0,0 5.46,-5.947 14.451,-13.584 8.989,-7.638 25.388,-14.605 25.388,-14.605 0,0 -8.922,-20.826 -8.594,-30.099 0.087,-2.467 0.85,-6.997 1.902,-12.397 4.841,-1.008 10.906,-1.552 17.725,-0.622 0.711,8.633 1.34,16.055 1.752,19.043 1.159,8.418 4.236,23.553 4.232,27.466 C 29.102,-27.508 8.942,-6.079 0,0"
             style="fill:#1a2e35;fill-opacity:1;fill-rule:nonzero;stroke:none"
             id="path646" /></g><g
           id="g648"
           transform="translate(260.9043,216.1602)"><path
             d="m 0,0 c -8.942,6.08 -14.493,11.064 -14.493,11.064 l -13.253,-21.275 c 0,0 5.46,-5.947 14.451,-13.584 8.989,-7.638 25.388,-14.605 25.388,-14.605 0,0 -8.922,-20.826 -8.594,-30.099 0.087,-2.467 0.85,-6.997 1.902,-12.397 4.841,-1.008 10.906,-1.552 17.725,-0.622 0.711,8.633 1.34,16.055 1.752,19.043 1.159,8.418 4.236,23.553 4.232,27.466 C 29.102,-27.508 8.942,-6.079 0,0 Z"
             style="fill:none;stroke:#1a2e35;stroke-width:1;stroke-linecap:round;stroke-linejoin:round;stroke-miterlimit:10;stroke-dasharray:none;stroke-opacity:1"
             id="path650" /></g><g
           id="g652"
           transform="translate(231.0562,203.3945)"><path
             d="M 0,0 C 4.527,-3.656 11.608,-9.013 16.553,-11.029"
             style="fill:none;stroke:#ffffff;stroke-width:1;stroke-linecap:round;stroke-linejoin:round;stroke-miterlimit:10;stroke-dasharray:none;stroke-opacity:1"
             id="path654" /></g><g
           id="g656"
           transform="translate(226.6714,207.0576)"><path
             d="M 0,0 C 0,0 0.764,-0.669 2.032,-1.729"
             style="fill:none;stroke:#ffffff;stroke-width:1;stroke-linecap:round;stroke-linejoin:round;stroke-miterlimit:10;stroke-dasharray:none;stroke-opacity:1"
             id="path658" /></g><g
           id="g660"
           transform="translate(241.043,228.791)"><path
             d="M 0,0 15.424,-8.764"
             style="fill:none;stroke:#ffffff;stroke-width:1;stroke-linecap:round;stroke-linejoin:round;stroke-miterlimit:10;stroke-dasharray:none;stroke-opacity:1"
             id="path662" /></g><g
           id="g664"
           transform="translate(231.228,234.0488)"><path
             d="m 0,0 c 0,0 -6.66,-3.505 -6.31,-6.66 0.351,-3.154 8.063,2.103 7.362,-1.403 -0.701,-3.504 -4.504,-4.147 -0.701,-5.608 3.803,-1.46 20.681,-15.072 31.197,-22.083 10.516,-7.011 21.382,-16.475 20.331,-19.279 -1.051,-2.805 -10.867,-28.043 -8.763,-44.518"
             style="fill:none;stroke:#ffffff;stroke-width:1;stroke-linecap:round;stroke-linejoin:round;stroke-miterlimit:10;stroke-dasharray:none;stroke-opacity:1"
             id="path666" /></g><g
           id="g668"
           transform="translate(186.0093,164.9941)"><path
             d="m 0,0 c 0,0 25.238,-3.855 35.754,-4.907 10.517,-1.052 11.568,1.052 9.815,3.154 -1.752,2.104 1.753,-0.701 2.454,2.454 0.701,3.154 2.103,22.784 2.454,27.693"
             style="fill:none;stroke:#ffffff;stroke-width:1;stroke-linecap:round;stroke-linejoin:round;stroke-miterlimit:10;stroke-dasharray:none;stroke-opacity:1"
             id="path670" /></g><g
           id="g672"
           transform="translate(147.3198,165.0908)"><path
             d="m 0,0 c 0,0 -6.495,9.083 -8.619,8.021 -2.125,-1.063 -7.192,-4.619 -9.929,-6.09 -2.738,-1.472 -7.64,-7.398 -7.599,-9.319 0.041,-1.921 5.23,1.186 8.663,1.881 3.432,0.695 16.42,-0.415 16.42,-0.415 0,0 -0.697,4.968 1.064,5.922"
             style="fill:#aaff00;fill-opacity:1;fill-rule:nonzero;stroke:none"
             id="path674" /></g><g
           id="g676"
           transform="translate(147.3198,165.0908)"><path
             d="m 0,0 c 0,0 -6.495,9.083 -8.619,8.021 -2.125,-1.063 -7.192,-4.619 -9.929,-6.09 -2.738,-1.472 -7.64,-7.398 -7.599,-9.319 0.041,-1.921 5.23,1.186 8.663,1.881 3.432,0.695 16.42,-0.415 16.42,-0.415 0,0 -0.697,4.968 1.064,5.922 z"
             style="fill:none;stroke:#1a2e35;stroke-width:1;stroke-linecap:round;stroke-linejoin:round;stroke-miterlimit:10;stroke-dasharray:none;stroke-opacity:1"
             id="path678" /></g><g
           id="g680"
           transform="translate(140.7671,172.4365)"><path
             d="m 0,0 c -0.834,0.614 -1.57,0.923 -2.066,0.675 -2.125,-1.063 -7.192,-4.618 -9.929,-6.09 -2.738,-1.472 -7.64,-7.398 -7.599,-9.318 0.015,-0.709 0.735,-0.731 1.806,-0.444 2.089,4.149 6.598,6.306 10.861,9.96 C -3.695,-2.446 -1.326,-0.827 0,0"
             style="fill:#ffffff;fill-opacity:1;fill-rule:nonzero;stroke:none"
             id="path682" /></g><g
           id="g684"
           transform="translate(140.7671,172.4365)"><path
             d="m 0,0 c -0.834,0.614 -1.57,0.923 -2.066,0.675 -2.125,-1.063 -7.192,-4.618 -9.929,-6.09 -2.738,-1.472 -7.64,-7.398 -7.599,-9.318 0.015,-0.709 0.735,-0.731 1.806,-0.444 2.089,4.149 6.598,6.306 10.861,9.96 C -3.695,-2.446 -1.326,-0.827 0,0 Z"
             style="fill:none;stroke:#1a2e35;stroke-width:1;stroke-linecap:round;stroke-linejoin:round;stroke-miterlimit:10;stroke-dasharray:none;stroke-opacity:1"
             id="path686" /></g><g
           id="g688"
           transform="translate(273.6719,95.2197)"><path
             d="m 0,0 c 0,0 -4.666,-10.146 -2.689,-11.463 1.976,-1.318 7.577,-3.954 10.212,-5.6 2.636,-1.648 10.213,-2.965 11.861,-1.977 1.646,0.988 -3.624,3.953 -5.931,6.589 -2.306,2.635 -7.064,11.77 -7.064,11.77 0,0 -4.688,-0.376 -6.389,0.681"
             style="fill:#aaff00;fill-opacity:1;fill-rule:nonzero;stroke:none"
             id="path690" /></g><g
           id="g692"
           transform="translate(273.6719,95.2197)"><path
             d="m 0,0 c 0,0 -4.666,-10.146 -2.689,-11.463 1.976,-1.318 7.577,-3.954 10.212,-5.6 2.636,-1.648 10.213,-2.965 11.861,-1.977 1.646,0.988 -3.624,3.953 -5.931,6.589 -2.306,2.635 -7.064,11.77 -7.064,11.77 0,0 -4.688,-0.376 -6.389,0.681 z"
             style="fill:none;stroke:#1a2e35;stroke-width:1;stroke-linecap:round;stroke-linejoin:round;stroke-miterlimit:10;stroke-dasharray:none;stroke-opacity:1"
             id="path694" /></g><g
           id="g696"
           transform="translate(293.0557,76.1797)"><path
             d="M 0,0 C 0.714,0.429 0.125,1.229 -0.956,2.213 -2.392,2.06 -4.01,1.977 -5.461,2.122 c -2.9,0.289 -12.837,5.574 -17.018,7.856 -0.168,-1.163 -0.096,-2.067 0.406,-2.401 1.976,-1.318 7.577,-3.953 10.213,-5.6 C -9.225,0.329 -1.647,-0.988 0,0"
             style="fill:#ffffff;fill-opacity:1;fill-rule:nonzero;stroke:none"
             id="path698" /></g><g
           id="g700"
           transform="translate(293.0557,76.1797)"><path
             d="M 0,0 C 0.714,0.429 0.125,1.229 -0.956,2.213 -2.392,2.06 -4.01,1.977 -5.461,2.122 c -2.9,0.289 -12.837,5.574 -17.018,7.856 -0.168,-1.163 -0.096,-2.067 0.406,-2.401 1.976,-1.318 7.577,-3.953 10.213,-5.6 C -9.225,0.329 -1.647,-0.988 0,0 Z"
             style="fill:none;stroke:#1a2e35;stroke-width:1;stroke-linecap:round;stroke-linejoin:round;stroke-miterlimit:10;stroke-dasharray:none;stroke-opacity:1"
             id="path702" /></g></g></g></g></svg>
