<?xml version="1.0" encoding="UTF-8" standalone="no"?>
<!-- Created with Inkscape (http://www.inkscape.org/) -->

<svg
   version="1.1"
   id="svg2"
   xml:space="preserve"
   width="3738.3733"
   height="2666.6667"
   viewBox="0 0 3738.3733 2666.6667"
   sodipodi:docname="Tiny cardiology doctor and nurse examining heart, blood pressure.eps"
   xmlns:inkscape="http://www.inkscape.org/namespaces/inkscape"
   xmlns:sodipodi="http://sodipodi.sourceforge.net/DTD/sodipodi-0.dtd"
   xmlns="http://www.w3.org/2000/svg"
   xmlns:svg="http://www.w3.org/2000/svg"><defs
     id="defs6"><clipPath
       clipPathUnits="userSpaceOnUse"
       id="clipPath70"><path
         d="m 19038.3,13998.9 h -366.5 v 296.8 h -297.6 v 365.5 h 297.6 v 296.8 h 366.5 v -296.8 h 297.5 v -365.5 h -297.5 v -296.8 m -614.9,613.2 v -267.4 h 297.5 v -296.8 h 268.2 v 296.8 h 297.5 v 267.4 h -297.5 v 296.8 h -268.2 v -296.8 h -297.5"
         id="path68" /></clipPath></defs><sodipodi:namedview
     id="namedview4"
     pagecolor="#ffffff"
     bordercolor="#666666"
     borderopacity="1.0"
     inkscape:pageshadow="2"
     inkscape:pageopacity="0.0"
     inkscape:pagecheckerboard="0" /><g
     id="g8"
     inkscape:groupmode="layer"
     inkscape:label="ink_ext_XXXXXX"
     transform="matrix(1.3333333,0,0,-1.3333333,0,2666.6667)"><g
       id="g10"
       transform="scale(0.1)"><path
         d="M 0,0 H 28037.8 V 20000 H 0 Z"
         style="fill:#ffffff;fill-opacity:1;fill-rule:nonzero;stroke:none"
         id="path12" /><path
         d="m 25130.3,13423.4 c -1958.2,2814.1 -7361.5,2616.6 -8265.6,2595.6 -904.1,-21.1 -1672.7,229.1 -2284,1683.6 -611.3,1454.4 -2129,1349.1 -4149,843.1 -2019.99,-505.9 -8625.19,-4194.8 -8899.19,-10006 -2.8,-58.1 -5.1,-115.8 -7,-173.1 -46.2,-1382.6 317.4,-2680.2 979.4,-3779.7 276.7,-459.8 605.7,-885 978.7,-1267.2 50,-51.3 100.9,-101.9 152.6,-151.7 306.6,-295.4 640.4,-562.8 997.3,-798 499.6,-329.5 1044.7,-595.9 1623.7,-787.9 423.3,-140.4 864.7,-241 1319.8,-297.3 305.7,-37.9 437.64,-146.3 754.44,-142.9 h 9918.15 l 661.1,202.3 c 238.1,3.7 472.3,17.7 702.5,41.4 186.5,19.2 370.4,44.9 551.4,76.7 341.4,59.9 672.7,141.6 993,243.3 581,184.5 1125.9,434.8 1628.9,740.1 350.1,212.5 680,451.7 987.6,713.8 97.8,83.5 193.4,169.2 286.7,257.1 347.4,327.5 662.8,685.7 943.1,1068.6 1796.9,2454.9 2146.8,5924.8 205.6,8822.2 -26.2,39.1 -52.6,77.8 -79.2,116"
         style="fill:#fdeacf;fill-opacity:1;fill-rule:nonzero;stroke:none"
         id="path14" /><path
         d="m 3483.61,3319.7 c -373,382.2 -702,807.4 -978.7,1267.2 l 1.3,4191.8 -571.2,0.2 1021,1464 1020.1,-1464.6 -571.2,0.2 78.7,-5458.8"
         style="fill:#fcdbb3;fill-opacity:1;fill-rule:nonzero;stroke:none"
         id="path16" /><path
         d="m 6700.45,1350.2 c -455.09,56.3 -896.5,156.9 -1319.8,297.3 l 0.1,294 c 281.83,-139 574.56,-259.3 876.46,-359.4 145.2,-48.2 292.5,-91.7 441.78,-130.3 l 1.46,-101.6"
         style="fill:#feefdc;fill-opacity:1;fill-rule:nonzero;stroke:none"
         id="path18" /><path
         d="m 6698.99,1451.8 c -149.28,38.6 -296.58,82.1 -441.78,130.3 -301.9,100.1 -594.63,220.4 -876.46,359.4 l 0.77,2399 426.2,-1553.7 868.59,238.2 22.68,-1573.2 m -1317.46,2905.3 2.82,8732.3 -728.99,0.3 1303.1,1868.3 1301.8,-1869.1 -729.01,0.2 120.84,-8383.5 -737.52,-202.3 v 0 l -47.4,-13 -485.64,-133.2"
         style="fill:#fcdbb3;fill-opacity:1;fill-rule:nonzero;stroke:none"
         id="path20" /><path
         d="m 18676,1341.7 0.9,2648.2 -571.2,0.2 1021,1464 1020.1,-1464.6 -571.2,0.2 37.6,-2604.1 c -230.2,-23.7 -464.4,-37.7 -702.5,-41.4 v 0 l -234.7,-2.5"
         style="fill:#fcdbb3;fill-opacity:1;fill-rule:nonzero;stroke:none"
         id="path22" /><path
         d="m 23774.1,3159.5 2.2,6922.4 -729,0.2 1303,1868.3 1301.9,-1869.1 -729,0.2 80.7,-5596.3 c -280.3,-382.9 -595.7,-741.1 -943.1,-1068.6 -93.3,-87.9 -188.9,-173.6 -286.7,-257.1"
         style="fill:#fcdbb3;fill-opacity:1;fill-rule:nonzero;stroke:none"
         id="path24" /><path
         d="m 13493.7,16141.7 c -19.9,261.1 -141.2,503.1 -332.9,663.8 -191.7,160.7 -427.7,218.3 -647.6,158.1 l -858.7,-235.2 60.3,-220.3 858.8,235.2 c 161.6,44.3 335.2,1.9 476.1,-116.3 141,-118.2 230.2,-296.1 244.8,-488 l 115.2,-1514.6 c 65.2,-857.1 -231.9,-1681.8 -794.6,-2206.3 l 133.6,-179.1 c 300.6,280.2 538,646.1 686.5,1058.3 148.4,412.2 208.5,872.1 173.7,1329.8 l -115.2,1514.6"
         style="fill:#ffffff;fill-opacity:1;fill-rule:nonzero;stroke:none"
         id="path26" /><path
         d="m 11712.7,16787 c -6.3,22.8 -25.3,38.1 -45.1,38 l -1.3,-0.1 -8.1,-1.2 -0.3,-0.1 -395.1,-60.5 -16.8,-2.6 c -34.7,-10.7 -53.7,-51.5 -42.6,-92.1 l 89.3,-326.1 c 11.4,-41.4 49.6,-67 85.3,-57.2 2,0.6 4,1.3 6,2 l 1,0.4 378.7,152.3 0.2,0.1 6.6,2.7 h 0.2 c 18.1,9.5 27.2,33 20.8,56.5 l -78.8,287.9"
         style="fill:#f7597f;fill-opacity:1;fill-rule:nonzero;stroke:none"
         id="path28" /><path
         d="m 9998.96,13690.3 -672.62,1361.9 c -85.26,172.6 -99.12,371.2 -38.03,544.7 61.09,173.5 188.82,298.4 350.46,342.6 l 858.83,235.2 -60.4,220.3 -858.76,-235.2 c -219.81,-60.2 -393.53,-230 -476.61,-466 -83.08,-235.9 -64.23,-505.9 51.72,-740.7 l 672.62,-1361.9 c 203.33,-411.7 489.33,-776.7 827.13,-1055.8 337.7,-279 728.4,-473 1129.8,-560.8 l 23.8,222.2 c -751.5,164.5 -1427.3,722.8 -1807.94,1493.5"
         style="fill:#ffffff;fill-opacity:1;fill-rule:nonzero;stroke:none"
         id="path30" /><path
         d="m 10855.9,16573.2 c -11.1,40.7 -48.3,66.1 -83.5,57.6 l -15.8,-6.4 -370.9,-149.2 -0.3,-0.1 -7.5,-3 -1.2,-0.6 c -17.1,-10 -25.7,-32.9 -19.4,-55.7 l 78.8,-287.9 c 6.5,-23.5 26.3,-39 46.7,-38 l 0.2,0.1 7.1,1 0.1,0.1 403.6,61.9 1,0.2 c 2.1,0.3 4.1,0.7 6.1,1.3 35.8,9.8 55.6,51.2 44.3,92.6 l -89.3,326.1"
         style="fill:#f7597f;fill-opacity:1;fill-rule:nonzero;stroke:none"
         id="path32" /><path
         d="m 13276,13767.1 c -108.8,-612.7 -466.4,-1161.6 -1006.9,-1545.9 -18.6,-13.2 -41.5,-19.4 -64.2,-17.5 -660.9,55.2 -1248.3,345.3 -1654,817 -42.1,48.9 -64.5,79.3 -64.7,79.6 l -267.6,-175.5 c 1.1,-1.5 28.3,-38.6 78.4,-96.8 226.6,-263.4 504.9,-477.7 827.1,-636.7 318.1,-157 663.9,-252.6 1027.8,-284.3 l 887.4,-3240.1 2.7,0.7 308.5,84.5 2.7,0.8 -887.3,3240.1 c 296.9,212.7 545.7,471.1 739.5,768.4 196.2,300.9 326.5,627 387.2,969.2 13.5,75.6 18,121.4 18.2,123.3 l -319.7,14.6 c 0,-0.4 -3.9,-38 -15.1,-101.4"
         style="fill:#4cb7d8;fill-opacity:1;fill-rule:nonzero;stroke:none"
         id="path34" /><path
         d="m 13281.1,13869.2 c -18.8,-261 -106.3,-450.6 -107.2,-452.5 l 18.1,-8.5 c 0.9,1.9 87.8,190 108.3,449.9 l 310,-14.2 0.9,20 -329.4,15 -0.7,-9.7"
         style="fill:#000000;fill-opacity:1;fill-rule:nonzero;stroke:none"
         id="path36" /><path
         d="m 13308.2,16090.6 -19.9,-1.5 c 0.9,-11.1 84.8,-1114.7 115.1,-1519.9 30.1,-403.4 -39.3,-695.4 -40,-698.3 l 19.4,-4.8 c 0.7,3 70.9,297.8 40.5,704.6 -30.3,405.2 -114.2,1508.8 -115.1,1519.9"
         style="fill:#000000;fill-opacity:1;fill-rule:nonzero;stroke:none"
         id="path38" /><path
         d="m 12755.1,16989.5 c -163.8,15.1 -282.8,-26.4 -287.8,-28.1 l 6.7,-18.9 c 4.7,1.7 477.2,163.1 816.3,-287.5 l 16,12 c -181.7,241.4 -400,308.7 -551.2,322.5"
         style="fill:#000000;fill-opacity:1;fill-rule:nonzero;stroke:none"
         id="path40" /><path
         d="m 9295.36,15594.8 c 83.31,225.3 292.74,316.9 294.85,317.8 l -7.84,18.4 c -2.18,-0.9 -219.22,-95.6 -305.67,-329 -66.27,-178.9 -40.45,-390 76.73,-627.2 l 670.97,-1356.6 18,8.9 -671.04,1356.5 c -114.59,232 -140.16,437.7 -76,611.2"
         style="fill:#000000;fill-opacity:1;fill-rule:nonzero;stroke:none"
         id="path42" /><path
         d="m 9508.37,14212.1 c 184.84,-418 494.73,-953.3 497.83,-958.6 l 17.3,10 c -3.1,5.4 -312.43,539.6 -496.83,956.7 l -18.3,-8.1"
         style="fill:#000000;fill-opacity:1;fill-rule:nonzero;stroke:none"
         id="path44" /><path
         d="m 10493.9,13106.7 -5.7,6.9 -275.1,-180.4 10.9,-16.7 260.2,170.6 c 55.4,-65.6 496.3,-575.4 888.5,-671.1 l 4.7,19.4 c -410.7,100.2 -878.8,665.5 -883.5,671.3"
         style="fill:#000000;fill-opacity:1;fill-rule:nonzero;stroke:none"
         id="path46" /><path
         d="m 11244.4,16770.4 3.1,-19.8 400.5,61.4 -3,19.8 -400.6,-61.4"
         style="fill:#000000;fill-opacity:1;fill-rule:nonzero;stroke:none"
         id="path48" /><path
         d="m 10381.7,16484.4 7.5,-18.5 386.9,155.6 -7.4,18.5 -387,-155.6"
         style="fill:#000000;fill-opacity:1;fill-rule:nonzero;stroke:none"
         id="path50" /><path
         d="m 10419.9,16354.6 17.7,-9.3 48.4,91.9 -17.7,9.3 -48.4,-91.9"
         style="fill:#000000;fill-opacity:1;fill-rule:nonzero;stroke:none"
         id="path52" /><path
         d="m 10444.1,16293 17.7,-9.3 48.4,91.9 -17.7,9.3 -48.4,-91.9"
         style="fill:#000000;fill-opacity:1;fill-rule:nonzero;stroke:none"
         id="path54" /><path
         d="m 11630.3,16518 17.7,-9.3 48.3,91.9 -17.7,9.3 -48.3,-91.9"
         style="fill:#000000;fill-opacity:1;fill-rule:nonzero;stroke:none"
         id="path56" /><path
         d="m 11654.4,16456.4 17.7,-9.3 48.4,91.9 -17.7,9.3 -48.4,-91.9"
         style="fill:#000000;fill-opacity:1;fill-rule:nonzero;stroke:none"
         id="path58" /><path
         d="m 17103.9,13209.7 c -44.9,3.8 -89.9,6.8 -135,8.9 25.2,-95.3 38.6,-195.4 38.6,-298.6 V 7565.9 h 270 V 12920 c 0,93.4 -8.9,184.8 -25.9,273.3 -48.9,6.7 -98.1,12.2 -147.7,16.4"
         style="fill:#ff424d;fill-opacity:1;fill-rule:nonzero;stroke:none"
         id="path60" /><path
         d="m 12031.8,13041.7 c -854.7,308.7 -1824.3,220.5 -2627.75,-196.2 -2788.34,-1519.9 -900.89,-5002.8 703.75,-6708.8 89.1,-104.4 179.2,-208.1 270,-311.1 1084.3,-1226.2 2265.4,-2361.3 3492.2,-3444 v 8823.7 c -441.2,744.5 -973.6,1556.3 -1838.2,1836.4"
         style="fill:#ef3a4c;fill-opacity:1;fill-rule:nonzero;stroke:none"
         id="path62" /><g
         id="g64"><g
           id="g66"
           clip-path="url(#clipPath70)"><path
             d="m 18374.2,13998.9 h 961.598 v 959.082 H 18374.2 Z"
             style="fill:#fbd7a8;fill-opacity:1;fill-rule:nonzero;stroke:none"
             id="path72" /></g></g><path
         d="m 11736.3,14250.8 h -366.5 v 296.8 h -297.6 v 365.5 h 297.6 v 296.8 h 366.5 v -296.8 h 297.5 v -365.5 h -297.5 v -296.8 m -614.9,613.3 v -267.5 h 297.6 v -296.7 h 268.1 v 296.7 h 297.6 v 267.5 h -297.6 v 296.7 H 11419 v -296.7 h -297.6"
         style="fill:#fbd7a8;fill-opacity:1;fill-rule:nonzero;stroke:none"
         id="path74" /><path
         d="m 4208.07,10484.2 h -366.52 v 296.8 h -297.54 v 365.5 h 297.54 v 296.8 h 366.52 v -296.8 h 297.54 V 10781 h -297.54 v -296.8 m -614.87,613.3 v -267.4 h 297.54 v -296.8 h 268.14 v 296.8 h 297.55 v 267.4 h -297.55 v 296.7 h -268.14 v -296.7 H 3593.2"
         style="fill:#fbd7a8;fill-opacity:1;fill-rule:nonzero;stroke:none"
         id="path76" /><path
         d="m 20962.7,12014.6 h -473.4 V 12398 H 20105 v 472.1 h 384.3 v 383.4 h 473.4 v -383.4 h 384.4 V 12398 h -384.4 v -383.4 m -794.2,792.2 v -345.5 h 384.3 V 12078 h 346.4 v 383.3 h 384.3 v 345.5 h -384.3 v 383.3 h -346.4 v -383.3 h -384.3"
         style="fill:#fbd7a8;fill-opacity:1;fill-rule:nonzero;stroke:none"
         id="path78" /><path
         d="m 23137.5,13269.7 h -180.4 v 146.1 h -146.5 v 180 h 146.5 v 146.1 h 180.4 v -146.1 h 146.5 v -180 h -146.5 v -146.1 m -302.7,302 V 13440 h 146.5 v -146.1 h 132 v 146.1 h 146.5 v 131.7 h -146.5 v 146.1 h -132 v -146.1 h -146.5"
         style="fill:#fbd7a8;fill-opacity:1;fill-rule:nonzero;stroke:none"
         id="path80" /><path
         d="m 12610,17530.3 h -285.4 v 231.1 h -231.8 v 284.8 h 231.8 v 231.1 h 285.4 v -231.1 h 231.8 v -284.8 H 12610 v -231.1 m -478.8,477.6 v -208.2 h 231.7 v -231.2 h 208.8 v 231.2 h 231.7 v 208.2 h -231.7 v 231.2 h -208.8 v -231.2 h -231.7"
         style="fill:#fbd7a8;fill-opacity:1;fill-rule:nonzero;stroke:none"
         id="path82" /><path
         d="m 4747.3,12244.2 h -180.45 v 146.1 h -146.48 v 180 h 146.48 v 146.1 h 180.45 v -146.1 h 146.5 v -180 h -146.5 v -146.1 m -302.72,302 v -131.7 h 146.5 v -146.1 h 132.01 v 146.1 h 146.49 v 131.7 h -146.49 v 146.1 h -132.01 v -146.1 h -146.5"
         style="fill:#fbd7a8;fill-opacity:1;fill-rule:nonzero;stroke:none"
         id="path84" /><path
         d="m 8468.18,12182.9 c -844.38,0 -1528.89,-684.5 -1528.89,-1528.9 0,-658.9 416.86,-1220.4 1001.23,-1435.3 v -304.6 c 0,-158.7 128.68,-287.4 287.41,-287.4 h 583.95 c 158.73,0 287.41,128.7 287.41,287.4 v 347 c 529.5,240.3 897.78,773.6 897.78,1392.9 0,844.4 -684.51,1528.9 -1528.89,1528.9"
         style="fill:#49263e;fill-opacity:1;fill-rule:nonzero;stroke:none"
         id="path86" /><path
         d="m 8468.18,11979.6 c -732.06,0 -1325.52,-593.5 -1325.52,-1325.6 0,-732 593.46,-1325.5 1325.52,-1325.5 732.07,0 1325.52,593.5 1325.52,1325.5 0,732.1 -593.45,1325.6 -1325.52,1325.6"
         style="fill:#ffffff;fill-opacity:1;fill-rule:nonzero;stroke:none"
         id="path88" /><path
         d="m 8899.23,11056.4 c 106.58,-84.4 190.23,-203.1 238.32,-341.8 l 388.94,170.7 c -64.27,185.4 -167.67,348.8 -298.76,477.4 l -328.5,-306.3"
         style="fill:#ef3a4c;fill-opacity:1;fill-rule:nonzero;stroke:none"
         id="path90" /><path
         d="m 7414.31,10885.3 388.95,-170.7 c 48.08,138.7 131.74,257.4 238.32,341.8 l -328.5,306.3 c -131.09,-128.6 -234.49,-292 -298.77,-477.4"
         style="fill:#fdeacf;fill-opacity:1;fill-rule:nonzero;stroke:none"
         id="path92" /><path
         d="m 7786.21,11453 332.16,-309.6 c 101.76,70.8 221.62,111.8 350.06,111.8 128.44,0 248.3,-41 350.06,-111.8 l 332.16,309.6 c -186.34,170 -423.71,271.8 -682.22,271.8 -258.51,0 -495.88,-101.8 -682.22,-271.8"
         style="fill:#80c4a4;fill-opacity:1;fill-rule:nonzero;stroke:none"
         id="path94" /><path
         d="m 8468.18,10634.4 c -40.91,0 -74.07,-33.1 -74.07,-74 0,-41 33.16,-74.1 74.07,-74.1 40.91,0 74.08,33.1 74.08,74.1 0,40.9 -33.17,74 -74.08,74"
         style="fill:#49263e;fill-opacity:1;fill-rule:nonzero;stroke:none"
         id="path96" /><path
         d="m 9115.21,11136 -802.33,-666.8 c -11.8,-9.8 -13.41,-27.3 -3.61,-39.1 v 0 c 9.8,-11.8 27.31,-13.4 39.11,-3.6 l 802.33,666.8 c 11.79,9.8 13.41,27.3 3.61,39.1 -9.8,11.7 -27.31,13.4 -39.11,3.6"
         style="fill:#49263e;fill-opacity:1;fill-rule:nonzero;stroke:none"
         id="path98" /><path
         d="m 17251.6,13193.3 c 17,-88.5 25.9,-179.9 25.9,-273.3 V 7565.9 h -270 V 12920 c 0,103.2 -13.4,203.3 -38.6,298.6 -1038.4,64.5 -1769,-302.8 -2350.3,-937.5 -78.6,-87.3 -153.2,-177.8 -224.4,-271 v 3.9 c -187.9,-242.6 -360.4,-514.4 -524.2,-808.7 V 2628.8 c 112.3,14.4 218.3,31.3 318.2,50.6 528.4,491.3 1110.2,1020.1 1692.9,1581.4 3.5,3.4 7.1,6.8 10.6,10.2 2.8,2.7 5.6,5.4 8.4,8.1 82.5,79.5 164.9,159.6 247.2,240.4 4.7,4.6 9.4,9.2 14,13.8 1.1,1.1 2.2,2.2 3.3,3.2 1676.1,1647.3 3289.9,3557.2 3589.7,5608.7 199.6,1555.5 -978.4,2878.3 -2502.7,3048.1"
         style="fill:#f24e66;fill-opacity:1;fill-rule:nonzero;stroke:none"
         id="path100" /><path
         d="m 13870,2381.6 c 94.5,89.1 191.3,179.6 290,271.5 8.8,8.2 17.7,16.4 26.6,24.7 l 1.6,1.6 c -99.9,-19.3 -205.9,-36.2 -318.2,-50.6 v -247.2"
         style="fill:#f94e67;fill-opacity:1;fill-rule:nonzero;stroke:none"
         id="path102" /><path
         d="m 14394.2,12010.1 c 71.2,93.2 145.8,183.7 224.4,271 -77.3,-84.4 -152,-173.6 -224.4,-267.1 v -3.9"
         style="fill:#f94e67;fill-opacity:1;fill-rule:nonzero;stroke:none"
         id="path104" /><path
         d="m 15835.8,14361.7 c -794.9,0 -1441.6,-646.8 -1441.6,-1441.7 v -909.9 c 71.2,93.2 145.8,183.7 224.4,271 15,16.8 30.2,33.4 45.6,49.9 v 589 c 0,646.1 525.6,1171.7 1171.6,1171.7 542.9,0 1000.8,-371.2 1133.1,-873.1 25.2,-95.3 38.6,-195.4 38.6,-298.6 V 7565.9 h 270 V 12920 c 0,93.4 -8.9,184.8 -25.9,273.3 -128.1,664.7 -714.2,1168.4 -1415.8,1168.4"
         style="fill:#49263e;fill-opacity:1;fill-rule:nonzero;stroke:none"
         id="path106" /><path
         d="m 11079.4,5058.2 h -961.2 c -803.51,0 -1457.11,653.7 -1457.11,1457.1 v 2511.3 h -270 V 6515.3 c 0,-952.3 774.8,-1727.1 1727.11,-1727.1 h 1222.1 c -93.3,89.5 -168.5,179.5 -260.9,270"
         style="fill:#49263e;fill-opacity:1;fill-rule:nonzero;stroke:none"
         id="path108" /><path
         d="m 16161.3,4533.3 c -4.6,-4.6 -9.3,-9.2 -14,-13.8 -82.3,-80.8 -164.7,-160.9 -247.2,-240.4 -2.8,-2.7 -5.6,-5.4 -8.4,-8.1 0.2,-8.4 0.3,-16.7 0.2,-25.1 -1.1,-161.7 -20.6,-309.4 -58.9,-444.3 -14.4,-51 -31.6,-100.2 -51.6,-147.6 -65.7,-157.1 -161.3,-294.6 -287.4,-414.5 -277.5,-263.9 -706.5,-448.5 -1307.4,-561.7 -77.2,-14.6 -157.3,-28 -240.2,-40.2 -25.2,-3.7 -50.7,-7.3 -76.4,-10.8 -153.4,-20.9 -315.8,-38 -488.7,-51.4 -207.6,-16 -430.3,-26.7 -670.4,-32 -309.9,-6.9 -648.7,-5 -1021.5,5.7 -3.4,0.1 -6.8,0.2 -10.2,0.3 -3.5,0.1 -7,0.2 -10.5,0.3 -136.1,4 -276.7,9.2 -422.1,15.5 l -13,-299.8 c 98.3,-4.3 194.9,-8 289.7,-11.1 4.1,-0.2 8.3,-0.4 12.4,-0.4 3.8,-0.2 7.6,-0.3 11.4,-0.4 270,-9 525.6,-13.5 767.5,-13.5 136.6,0 268.9,1.4 396.8,4.3 1543.6,35 2468,282 2989.4,777.8 319.2,303.6 484.5,709.8 490.9,1207.4 0.1,4.8 0.2,9.5 0.2,14.3 0.5,67.3 -4.1,133.5 -13.7,198.5 -4.5,30.6 -10.1,60.9 -16.9,91"
         style="fill:#4cb7d8;fill-opacity:1;fill-rule:nonzero;stroke:none"
         id="path110" /><path
         d="m 10654.7,3934.6 c -591.6,0 -1071.27,-479.6 -1071.27,-1071.3 0,-591.7 479.67,-1071.3 1071.27,-1071.3 591.7,0 1071.4,479.6 1071.4,1071.3 0,591.7 -479.7,1071.3 -1071.4,1071.3"
         style="fill:#4cb7d8;fill-opacity:1;fill-rule:nonzero;stroke:none"
         id="path112" /><path
         d="m 10654.7,2246.6 c -340.6,0 -616.7,276.1 -616.7,616.7 0,340.6 276.1,616.8 616.7,616.8 340.7,0 616.8,-276.2 616.8,-616.8 0,-340.6 -276.1,-616.7 -616.8,-616.7"
         style="fill:#b7e2ef;fill-opacity:1;fill-rule:nonzero;stroke:none"
         id="path114" /><path
         d="m 15891.7,4271 c -3.5,-3.4 -7.1,-6.8 -10.6,-10.2 4.5,-83.4 0.1,-173.3 -16.4,-269.2 -5.8,-33.6 -10.2,-63.9 -13.4,-92.7 -2.5,-22.8 -7.7,-56 -18.3,-97.3 -10.7,-41.9 -26.9,-91.9 -51.6,-147.6 -133.5,-301.9 -513.3,-767.8 -1593.2,-974.6 -99.9,-19.3 -205.9,-36.2 -318.2,-50.6 -151.3,-19.4 -314.1,-34.1 -489.3,-43.4 l 0.6,-10 0.5,-10 c 170.9,9.1 333.7,23.4 488.2,43 100.2,12.7 196.8,27.6 290,44.7 559.7,102.6 993.8,284.4 1295.7,543.3 336.6,288.7 402.7,585.9 415.5,700.3 3.1,28.4 7.5,58.3 13.2,91.6 17.9,104 21.8,201.1 15.7,290.8 -2.8,-2.7 -5.6,-5.4 -8.4,-8.1"
         style="fill:#000000;fill-opacity:1;fill-rule:nonzero;stroke:none"
         id="path116" /><path
         d="m 10654.7,3944.6 v -20 c 585.2,0 1061.4,-476.1 1061.4,-1061.3 0,-585.2 -476.2,-1061.3 -1061.4,-1061.3 v -20 c 596.3,0 1081.4,485.1 1081.4,1081.3 0,596.2 -485.1,1081.3 -1081.4,1081.3"
         style="fill:#000000;fill-opacity:1;fill-rule:nonzero;stroke:none"
         id="path118" /><path
         d="m 10654.7,3490 v -20 c 334.6,0 606.8,-272.1 606.8,-606.7 0,-334.6 -272.2,-606.7 -606.8,-606.7 v -20 c 345.6,0 626.8,281.1 626.8,626.7 0,345.6 -281.2,626.7 -626.8,626.7"
         style="fill:#000000;fill-opacity:1;fill-rule:nonzero;stroke:none"
         id="path120" /><path
         d="m 9614.54,3003.4 c 35.31,236.5 130.84,407.3 131.8,409 l -17.4,9.9 c -0.98,-1.8 -98.11,-175.2 -134.08,-415.3 -33.26,-222 -19.75,-548 233.47,-841 l 15.12,13.1 c -248.05,287 -261.4,606.6 -228.91,824.3"
         style="fill:#000000;fill-opacity:1;fill-rule:nonzero;stroke:none"
         id="path122" /><path
         d="m 16178.2,4442.3 c -4.2,35.7 -9,67.3 -13.6,94.2 -1.1,-1 -2.2,-2.1 -3.3,-3.2 -4.6,-4.6 -9.3,-9.2 -14,-13.8 16.1,-98.9 32.5,-254.6 20.2,-436.9 -19.5,-289.3 -117.5,-706.8 -473.7,-1053.3 l 7,-7.2 6.9,-7.2 c 361,351.2 460.2,774.1 479.8,1067 3.5,51.5 4.6,101 4.2,147.6 -0.8,80.3 -6.4,152.3 -13.5,212.8"
         style="fill:#000000;fill-opacity:1;fill-rule:nonzero;stroke:none"
         id="path124" /><path
         d="m 15141.8,9888.6 -545.9,-1986.4 -75.3,538 h -1108.7 l -205.4,-1260.5 -486.4,2762 -405.7,-1648.8 H 10116.7 V 8157 h 2304.2 l 277.2,1126.3 513.6,-2916.8 315.7,1937.8 h 875 l 150.2,-1072.7 613.8,2233.6 573.5,-1418.6 h 862.7 v 135.9 h -771 l -689.8,1706.1"
         style="fill:#ffffff;fill-opacity:1;fill-rule:nonzero;stroke:none"
         id="path126" /><path
         d="m 16452.7,9026.6 h 517.3 v 160 h -517.3 v -160"
         style="fill:#49263e;fill-opacity:1;fill-rule:nonzero;stroke:none"
         id="path128" /><path
         d="m 17244.1,9512.6 h -241.8 c -97.7,0 -176.9,-79.3 -176.9,-177 v -561.7 c 0,-97.7 79.2,-176.9 176.9,-176.9 h 241.8 c 97.7,0 176.9,79.2 176.9,176.9 v 561.7 c 0,97.7 -79.2,177 -176.9,177"
         style="fill:#71d3ea;fill-opacity:1;fill-rule:nonzero;stroke:none"
         id="path130" /><path
         d="m 17378.9,8437 h -746.7 c 0,0 -1180.5,-2062.2 0,-3955.6 h 235.3 511.4 235.3 c 1180.5,1893.4 0,3955.6 0,3955.6 h -235.3"
         style="fill:#49263e;fill-opacity:1;fill-rule:nonzero;stroke:none"
         id="path132" /><path
         d="m 17604.1,8757 h -961.8 c -88.3,0 -160,-71.6 -160,-160 0,-88.4 71.7,-160 160,-160 h 961.8 c 88.3,0 160,71.6 160,160 0,88.4 -71.7,160 -160,160"
         style="fill:#4cb7d8;fill-opacity:1;fill-rule:nonzero;stroke:none"
         id="path134" /><path
         d="m 17604.1,4481.4 h -961.8 c -88.3,0 -160,-71.6 -160,-160 0,-88.3 71.7,-160 160,-160 h 961.8 c 88.3,0 160,71.7 160,160 0,88.4 -71.7,160 -160,160"
         style="fill:#4cb7d8;fill-opacity:1;fill-rule:nonzero;stroke:none"
         id="path136" /><path
         d="m 16361.7,9456.3 v 0 c -95.4,0 -172.7,-77.4 -172.7,-172.8 v -353.8 c 0,-95.4 77.3,-172.7 172.7,-172.7 v 0 c 95.4,0 172.7,77.3 172.7,172.7 v 353.8 c 0,95.4 -77.3,172.8 -172.7,172.8"
         style="fill:#4cb7d8;fill-opacity:1;fill-rule:nonzero;stroke:none"
         id="path138" /><path
         d="m 7045.19,1609 c -489.49,816.9 -1168.16,172.6 -1168.16,172.6 0,0 -18.08,1693.3 -1511.26,1562.4 C 3063.85,3229.8 3159.58,1506.2 3159.58,1506.2 c -277.99,-19.4 -443.27,-103.5 -540.16,-206.8 -44.42,-47.3 -65.78,-102.6 -68.91,-157.5 h 5780.94 c -1.06,17.6 -5.39,35.5 -13.64,53 -426.71,903 -1272.62,414.1 -1272.62,414.1"
         style="fill:#7fc6a6;fill-opacity:1;fill-rule:nonzero;stroke:none"
         id="path140" /><path
         d="m 23421.5,1506.2 c 0,0 95.7,1723.6 -1206.2,1837.8 -1493.2,130.9 -1511.2,-1562.4 -1511.2,-1562.4 0,0 -678.7,644.3 -1168.2,-172.6 0,0 -845.9,488.9 -1272.6,-414.1 -8.3,-17.5 -12.6,-35.4 -13.7,-53 h 5781 c -3.1,54.9 -24.5,110.2 -68.9,157.5 -96.9,103.3 -262.2,187.4 -540.2,206.8"
         style="fill:#7fc6a6;fill-opacity:1;fill-rule:nonzero;stroke:none"
         id="path142" /><path
         d="m 6268.23,6605.5 -43.43,52 -62.01,-56.1 -120.28,74.7 c 0,0 -189.86,-396.4 -183.1,-597.1 6.76,-200.8 376.1,-1141.6 376.1,-1141.6 l 325.44,147.6 -188.24,903.1 -104.48,617.4"
         style="fill:#fe9f73;fill-opacity:1;fill-rule:nonzero;stroke:none"
         id="path144" /><path
         d="m 6637.78,4897.1 -90.18,220.6 c -12.67,7.2 -274.16,-103.5 -336.18,-121.8 l 83.17,-201.9 c 9.74,-31.2 43.43,-116.4 60.09,-128.5 28.81,-21 54.74,0.5 89.8,12.2 49.33,16.4 109.32,32.2 156.22,45.7 1.24,2.2 3.29,3.9 5.89,4.6 l 10.15,2.9 c -1.5,5.6 32.12,21 76.27,39.6 -18.75,53.6 -37.32,98.5 -45.08,121.3 l -10.15,5.3"
         style="fill:#fe9f73;fill-opacity:1;fill-rule:nonzero;stroke:none"
         id="path146" /><path
         d="m 6518.64,5023 c -27.97,-3.2 -48.03,-20.5 -47.59,-25.2 l 14.99,-155.2 c 1.65,-17.1 20.2,-30.1 43.63,-28.6 26.84,1.7 47.78,20.1 45.93,39.2 l -13.99,144.9 c -1.55,16.1 -26.75,26.8 -42.97,24.9"
         style="fill:#fe9f73;fill-opacity:1;fill-rule:nonzero;stroke:none"
         id="path148" /><path
         d="m 6715.61,4943.8 -455.59,-125 c -58.46,-16 -92.98,-76.6 -76.94,-135.1 l 27.02,-98.5 69.8,19.2 -27.01,98.5 c -5.48,19.9 6.3,40.6 26.28,46.1 l 455.59,125 c 19.97,5.5 40.67,-6.3 46.15,-26.3 l 25.59,-93.3 69.81,19.1 -25.6,93.4 c -16.04,58.4 -76.64,92.9 -135.1,76.9"
         style="fill:#49263e;fill-opacity:1;fill-rule:nonzero;stroke:none"
         id="path150" /><path
         d="m 6343.28,4640 c -4.17,15.2 -19.87,24.1 -35.07,20 l -150.82,-41.4 c -15.2,-4.2 -24.14,-19.9 -19.97,-35.1 l 9.04,-33 c 4.17,-15.2 19.87,-24.1 35.08,-19.9 l 150.82,41.3 c 15.2,4.2 24.14,19.9 19.97,35.1 l -9.05,33"
         style="fill:#4cb7d8;fill-opacity:1;fill-rule:nonzero;stroke:none"
         id="path152" /><path
         d="m 6936.87,4802.8 c -4.16,15.2 -19.87,24.2 -35.07,20 l -150.82,-41.4 c -15.2,-4.2 -24.14,-19.9 -19.97,-35.1 l 9.05,-32.9 c 4.16,-15.2 19.87,-24.2 35.07,-20 l 150.82,41.4 c 15.2,4.1 24.14,19.8 19.97,35 l -9.05,33"
         style="fill:#4cb7d8;fill-opacity:1;fill-rule:nonzero;stroke:none"
         id="path154" /><path
         d="M 5377.29,4355.9 5807.72,2786.8 8142.58,3427.2 7712.14,4996.4 5377.29,4355.9"
         style="fill:#ffffff;fill-opacity:1;fill-rule:nonzero;stroke:none"
         id="path156" /><path
         d="m 5377.29,4355.9 52.52,-191.5 c 105.77,29.1 167.93,138.3 138.94,244 l -191.46,-52.5"
         style="fill:#49263e;fill-opacity:1;fill-rule:nonzero;stroke:none"
         id="path158" /><path
         d="m 7520.67,4943.9 c 28.99,-105.7 138.21,-168 243.99,-139 l -52.52,191.5 -191.47,-52.5"
         style="fill:#e83c4e;fill-opacity:1;fill-rule:nonzero;stroke:none"
         id="path160" /><path
         d="m 7951.1,3374.7 191.47,52.5 -52.52,191.5 c -105.78,-29 -167.94,-138.3 -138.95,-244"
         style="fill:#e83c4e;fill-opacity:1;fill-rule:nonzero;stroke:none"
         id="path162" /><path
         d="m 5755.2,2978.2 52.52,-191.4 191.47,52.5 c -28.99,105.7 -138.21,167.9 -243.99,138.9"
         style="fill:#49263e;fill-opacity:1;fill-rule:nonzero;stroke:none"
         id="path164" /><path
         d="m 5867.17,4490.3 v 0 l 47.4,13 v 0 l -47.4,-13"
         style="fill:#f08775;fill-opacity:1;fill-rule:nonzero;stroke:none"
         id="path166" /><path
         d="m 6297.6,2921.1 -430.43,1569.2 47.4,13 430.44,-1569.2 -47.41,-13"
         style="fill:#f39da6;fill-opacity:1;fill-rule:nonzero;stroke:none"
         id="path168" /><path
         d="m 7122.27,4834.6 v 0 l 47.41,13 v 0 l -47.41,-13"
         style="fill:#f19087;fill-opacity:1;fill-rule:nonzero;stroke:none"
         id="path170" /><path
         d="m 7552.71,3265.4 -430.44,1569.2 47.41,13 430.43,-1569.2 -47.4,-13"
         style="fill:#f39da6;fill-opacity:1;fill-rule:nonzero;stroke:none"
         id="path172" /><path
         d="m 6513.3,4876.4 c -21.46,-8.3 -32.89,-27.7 -27.06,-43.5 l 48.06,-130.4 c 1.56,-4.3 20.14,-16.6 45.79,-8 25.64,8.5 35.78,37.1 35.78,37.1 l -47.86,129.9 c -6.27,17 -31.2,24.1 -54.71,14.9"
         style="fill:#fe9f73;fill-opacity:1;fill-rule:nonzero;stroke:none"
         id="path174" /><path
         d="m 6425.63,4852.8 c -21.31,-8.7 -32.28,-28.1 -26.04,-43.8 l 55.53,-139.3 c 1.67,-4.2 26.24,-9.7 51.75,-0.8 25.51,8.9 30.98,26.9 30.98,26.9 l -56.95,142.9 c -6.72,16.9 -31.91,23.5 -55.27,14.1"
         style="fill:#fe9f73;fill-opacity:1;fill-rule:nonzero;stroke:none"
         id="path176" /><path
         d="m 6342.46,4824.3 c -19.77,-8.2 -29.73,-26.4 -23.68,-40.9 l 53.85,-129 c 1.61,-3.9 24.62,-8.8 48.3,-0.3 23.69,8.5 28.54,25.3 28.54,25.3 l -55.22,132.3 c -6.52,15.7 -30.12,21.6 -51.79,12.6"
         style="fill:#fe9f73;fill-opacity:1;fill-rule:nonzero;stroke:none"
         id="path178" /><path
         d="m 6575.74,4864.1 c -3.57,9.7 -12.66,17.2 -24.91,20.5 -12.42,3.4 -26.66,2.4 -40.09,-2.8 -25.11,-9.8 -39.27,-32.4 -32.23,-51.5 l 52.47,-140.3 0.62,-1.1 c 1.69,-2.3 5.48,-3.1 9.18,-1.8 4.27,1.4 6.79,5.1 5.64,8.1 l -52.46,140.3 c -4.87,13.2 4.74,28.8 21.89,35.5 9.18,3.6 18.92,4.3 27.42,1.9 8.49,-2.3 14.54,-7.2 17.02,-14 l 47.37,-128.6 c 1.17,-3 5.52,-4.4 9.78,-2.9 4.27,1.4 6.8,5 5.66,8.1 l -47.36,128.6"
         style="fill:#f07162;fill-opacity:1;fill-rule:nonzero;stroke:none"
         id="path180" /><path
         d="m 6641.49,4903.5 c -6.68,17.3 -32.56,24 -56.32,13.9 -20.75,-8.9 -31.05,-28 -25.09,-43.4 l 54.12,-139.6 c 1.62,-4.2 26.3,-10.4 51.67,-1.1 14.72,5.4 31.74,25.4 26.13,39.9 l -50.51,130.3"
         style="fill:#fe9f73;fill-opacity:1;fill-rule:nonzero;stroke:none"
         id="path182" /><path
         d="m 6649.19,4906.2 c -3.74,9.6 -12.96,17 -25.29,20.2 -12.51,3.3 -26.76,2.2 -40.13,-3.2 -25,-9.9 -38.83,-32.6 -31.46,-51.6 l 54.85,-139.5 0.64,-1.1 c 1.73,-2.3 5.54,-3.1 9.23,-1.8 4.25,1.5 6.72,5.2 5.51,8.2 l -54.84,139.5 c -5.09,13.2 4.28,28.8 21.36,35.6 9.15,3.7 18.9,4.4 27.45,2.2 8.54,-2.2 14.69,-7.1 17.28,-13.8 l 49.55,-127.9 c 1.23,-3 5.61,-4.3 9.85,-2.9 4.25,1.5 6.74,5.2 5.55,8.3 l -49.55,127.8"
         style="fill:#f07162;fill-opacity:1;fill-rule:nonzero;stroke:none"
         id="path184" /><path
         d="m 6488.59,4841.4 c -3.82,9.7 -13.13,17 -25.52,20.1 -12.55,3.2 -26.8,2 -40.13,-3.4 -24.84,-10.1 -37.34,-31.2 -29.75,-50.2 l 56.76,-135 0.55,-1 c 1.74,-2.3 5.67,-3.1 9.42,-1.7 4.22,1.5 6.61,5.2 5.34,8.2 l -56.73,134.9 c -5.26,13.2 2.87,27.3 19.8,34.1 9.13,3.7 18.87,4.6 27.45,2.4 8.58,-2.2 14.77,-7.1 17.44,-13.8 l 56.95,-142.9 c 1.19,-3 5.64,-4.3 9.88,-2.8 4.25,1.5 6.7,5.2 5.48,8.2 l -56.94,142.9"
         style="fill:#f07162;fill-opacity:1;fill-rule:nonzero;stroke:none"
         id="path186" /><path
         d="m 6406.77,4817.5 c -3.75,9 -12.64,15.8 -24.37,18.6 -11.9,2.9 -25.35,1.7 -37.86,-3.5 -23.41,-9.7 -35.95,-31.2 -28.55,-49 l 53.84,-129 0.56,-1 c 1.73,-2.3 5.65,-3.1 9.39,-1.7 4.23,1.5 6.64,5.2 5.36,8.2 l -53.84,129.1 c -4.98,11.9 3.28,26.3 18.81,32.8 8.32,3.4 17.25,4.3 25.16,2.3 7.9,-1.9 13.66,-6.3 16.19,-12.4 l 55.22,-132.3 c 1.24,-3 5.72,-4.3 9.95,-2.7 4.22,1.5 6.63,5.2 5.36,8.2 l -55.22,132.4"
         style="fill:#f07162;fill-opacity:1;fill-rule:nonzero;stroke:none"
         id="path188" /><path
         d="m 6488.68,5076 -32.51,-38.4 25.09,-128 11.26,-61.9 13.06,-15.9 36.1,-3.3 30.21,20.9 5.12,33.8 -1.29,134.5 -87.04,58.3"
         style="fill:#fe9f73;fill-opacity:1;fill-rule:nonzero;stroke:none"
         id="path190" /><path
         d="m 6573.1,5013.4 c -4.67,-0.2 -8.36,-3.3 -8.35,-6.7 l 2.95,-142.7 c 0.16,-7.5 -3.81,-14.7 -11.16,-20.2 -7.35,-5.6 -17.05,-8.7 -27.31,-8.8 -19.15,-0.2 -34.39,11.2 -34.69,25.8 l -28.23,153.4 c -0.05,3.4 -3.89,6 -8.57,5.7 -4.06,-0.2 -7.42,-2.5 -8.2,-5.3 l -0.17,-1.3 28.23,-153.4 c 0.43,-21.2 22.75,-37.6 50.79,-37.3 14.99,0.1 29.17,4.7 39.92,12.8 10.6,8 16.56,18.8 16.33,29.5 l -2.95,142.8 c -0.07,3.4 -3.91,6 -8.59,5.7"
         style="fill:#f07162;fill-opacity:1;fill-rule:nonzero;stroke:none"
         id="path192" /><path
         d="m 3777.16,1800.7 332.46,-231.8 243,351.3 -357.32,194.4 -218.14,-313.9"
         style="fill:#fe9f73;fill-opacity:1;fill-rule:nonzero;stroke:none"
         id="path194" /><path
         d="m 4409.57,1296.2 -45.86,32.9 -121.9,279.7 -207.43,-43.3 -287.12,206.1 c -7.16,5.2 -17.14,3.5 -22.29,-3.6 l -31.22,-43.5 c -3.52,-4.9 -2.4,-11.8 2.51,-15.3 L 4363.88,1230 c 20.16,-14.5 49.16,-7.6 60.15,16.1 8.16,17.7 1.35,38.8 -14.46,50.1"
         style="fill:#fdeacf;fill-opacity:1;fill-rule:nonzero;stroke:none"
         id="path196" /><path
         d="m 4200.43,1697.8 c -166.79,-25.1 -221.44,133.8 -221.44,133.8 -49.78,86.1 -144.85,55.7 -144.85,55.7 l -84.6,-117.9 660.21,-473.9 c 7.64,48.9 -43.16,119.2 -43.16,119.2 l -166.16,283.1"
         style="fill:#fc5b73;fill-opacity:1;fill-rule:nonzero;stroke:none"
         id="path198" /><path
         d="m 3747.51,1771.8 4.89,-3.5 84.18,117.2 -4.89,3.6 -84.18,-117.3"
         style="fill:#000000;fill-opacity:1;fill-rule:nonzero;stroke:none"
         id="path200" /><path
         d="m 3981.82,1832.6 -5.66,-2 c 19.84,-55.1 57.52,-88.5 78.84,-103.8 9.33,-6.7 15.52,-9.9 15.73,-10 l 2.74,5.3 c -0.62,0.4 -63.96,33.6 -91.65,110.5"
         style="fill:#000000;fill-opacity:1;fill-rule:nonzero;stroke:none"
         id="path202" /><path
         d="m 3808.6,1792.2 16.07,-43.3 5.64,2.1 -16.07,43.3 -5.64,-2.1"
         style="fill:#000000;fill-opacity:1;fill-rule:nonzero;stroke:none"
         id="path204" /><path
         d="m 3835.2,1782.1 16.06,-43.3 5.64,2.1 -16.06,43.3 -5.64,-2.1"
         style="fill:#000000;fill-opacity:1;fill-rule:nonzero;stroke:none"
         id="path206" /><path
         d="m 4412.38,1297.6 -660.12,473.8 c -10.38,7.5 -24.89,5.1 -32.34,-5.3 l -23.38,-32.6 4.88,-3.5 23.39,32.6 c 5.52,7.7 16.26,9.4 23.95,3.9 l 660.11,-473.8 c 16.67,-12 20.5,-35.3 8.53,-51.9 -6.38,-8.9 -16.3,-14.5 -27.23,-15.4 l 0.49,-6 c 12.69,1 24.21,7.5 31.63,17.9 13.9,19.3 9.45,46.4 -9.91,60.3"
         style="fill:#000000;fill-opacity:1;fill-rule:nonzero;stroke:none"
         id="path208" /><path
         d="m 4203.03,1699.3 -5.2,-3 c 1.49,-2.5 148.52,-253 182.57,-309.2 33.31,-54.9 27.33,-91.1 27.27,-91.4 l 5.91,-1.1 c 0.29,1.5 6.59,38.5 -28.04,95.6 -34.02,56.1 -181.03,306.6 -182.51,309.1"
         style="fill:#000000;fill-opacity:1;fill-rule:nonzero;stroke:none"
         id="path210" /><path
         d="m 5569.75,1645.6 5.81,-382.2 405.23,5.6 -7.4,427 -403.64,-50.4"
         style="fill:#fe9f73;fill-opacity:1;fill-rule:nonzero;stroke:none"
         id="path212" /><path
         d="m 6383.49,1222.4 h -56.45 l -262.09,156.1 -143.29,-156.1 h -353.43 c -8.83,0 -15.98,-7.2 -15.98,-16 v -53.5 c 0,-6.1 4.9,-11 10.94,-11 h 821.79 c 24.82,0 44.39,22.5 39.46,48.2 -3.66,19.1 -21.5,32.3 -40.95,32.3"
         style="fill:#fdeacf;fill-opacity:1;fill-rule:nonzero;stroke:none"
         id="path214" /><path
         d="m 6279.49,1293.6 -300.07,133.1 C 5858.58,1309 5721.5,1406.2 5721.5,1406.2 5630.87,1447.1 5571.35,1367 5571.35,1367 v -145.1 h 812.69 c -22.27,44.2 -104.55,71.7 -104.55,71.7"
         style="fill:#fc5b73;fill-opacity:1;fill-rule:nonzero;stroke:none"
         id="path216" /><path
         d="m 5568.34,1367 v -144.4 h 6.02 V 1367 h -6.02"
         style="fill:#000000;fill-opacity:1;fill-rule:nonzero;stroke:none"
         id="path218" /><path
         d="m 5723.2,1408.7 -3.4,-5 c 48.26,-33.2 98.31,-38.3 124.55,-38.3 11.49,0 18.41,1 18.63,1 l -0.89,6 c -0.7,-0.1 -71.53,-10 -138.89,36.3"
         style="fill:#000000;fill-opacity:1;fill-rule:nonzero;stroke:none"
         id="path220" /><path
         d="m 5606.05,1274.9 38.33,-25.9 3.37,5 -38.34,25.9 -3.36,-5"
         style="fill:#000000;fill-opacity:1;fill-rule:nonzero;stroke:none"
         id="path222" /><path
         d="m 5633.54,1282.2 38.33,-25.9 3.36,5 -38.32,25.9 -3.37,-5"
         style="fill:#000000;fill-opacity:1;fill-rule:nonzero;stroke:none"
         id="path224" /><path
         d="m 6384.98,1225.1 h -812.56 c -12.78,0 -23.18,-10.4 -23.18,-23.2 v -40.1 h 6.02 v 40.1 c 0,9.5 7.7,17.2 17.16,17.2 h 812.56 c 20.53,0 37.22,-16.7 37.22,-37.2 0,-11 -4.79,-21.3 -13.15,-28.4 l 3.89,-4.6 c 9.71,8.2 15.27,20.3 15.27,33 0,23.8 -19.39,43.2 -43.23,43.2"
         style="fill:#000000;fill-opacity:1;fill-rule:nonzero;stroke:none"
         id="path226" /><path
         d="m 6309.15,1284.7 c -60.36,25.8 -325.84,143.5 -328.51,144.7 l -2.45,-5.5 c 2.68,-1.2 268.2,-118.9 328.6,-144.7 59.1,-25.2 75.32,-58.1 75.47,-58.4 l 5.44,2.6 c -0.67,1.4 -17.13,35.1 -78.55,61.3"
         style="fill:#000000;fill-opacity:1;fill-rule:nonzero;stroke:none"
         id="path228" /><path
         d="m 6131.23,5303 c -14.63,95.2 -113.48,152.6 -203.4,118 l -563.29,-216.4 c -60.1,-23 -98.96,-81.6 -96.78,-145.9 15.27,-449.2 81.69,-2206.2 221.34,-3355.7 9.21,-75.8 73.43,-132.9 149.75,-132.7 84.5,0.2 202.03,10.3 332.27,50 62.95,19.2 106.65,76.5 107.72,142.3 l 56.78,3497.7 c 0.14,8.5 -0.44,17 -1.73,25.4 l -2.66,17.3"
         style="fill:#1d7c7a;fill-opacity:1;fill-rule:nonzero;stroke:none"
         id="path230" /><path
         d="m 4851.72,3644.8 c 0,0 -682.45,-1059.2 -944.23,-1519.2 -31.26,-55 -17.51,-124.2 32.1,-163.4 70.27,-55.5 183.67,-130.6 333.58,-182.4 50.83,-17.5 107.3,-1.4 141.04,40.4 l 1221.39,1460 c 36.89,44.1 61.76,97 72.19,153.6 L 6006.95,5056 4946.46,5265.3 4851.72,3644.8"
         style="fill:#258d8c;fill-opacity:1;fill-rule:nonzero;stroke:none"
         id="path232" /><path
         d="m 3856.94,2036 h 0.05 -0.05"
         style="fill:#21111d;fill-opacity:1;fill-rule:nonzero;stroke:none"
         id="path234" /><path
         d="m 5891.76,7728.4 c 0,0 92.18,134.2 -51.96,288.1 -144.14,153.9 -210.48,-49.1 -278.91,-56.3 -68.42,-7.1 -181.13,38.1 -247.1,-74.9 -65.98,-113 -58.01,-206.4 -129.78,-212.7 -71.76,-6.3 -327.79,-138.3 -311.67,-376.3 16.11,-238 239.77,-266.1 239.77,-266.1 0,0 862.4,-195.8 962.4,19.5 100,215.4 33.85,328.5 -62.51,425 -59.21,59.3 -188.32,123.1 -120.24,253.7"
         style="fill:#49263e;fill-opacity:1;fill-rule:nonzero;stroke:none"
         id="path236" /><path
         d="m 6139.5,7025.5 c -50.82,51.8 -316.76,76.2 -360.09,81.3 l -38.44,-3.8 c 0,0 -179.06,8.7 -269.08,8.7 -18.24,0 -32.91,-0.3 -41.59,-1.2 -32.58,-0.7 -134.22,-3.6 -237.71,-11.3 l -11.94,7.7 -94.04,-17.5 c -3.91,-0.5 -7.71,-0.9 -11.51,-1.5 -4.02,-0.4 -7.82,-1.5 -11.62,-2.9 l -74.06,-13.9 -155.06,-74.8 -135.09,-141.3 -149.53,-186.3 -142.69,-193 -49.19,-69.5 c 0,0 21.29,-20 60.05,-50.4 29.21,59.4 56.25,113.6 75.69,154.2 131.5,-104.8 318.28,-186.3 402.65,-213.4 -29.21,-51.5 -60.05,-109.2 -88.82,-163.9 23.56,-9 47.78,-17.5 72.64,-25.2 l 34.21,75.1 -52.34,-816.5 -8.69,-136.1 -13.57,-211 c 413.83,-49.1 1327.18,-69.2 1327.18,-69.2 l -39.96,903.1 30.08,458.6 18.46,26.2 76.99,28.4 44.96,39 34.64,24.9 -33.99,158.6 c -73.73,285.3 -144.86,423 -158.54,436.9"
         style="fill:#80c5a6;fill-opacity:1;fill-rule:nonzero;stroke:none"
         id="path238" /><path
         d="m 5415.76,7736.9 -62.85,-652.9 280.84,-27 19.16,199 c 62.65,-4.9 92.42,30.1 92.42,30.1 60.24,65.4 43.47,388 43.47,388 l -373.04,62.8"
         style="fill:#fe9f73;fill-opacity:1;fill-rule:nonzero;stroke:none"
         id="path240" /><path
         d="m 5673.06,7519 c -4.39,30.3 17.85,56.4 18.07,56.6 0.93,1.1 0.82,2.7 -0.25,3.7 -1.08,0.9 -2.7,0.8 -3.63,-0.3 -0.98,-1.1 -23.99,-28 -19.29,-60.7 2.89,-20 15.6,-37.7 37.8,-52.4 -3.63,-6.3 -15.97,-25.6 -32.79,-27.6 -1.41,-0.1 -2.42,-1.4 -2.25,-2.8 0.14,-1.3 1.12,-2.2 2.3,-2.3 h 0.55 c 22.78,2.6 37.28,31.2 37.89,32.4 l 1.03,2.1 -1.95,1.2 c -22.11,14.2 -34.73,31 -37.48,50.1"
         style="fill:#f07162;fill-opacity:1;fill-rule:nonzero;stroke:none"
         id="path242" /><path
         d="m 5645.2,7175.9 7.71,80.1 c 0,0 -134.57,21 -212.55,81.3 0,0 102.25,-119.2 204.84,-161.4"
         style="fill:#f07162;fill-opacity:1;fill-rule:nonzero;stroke:none"
         id="path244" /><path
         d="m 5526.35,7592.2 c -2.15,-1.8 -2.39,-5.1 -0.54,-7.2 0.9,-1.1 2.13,-1.7 3.4,-1.8 1.35,-0.1 2.74,0.3 3.84,1.2 2.66,2.3 65.63,55.2 114.2,7.8 2.03,-2 5.28,-2 7.27,0 1.98,2.1 1.95,5.3 -0.09,7.3 -55.31,54.1 -127.35,-6.7 -128.08,-7.3"
         style="fill:#000000;fill-opacity:1;fill-rule:nonzero;stroke:none"
         id="path246" /><path
         d="m 5705.65,7586.6 c -2.31,-1.7 -2.85,-4.9 -1.2,-7.2 0.9,-1.3 2.26,-2 3.7,-2.2 1.18,-0.1 2.42,0.2 3.46,1 0.44,0.3 44.16,30.9 64.53,9.7 1.97,-2 5.22,-2.1 7.27,-0.1 2.05,2 2.11,5.2 0.14,7.3 -26.5,27.5 -75.81,-7.1 -77.9,-8.5"
         style="fill:#000000;fill-opacity:1;fill-rule:nonzero;stroke:none"
         id="path248" /><path
         d="m 5750,7547.6 c -7.87,0.7 -14.87,-5.1 -15.62,-12.9 -0.76,-7.9 5.01,-14.9 12.88,-15.6 7.87,-0.8 14.87,5 15.62,12.8 0.76,7.9 -5.01,14.9 -12.88,15.7"
         style="fill:#49263e;fill-opacity:1;fill-rule:nonzero;stroke:none"
         id="path250" /><path
         d="m 5623.79,7559.7 c -7.87,0.8 -14.87,-5 -15.63,-12.9 -0.75,-7.8 5.01,-14.8 12.88,-15.6 7.88,-0.8 14.87,5 15.63,12.9 0.76,7.9 -5.01,14.8 -12.88,15.6"
         style="fill:#49263e;fill-opacity:1;fill-rule:nonzero;stroke:none"
         id="path252" /><path
         d="m 5377.27,7588.1 c -44.13,4.3 -83.35,-28 -87.6,-72.2 -4.25,-44.1 28.09,-83.3 72.22,-87.6 44.13,-4.2 83.36,28.1 87.6,72.2 4.25,44.2 -28.08,83.4 -72.22,87.6"
         style="fill:#fe9f73;fill-opacity:1;fill-rule:nonzero;stroke:none"
         id="path254" /><path
         d="m 5376.4,7542.8 c -16.67,11.4 -38.09,6.6 -39,6.4 -1.38,-0.3 -2.25,-1.7 -1.93,-3.1 0.32,-1.4 1.69,-2.2 3.08,-1.9 0.2,0 20.13,4.4 34.95,-5.7 6.59,-4.4 11.23,-11.2 13.85,-20 -8.01,6.2 -23.09,13.9 -41.36,4.9 -12.83,-6.4 -19.23,-20.4 -16.31,-35.7 2.48,-12.9 12.47,-26.6 29.24,-28.2 l 0.48,-0.1 c 1.42,-0.1 2.66,1 2.77,2.4 0.12,1.4 -0.96,2.7 -2.35,2.8 -15.37,1.3 -23.11,13.7 -25.09,24.1 -1.88,9.9 0.53,23.7 13.54,30.1 23.54,11.6 40.62,-8.5 41.34,-9.3 l 5.89,-7.1 -1.37,9.1 c -2.13,14.2 -8.1,24.7 -17.73,31.3"
         style="fill:#f07162;fill-opacity:1;fill-rule:nonzero;stroke:none"
         id="path256" /><path
         d="m 5613.06,7828.8 c -163.27,29.4 -197.3,-91.9 -197.3,-91.9 l 184.14,-56.1 176.86,-4.7 12.04,-2 c 0,0 -12.47,125.3 -175.74,154.7"
         style="fill:#fe9f73;fill-opacity:1;fill-rule:nonzero;stroke:none"
         id="path258" /><path
         d="m 5577.51,7873.4 c -11.37,1.1 -198.09,-54.8 -198.09,-54.8 0,0 -73.95,-219.7 21.44,-236.4 95.4,-16.8 155.33,141.2 155.33,141.2 130.64,-35.5 242.63,54.9 242.63,54.9 l -18.23,87.1 c 0,0 -191.71,7 -203.08,8"
         style="fill:#49263e;fill-opacity:1;fill-rule:nonzero;stroke:none"
         id="path260" /><path
         d="m 5637.92,7504.5 c -4.09,0.4 -4.7,-6 -0.62,-6.4 4.09,-0.4 4.7,6 0.62,6.4"
         style="fill:#ea5942;fill-opacity:1;fill-rule:nonzero;stroke:none"
         id="path262" /><path
         d="m 5617.55,7494.9 c -4.08,0.4 -4.69,-5.9 -0.61,-6.3 4.09,-0.4 4.69,5.9 0.61,6.3"
         style="fill:#ea5942;fill-opacity:1;fill-rule:nonzero;stroke:none"
         id="path264" /><path
         d="m 5584.79,7521.1 c -4.08,0.4 -4.69,-5.9 -0.61,-6.3 4.09,-0.4 4.69,5.9 0.61,6.3"
         style="fill:#ea5942;fill-opacity:1;fill-rule:nonzero;stroke:none"
         id="path266" /><path
         d="m 5552.63,7501.2 c -4.09,0.4 -4.69,-6 -0.61,-6.4 4.09,-0.4 4.69,6 0.61,6.4"
         style="fill:#ea5942;fill-opacity:1;fill-rule:nonzero;stroke:none"
         id="path268" /><path
         d="m 5524.19,7534.9 c -4.08,0.4 -4.69,-6 -0.61,-6.4 4.09,-0.4 4.69,6 0.61,6.4"
         style="fill:#ea5942;fill-opacity:1;fill-rule:nonzero;stroke:none"
         id="path270" /><path
         d="m 5508.39,7490.3 c -4.09,0.4 -4.7,-5.9 -0.62,-6.3 4.09,-0.4 4.69,5.9 0.62,6.3"
         style="fill:#ea5942;fill-opacity:1;fill-rule:nonzero;stroke:none"
         id="path272" /><path
         d="m 5703.19,7516.9 c -4.08,0.4 -4.68,-5.9 -0.61,-6.3 4.09,-0.4 4.69,5.9 0.61,6.3"
         style="fill:#ea5942;fill-opacity:1;fill-rule:nonzero;stroke:none"
         id="path274" /><path
         d="m 5724.27,7489 c -4.09,0.4 -4.69,-6 -0.62,-6.4 4.09,-0.4 4.7,6 0.62,6.4"
         style="fill:#ea5942;fill-opacity:1;fill-rule:nonzero;stroke:none"
         id="path276" /><path
         d="m 5753.9,7497.6 c -4.09,0.4 -4.69,-5.9 -0.61,-6.3 4.09,-0.4 4.69,5.9 0.61,6.3"
         style="fill:#ea5942;fill-opacity:1;fill-rule:nonzero;stroke:none"
         id="path278" /><path
         d="m 5751.72,7452.5 c -4.09,0.4 -4.7,-6 -0.62,-6.4 4.09,-0.4 4.69,6 0.62,6.4"
         style="fill:#ea5942;fill-opacity:1;fill-rule:nonzero;stroke:none"
         id="path280" /><path
         d="m 5775.66,7476.8 c -4.09,0.4 -4.69,-5.9 -0.61,-6.3 4.09,-0.4 4.69,5.9 0.61,6.3"
         style="fill:#ea5942;fill-opacity:1;fill-rule:nonzero;stroke:none"
         id="path282" /><path
         d="m 5774.44,7516.5 c -4.08,0.4 -4.69,-5.9 -0.61,-6.3 4.09,-0.4 4.69,5.9 0.61,6.3"
         style="fill:#ea5942;fill-opacity:1;fill-rule:nonzero;stroke:none"
         id="path284" /><path
         d="m 5592.8,7477.1 c -4.09,0.4 -4.69,-5.9 -0.61,-6.3 4.09,-0.4 4.69,5.9 0.61,6.3"
         style="fill:#ea5942;fill-opacity:1;fill-rule:nonzero;stroke:none"
         id="path286" /><path
         d="m 5049.54,7016.6 c -3.16,-1 -78.06,-25.8 -125.5,-89 -1.57,-2.1 -1.15,-5.1 0.94,-6.6 0.85,-0.7 1.84,-1 2.83,-1 1.43,0 2.86,0.7 3.78,1.9 45.6,60.8 120.11,85.5 120.86,85.8 2.48,0.8 3.84,3.4 3.03,5.9 -0.8,2.5 -3.47,3.8 -5.94,3"
         style="fill:#21111d;fill-opacity:1;fill-rule:nonzero;stroke:none"
         id="path288" /><path
         d="m 5058.44,6972.9 c -3.17,-1 -78.06,-25.8 -125.51,-89 -1.56,-2.1 -1.14,-5.1 0.95,-6.6 0.84,-0.7 1.84,-1 2.82,-1 1.44,0 2.86,0.7 3.78,1.9 45.61,60.8 120.12,85.5 120.87,85.8 2.47,0.8 3.83,3.4 3.03,5.9 -0.81,2.5 -3.47,3.8 -5.94,3"
         style="fill:#21111d;fill-opacity:1;fill-rule:nonzero;stroke:none"
         id="path290" /><path
         d="m 6020.32,6332.7 h -470.27 c -4.71,0 -8.53,-3.8 -8.53,-8.5 0,-4.7 3.82,-8.5 8.53,-8.5 h 470.27 c 4.71,0 8.53,3.8 8.53,8.5 0,4.7 -3.82,8.5 -8.53,8.5"
         style="fill:#000000;fill-opacity:1;fill-rule:nonzero;stroke:none"
         id="path292" /><path
         d="M 5952.33,6250.6 H 5640.7 c -4.7,0 -8.52,-3.8 -8.52,-8.5 0,-4.7 3.82,-8.6 8.52,-8.6 h 311.63 c 4.71,0 8.53,3.9 8.53,8.6 0,4.7 -3.82,8.5 -8.53,8.5"
         style="fill:#000000;fill-opacity:1;fill-rule:nonzero;stroke:none"
         id="path294" /><path
         d="m 5636.4,7371.9 c 34.3,-10.5 58.47,23.5 58.47,23.5 -1.39,0.7 -93.73,28.7 -93.73,28.7 0,0 0.97,-41.7 35.26,-52.2"
         style="fill:#fbfdfc;fill-opacity:1;fill-rule:nonzero;stroke:none"
         id="path296" /><path
         d="m 5148.69,7094.9 c 0,0 130.16,-124.4 369.89,-121.7 239.72,2.6 380.54,121.7 380.54,121.7 -299.68,49.8 -750.43,0 -750.43,0"
         style="fill:#fe9f73;fill-opacity:1;fill-rule:nonzero;stroke:none"
         id="path298" /><path
         d="m 6325.86,6496.3 c -40.16,169.6 -123.72,522.5 -222.86,557.4 -109.55,38.6 -292.31,61.3 -294.14,61.6 -4.63,0.4 -8.93,-2.8 -9.51,-7.5 -0.57,-4.6 2.74,-8.9 7.42,-9.5 1.82,-0.2 182.74,-22.7 290.57,-60.7 90.36,-31.8 175.55,-391.6 211.92,-545.2 5.53,-23.4 10.03,-42.3 13.45,-55.7 -12.47,-14.9 -69.52,-78.4 -148.58,-90.6 -4.65,-0.7 -7.84,-5.1 -7.12,-9.7 0.64,-4.2 4.27,-7.2 8.41,-7.2 l 1.31,0.1 c 96.02,14.7 159.44,96.8 162.09,100.2 l 2.52,3.4 -1.05,4 c -3.5,13.2 -8.33,33.6 -14.43,59.4"
         style="fill:#000000;fill-opacity:1;fill-rule:nonzero;stroke:none"
         id="path300" /><path
         d="m 6123.78,6769.6 c -3.34,-3.3 -3.36,-8.7 -0.04,-12.1 7.8,-7.8 189.49,-195.9 32.47,-434.6 l -1.21,-1.9 -36.65,-495.8 17.29,2.5 36.03,487.7 c 162.52,249.6 -33.82,452.1 -35.83,454.2 -3.31,3.3 -8.7,3.3 -12.06,0"
         style="fill:#000000;fill-opacity:1;fill-rule:nonzero;stroke:none"
         id="path302" /><path
         d="m 6071.88,2002.8 21.71,-0.4 45.64,2811.3 -21.71,0.4 -45.64,-2811.3"
         style="fill:#000000;fill-opacity:1;fill-rule:nonzero;stroke:none"
         id="path304" /><path
         d="m 5697.17,3436 c -0.18,-0.8 -19.69,-88.8 -99.44,-184.1 L 4586.38,2043 l 16.65,-14 1011.35,1209 c 83.46,99.7 103.23,189.8 104.09,193.8 l 219.45,1190 -21.36,4 L 5697.17,3436"
         style="fill:#000000;fill-opacity:1;fill-rule:nonzero;stroke:none"
         id="path306" /><path
         d="m 5289.02,7117.7 h -0.37 c -1.11,0 -3.28,0.1 -6.51,0.3 -140.49,7 -268.3,-30.3 -350.69,-62.8 -200.35,-79.1 -567.12,-619.9 -582.63,-642.9 -3.35,-4.9 -2.05,-11.7 2.92,-15.1 1.87,-1.2 3.98,-1.8 6.07,-1.8 3.49,0 6.91,1.7 9.01,4.8 3.77,5.6 378.48,558.2 572.6,634.8 80.38,31.7 204.86,68.1 341.64,61.3 4.66,-0.3 7.69,-0.4 8.99,-0.3 5.91,0.4 10.25,5.5 9.95,11.4 -0.3,5.8 -5.22,10.3 -10.98,10.3"
         style="fill:#000000;fill-opacity:1;fill-rule:nonzero;stroke:none"
         id="path308" /><path
         d="m 7250.27,4881 5.75,-21 448.51,123 424.7,-1548.2 -479.61,-131.5 5.75,-21 500.54,137.3 -436.17,1590.1 -469.47,-128.7"
         style="fill:#000000;fill-opacity:1;fill-rule:nonzero;stroke:none"
         id="path310" /><path
         d="m 6410.47,3440.4 247.74,-102.9 8.33,20 -247.74,103 -8.33,-20.1"
         style="fill:#000000;fill-opacity:1;fill-rule:nonzero;stroke:none"
         id="path312" /><path
         d="m 6409.81,3337.5 247.75,-103 8.34,20.1 -247.76,102.9 -8.33,-20"
         style="fill:#000000;fill-opacity:1;fill-rule:nonzero;stroke:none"
         id="path314" /><path
         d="m 4826.8,5284.1 c -40.96,11.4 -118.92,38.4 -196.11,93.4 -138.83,99 -214,241.2 -223.75,422.9 -0.97,18.1 -15.78,32.3 -33.89,32.1 h -0.38 c -19.22,-0.2 -34.18,-16.5 -33.14,-35.7 13.82,-253.5 144.43,-398.3 254.28,-475.9 84.76,-59.9 168.72,-89.1 214.77,-101.9 19.11,-5.3 38.58,7 42.03,26.5 l 0.08,0.5 c 2.99,17 -7.31,33.5 -23.89,38.1"
         style="fill:#ffb357;fill-opacity:1;fill-rule:nonzero;stroke:none"
         id="path316" /><path
         d="m 4386.61,5599.7 -10.32,-3.4 c 77.51,-234.5 307.01,-333 309.32,-334 l 4.19,10 c -2.26,1 -227.22,97.5 -303.19,327.4"
         style="fill:#000000;fill-opacity:1;fill-rule:nonzero;stroke:none"
         id="path318" /><path
         d="m 5053.4,6033.4 9.69,-5 43.15,85.5 -9.69,4.9 -43.15,-85.4"
         style="fill:#000000;fill-opacity:1;fill-rule:nonzero;stroke:none"
         id="path320" /><path
         d="m 5011.4,6051.4 9.7,-4.9 43.14,85.5 -9.69,4.9 -43.15,-85.5"
         style="fill:#000000;fill-opacity:1;fill-rule:nonzero;stroke:none"
         id="path322" /><path
         d="m 4417.91,6355.8 c 74.6,-58.6 213.71,-155.9 389.52,-223.1 28.77,54.7 59.61,112.4 88.82,163.9 -84.37,27.1 -271.15,108.6 -402.65,213.4 -19.44,-40.6 -46.48,-94.8 -75.69,-154.2"
         style="fill:#80c5a6;fill-opacity:1;fill-rule:nonzero;stroke:none"
         id="path324" /><path
         d="m 4700.46,5930.7 c 21.72,37.6 61.9,116.3 106.97,202 -175.81,67.2 -314.92,164.5 -389.52,223.1 -83.5,-169.3 -185.36,-380.9 -181.89,-439.8 16.08,-275 351.51,-718 494.85,-838.5 l 122.38,152.5 47.56,59.3 c -10.1,15.6 -23.56,42.5 -38.87,76.8 -74.82,167.8 -192.21,511.6 -161.48,564.6"
         style="fill:#fe9f73;fill-opacity:1;fill-rule:nonzero;stroke:none"
         id="path326" /><path
         d="m 4638.86,6210.6 c 0,0 177.76,-98.2 241.17,-111.6 l 58.58,165.3 -143.58,28.5 -156.17,-82.2"
         style="fill:#80c5a6;fill-opacity:1;fill-rule:nonzero;stroke:none"
         id="path328" /><path
         d="m 5026.12,6493.7 c -4.45,1.6 -9.34,-0.6 -10.99,-5 l -143.07,-378.2 c -1.66,-4.4 0.56,-9.3 4.95,-11 1,-0.4 2.02,-0.5 3.02,-0.5 3.44,0 6.68,2.1 7.97,5.5 l 143.07,378.2 c 1.66,4.4 -0.56,9.3 -4.95,11"
         style="fill:#000000;fill-opacity:1;fill-rule:nonzero;stroke:none"
         id="path330" /><path
         d="m 5138.36,5042.2 c -27.46,18.4 -111.49,74 -166.1,105.7 -21.05,35 42.64,63.8 81.93,69.1 20.24,2.8 45.13,19.5 -4.97,38.3 -40.95,15.4 -138.58,13.2 -138.58,13.2 l -132.19,247 -243.23,-218.6 c 0,0 177.99,-247.6 200.66,-279.4 22.67,-31.8 134.3,-113.3 185.15,-125.9 92.28,-22.8 68.97,16 68.97,16 98.08,-14.8 52.65,43.4 52.65,43.4 86.72,-20.8 54.55,42.2 54.55,42.2 47.69,-6.4 56.82,9.3 56.15,23.5 -0.5,10.4 -6.34,19.8 -14.99,25.5"
         style="fill:#fe9f73;fill-opacity:1;fill-rule:nonzero;stroke:none"
         id="path332" /><path
         d="m 5098.84,4997.6 c -0.53,0.2 -54.22,20.4 -84.88,40 -2.19,1.4 -5.09,0.7 -6.49,-1.4 -1.12,-1.8 -0.92,-4 0.34,-5.6 l 1.1,-0.9 c 31.5,-20.1 84.4,-40 86.64,-40.9 2.43,-0.9 5.14,0.4 6.05,2.8 0.9,2.4 -0.33,5.1 -2.76,6"
         style="fill:#f07162;fill-opacity:1;fill-rule:nonzero;stroke:none"
         id="path334" /><path
         d="m 5044.27,4955.5 c -0.41,0.1 -41.74,15.5 -75.69,43.8 -1.99,1.7 -4.95,1.4 -6.61,-0.5 -1.48,-1.8 -1.44,-4.3 -0.02,-6 l 0.6,-0.7 c 35.25,-29.4 76.74,-44.8 78.49,-45.5 2.43,-0.9 5.13,0.4 6.03,2.8 0.88,2.5 -0.35,5.2 -2.8,6.1"
         style="fill:#f07162;fill-opacity:1;fill-rule:nonzero;stroke:none"
         id="path336" /><path
         d="m 4991.44,4912 c -0.39,0.1 -38.6,12.5 -68.62,36.2 -2.04,1.6 -4.99,1.2 -6.59,-0.8 -1.4,-1.8 -1.32,-4.2 0.06,-5.9 l 0.72,-0.7 c 31.34,-24.7 69.94,-37.2 71.56,-37.7 2.47,-0.8 5.12,0.6 5.91,3 0.79,2.5 -0.57,5.1 -3.04,5.9"
         style="fill:#f07162;fill-opacity:1;fill-rule:nonzero;stroke:none"
         id="path338" /><path
         d="m 6650.65,4195.2 c -155.84,-46 -244.88,-209.7 -198.87,-365.5 46.01,-155.9 209.65,-244.9 365.49,-198.9 155.84,46 244.88,209.7 198.87,365.5 -46.01,155.8 -209.65,244.9 -365.49,198.9"
         style="fill:#ff424d;fill-opacity:1;fill-rule:nonzero;stroke:none"
         id="path340" /><path
         d="m 6914.37,3996.6 -160.67,-47 -49.06,160.1 -56.6,-17.4 48.83,-159.3 -159.95,-46.8 16.63,-56.9 160.67,47.1 49.06,-160.1 56.6,17.4 -48.83,159.3 159.95,46.8 -16.63,56.8"
         style="fill:#ffffff;fill-opacity:1;fill-rule:nonzero;stroke:none"
         id="path342" /><path
         d="m 21140.1,1283.8 446.7,-6.1 6.4,420.2 -445,55.4 -8.1,-469.5"
         style="fill:#fe9f73;fill-opacity:1;fill-rule:nonzero;stroke:none"
         id="path344" /><path
         d="m 21909.2,1283.8 446.8,-6.1 6.4,420.2 -445,55.4 -8.2,-469.5"
         style="fill:#fe9f73;fill-opacity:1;fill-rule:nonzero;stroke:none"
         id="path346" /><path
         d="m 21767.9,5062.4 -545.7,209.1 c -87.1,33.4 -143,7.6 -157.2,-84.4 l -13.6,-39.3 c -1.2,-8.1 -9.9,-29.9 -9.8,-38.1 l 34.4,-3372.9 c 1,-63.6 43.3,-118.9 104.3,-137.5 126.2,-38.4 240,-48.1 321.9,-48.3 73.9,-0.2 136.1,55 145,128.2 135.3,1110.7 199.7,2808.2 214.4,3242.2 2.2,62.1 -35.5,118.7 -93.7,141"
         style="fill:#33192c;fill-opacity:1;fill-rule:nonzero;stroke:none"
         id="path348" /><path
         d="m 21411.1,5487.1 159.5,-831.2 259,-2993.5 c 4.5,-51.8 41.1,-95.2 91.5,-108.5 148.5,-39.3 280.2,-40.3 366.7,-33.8 61.1,4.7 109.6,52.8 114.2,113.8 96.8,1287.6 59.7,3375 59.7,3375 l -1050.6,478.2"
         style="fill:#49263e;fill-opacity:1;fill-rule:nonzero;stroke:none"
         id="path350" /><path
         d="m 22394.1,1534.7 h 0.1 -0.1"
         style="fill:#21111d;fill-opacity:1;fill-rule:nonzero;stroke:none"
         id="path352" /><path
         d="m 21433.9,1437.1 c 0,0 -152.7,-108 -287.3,22.7 l -334.4,-147.9 c 0,0 -122.7,-40.8 -122.7,-103.9 h 911.7 v 185.5 c 0,0 -66.3,89.1 -167.3,43.6"
         style="fill:#33192c;fill-opacity:1;fill-rule:nonzero;stroke:none"
         id="path354" /><path
         d="m 21597.9,1236 h 6.7 v 157.5 h -6.7 V 1236"
         style="fill:#000000;fill-opacity:1;fill-rule:nonzero;stroke:none"
         id="path356" /><path
         d="m 21277.3,1399.5 -1,-6.6 c 0.2,0 7.9,-1.1 20.7,-1.1 29.3,0 85.1,5.7 138.8,42.6 l -3.8,5.5 c -75,-51.5 -153.9,-40.5 -154.7,-40.4"
         style="fill:#000000;fill-opacity:1;fill-rule:nonzero;stroke:none"
         id="path358" /><path
         d="m 21516.1,1268 3.8,-5.6 42.7,28.7 -3.8,5.6 -42.7,-28.7"
         style="fill:#000000;fill-opacity:1;fill-rule:nonzero;stroke:none"
         id="path360" /><path
         d="m 21607.9,1232.5 h -921.7 c -20.1,0 -36.3,-16.2 -36.3,-36.3 v -16.8 c 0,-20 16.2,-36.3 36.3,-36.3 h 921.7 c 8,0 14.6,6.5 14.6,14.6 v 60.2 c 0,8.1 -6.6,14.6 -14.6,14.6"
         style="fill:#ef9029;fill-opacity:1;fill-rule:nonzero;stroke:none"
         id="path362" /><path
         d="m 20779.2,1302.1 c -68.5,-29.1 -86.8,-66.6 -87.6,-68.2 l 6.1,-2.8 c 0.2,0.3 18.2,36.8 84.1,64.9 67.3,28.6 363.1,159.5 366.1,160.8 l -2.7,6.1 c -3,-1.3 -298.8,-132.2 -366,-160.8"
         style="fill:#000000;fill-opacity:1;fill-rule:nonzero;stroke:none"
         id="path364" /><path
         d="m 20981.8,1383.4 c 31.1,-48.5 69.2,-107.7 96.1,-149.8 h 62.2 c -25.3,39.5 -72.2,112.5 -109.8,171.2 -15.6,-6.9 -31.9,-14.1 -48.5,-21.4"
         style="fill:#d7e4f7;fill-opacity:1;fill-rule:nonzero;stroke:none"
         id="path366" /><path
         d="m 21059.5,1417.7 c 32.8,-51.1 84,-130.9 118.1,-184.1 h 62.2 c -31.2,48.7 -93.1,145.1 -131.9,205.5 -13.6,-6 -30.1,-13.3 -48.4,-21.4"
         style="fill:#d7e4f7;fill-opacity:1;fill-rule:nonzero;stroke:none"
         id="path368" /><path
         d="m 21600,1235.8 h -905.3 c -26.6,0 -48.2,-21.5 -48.2,-48 0,-14.1 6.2,-27.5 17,-36.6 l 4.4,5.1 c -9.4,7.8 -14.7,19.3 -14.7,31.5 0,22.8 18.6,41.4 41.5,41.4 h 905.3 c 10.6,0 19.2,-8.6 19.2,-19.1 v -44.6 h 6.7 v 44.6 c 0,14.2 -11.6,25.7 -25.9,25.7"
         style="fill:#000000;fill-opacity:1;fill-rule:nonzero;stroke:none"
         id="path370" /><path
         d="m 22200.7,1437.1 c 0,0 -152.7,-108 -287.3,22.7 L 21579,1311.9 c 0,0 -122.7,-40.8 -122.7,-103.9 h 911.7 v 185.5 c 0,0 -66.3,89.1 -167.3,43.6"
         style="fill:#49263e;fill-opacity:1;fill-rule:nonzero;stroke:none"
         id="path372" /><path
         d="m 22364.7,1236 h 6.7 v 157.5 h -6.7 V 1236"
         style="fill:#000000;fill-opacity:1;fill-rule:nonzero;stroke:none"
         id="path374" /><path
         d="m 22044.1,1399.5 -1,-6.6 c 0.2,0 7.9,-1.1 20.8,-1.1 29.2,0 85,5.7 138.7,42.6 l -3.8,5.5 c -75,-51.5 -153.9,-40.5 -154.7,-40.4"
         style="fill:#000000;fill-opacity:1;fill-rule:nonzero;stroke:none"
         id="path376" /><path
         d="m 22282.9,1268 3.8,-5.6 42.7,28.7 -3.8,5.6 -42.7,-28.7"
         style="fill:#000000;fill-opacity:1;fill-rule:nonzero;stroke:none"
         id="path378" /><path
         d="m 22252.3,1276.1 3.7,-5.6 42.7,28.8 -3.7,5.5 -42.7,-28.7"
         style="fill:#000000;fill-opacity:1;fill-rule:nonzero;stroke:none"
         id="path380" /><path
         d="M 22374.7,1232.5 H 21453 c -20.1,0 -36.3,-16.2 -36.3,-36.3 v -16.8 c 0,-20 16.2,-36.3 36.3,-36.3 h 921.7 c 8.1,0 14.6,6.5 14.6,14.6 v 60.2 c 0,8.1 -6.5,14.6 -14.6,14.6"
         style="fill:#ffb357;fill-opacity:1;fill-rule:nonzero;stroke:none"
         id="path382" /><path
         d="m 21546,1302.1 c -68.5,-29.1 -86.8,-66.6 -87.6,-68.2 l 6.1,-2.8 c 0.2,0.3 18.3,36.8 84.1,64.9 67.3,28.6 363.1,159.5 366.1,160.8 l -2.7,6.1 c -3,-1.3 -298.8,-132.2 -366,-160.8"
         style="fill:#000000;fill-opacity:1;fill-rule:nonzero;stroke:none"
         id="path384" /><path
         d="m 21748.6,1383.4 c 31.1,-48.5 69.2,-107.7 96.1,-149.8 h 62.2 c -25.3,39.5 -72.2,112.5 -109.8,171.2 -15.6,-6.9 -31.9,-14.1 -48.5,-21.4"
         style="fill:#d7e4f7;fill-opacity:1;fill-rule:nonzero;stroke:none"
         id="path386" /><path
         d="m 21826.3,1417.7 c 32.8,-51.1 84,-130.9 118.2,-184.1 h 62.1 c -31.2,48.7 -93.1,145.1 -131.8,205.5 -13.7,-6 -30.2,-13.3 -48.5,-21.4"
         style="fill:#d7e4f7;fill-opacity:1;fill-rule:nonzero;stroke:none"
         id="path388" /><path
         d="m 22366.8,1235.8 h -905.3 c -26.6,0 -48.2,-21.5 -48.2,-48 0,-14.1 6.2,-27.5 17,-36.6 l 4.4,5.1 c -9.4,7.8 -14.7,19.3 -14.7,31.5 0,22.8 18.6,41.4 41.5,41.4 h 905.3 c 10.6,0 19.2,-8.6 19.2,-19.1 v -44.6 h 6.7 v 44.6 c 0,14.2 -11.6,25.7 -25.9,25.7"
         style="fill:#000000;fill-opacity:1;fill-rule:nonzero;stroke:none"
         id="path390" /><path
         d="m 21020.9,3447.5 330.8,-42 14.2,2610.8 -327.2,103.8 -17.8,-2672.6"
         style="fill:#ffffff;fill-opacity:1;fill-rule:nonzero;stroke:none"
         id="path392" /><path
         d="m 21966.1,6140.4 c -82.5,-565.3 -33.5,-2724.3 -33.5,-2724.3 127.9,-24 699.8,0 699.8,0 l 49.3,2386.9 c 0,0 -633.2,902.7 -715.6,337.4"
         style="fill:#ffffff;fill-opacity:1;fill-rule:nonzero;stroke:none"
         id="path394" /><path
         d="m 20549.8,5648.2 402.6,102.6 172.4,494.1 c -18,-0.3 -416.4,-136.4 -416.4,-136.4 l -158.6,-460.3"
         style="fill:#ffffff;fill-opacity:1;fill-rule:nonzero;stroke:none"
         id="path396" /><path
         d="m 22427.1,7538.4 c -175.5,18.2 -636.9,19.1 -636.9,19.1 0,0 -60.5,-18 -41.4,-8.4 -505.9,-106.9 -549.2,-485.2 -549.2,-485.2 l -211.3,-1096.1 -275.9,-24.3 c -83.7,-172.1 -129.2,-431.5 -129.2,-431.5 l 753.4,-210.9 672.5,-102.9 c 0,0 263.6,-102.7 497.7,218.7 23.8,32.7 156.5,335.5 174.9,386.1 100.8,278.6 91.1,873 77.6,1266.2 0,0 -59.5,440.9 -332.2,469.2"
         style="fill:#ffffff;fill-opacity:1;fill-rule:nonzero;stroke:none"
         id="path398" /><path
         d="m 21027.3,6219.4 -261.4,-82.8 c -4.7,-1.5 -7.3,-6.3 -5.9,-10.7 1.5,-4.4 6.3,-6.8 10.9,-5.4 h 0.1 l 261.5,82.8 c 4.6,1.5 7.2,6.3 5.8,10.7 -1.4,4.5 -6.2,6.7 -11,5.4"
         style="fill:#21111d;fill-opacity:1;fill-rule:nonzero;stroke:none"
         id="path400" /><path
         d="m 20130.2,6710.9 -187.7,-88.6 -12.4,-5.9 -187.7,-88.6 860.9,-2197.6 c 24.2,-61.8 95.9,-90.2 156,-61.8 l 477.8,225.5 c 60.1,28.4 83.6,101.6 51,159.5 l -1157.9,2057.5"
         style="fill:#ff424d;fill-opacity:1;fill-rule:nonzero;stroke:none"
         id="path402" /><path
         d="m 20105.7,6975.4 -556.3,-262.5 104.7,-203.9 c 12.4,-26.2 85.2,-37.7 111.4,-25.3 l 421.1,198.7 c 26.2,12.4 37.4,43.7 25,69.8 l -105.9,223.2"
         style="fill:#f99247;fill-opacity:1;fill-rule:nonzero;stroke:none"
         id="path404" /><path
         d="m 19761.1,6492.9 c -43.3,-20.4 -95.1,-1.9 -115.6,41.2 l -86.9,183.1 -18.5,-8.7 86.9,-183.1 c 25.3,-53.3 89.4,-76.2 142.8,-51 l 302.9,143 -8.8,18.4 -302.8,-142.9"
         style="fill:#21111d;fill-opacity:1;fill-rule:nonzero;stroke:none"
         id="path406" /><path
         d="m 19336.6,6747.8 c -336.4,0 -661.8,151.3 -877,418.4 409.1,588.1 751.3,1196.1 988,1820.3 379.4,-38.2 730,-267.9 905,-636.6 265.7,-560.1 25.9,-1229 -535.6,-1494 -155.5,-73.4 -319.2,-108.1 -480.4,-108.1"
         style="fill:#fef5e7;fill-opacity:1;fill-rule:nonzero;stroke:none"
         id="path408" /><path
         d="m 18459.6,7166.2 c -54.4,67.4 -101.8,142.2 -140.5,223.9 -265.7,560.1 -25.9,1229 535.6,1494 155.4,73.3 319.1,108.1 480.4,108.1 37.7,0 75.2,-1.9 112.5,-5.7 -236.7,-624.2 -578.9,-1232.2 -988,-1820.3"
         style="fill:#f9a7b3;fill-opacity:1;fill-rule:nonzero;stroke:none"
         id="path410" /><path
         d="m 19542.3,8714.6 c -229.9,40 -431.8,-16.4 -450.9,-125.9 -19.2,-109.5 151.6,-230.6 381.5,-270.6 229.9,-40 431.8,16.3 450.9,125.8 19.2,109.5 -151.6,230.7 -381.5,270.7"
         style="fill:#f3fffe;fill-opacity:1;fill-rule:nonzero;stroke:none"
         id="path412" /><path
         d="m 19755.9,6480 849.4,-2182.9 19.1,7.3 -849.4,2183 -19.1,-7.4"
         style="fill:#21111d;fill-opacity:1;fill-rule:nonzero;stroke:none"
         id="path414" /><path
         d="m 19817,6855.9 c -561.6,-265 -1232.2,-25.9 -1497.9,534.2 -265.7,560.1 -25.9,1229 535.6,1494 561.5,265 1232.2,25.8 1497.9,-534.2 265.7,-560.1 25.9,-1229 -535.6,-1494 z m -1038.8,2189.4 c -650.9,-307.1 -928.8,-1082.4 -620.8,-1731.5 308,-649.1 1085.2,-926.4 1736.1,-619.2 650.8,307.2 928.7,1082.4 620.8,1731.6 -308,649.1 -1085.3,926.3 -1736.1,619.1"
         style="fill:#80c4a4;fill-opacity:1;fill-rule:nonzero;stroke:none"
         id="path416" /><path
         d="m 19889.1,6703.8 c -644.7,-304.2 -1417.4,-28.7 -1722.5,614.4 -305,643 -28.7,1413.6 616,1717.9 302.2,142.7 643.3,163.4 960.5,58.4 l 6.5,19.3 c -322.2,106.7 -668.8,85.7 -975.8,-59.2 -654.9,-309.1 -935.6,-1092 -625.7,-1745.2 309.9,-653.2 1094.9,-933.1 1749.7,-624 304,143.5 538.9,394.4 661.5,706.6 l -19.1,7.4 c -120.6,-307.3 -351.9,-554.3 -651.1,-695.6"
         style="fill:#21111d;fill-opacity:1;fill-rule:nonzero;stroke:none"
         id="path418" /><path
         d="m 20490.1,6107 c -53.3,-15.8 -44.8,-14.1 -60.2,-22.6 l -148.2,6 c -49.9,8.4 -117.7,25.2 -117.7,25.2 -21.9,6.8 -43.4,-0.2 -49.6,-22.4 -5.9,-20.9 7.9,-43.8 28.8,-50.3 l 201.3,-62.8 c 4.8,-1.5 7.7,-6.2 6.8,-11.1 l -1.8,-10.5 c -0.9,-5.3 -6.1,-8.9 -11.5,-8 l -224,38.9 c -22.6,4 -44.1,-11.5 -47.4,-34.3 -3.1,-21.5 13.6,-42.4 35.1,-46.2 l 222.3,-38.6 c 5.4,-1 9,-6.1 8.1,-11.5 l -0.6,-3.3 c -0.8,-4.6 -4.8,-8 -9.5,-8.1 l -203.7,-4.9 c -22.9,-0.5 -44.8,-19.3 -48.8,-41.8 -3.9,-22.5 11.6,-40.5 34.5,-40 l 199.7,4.8 c 6.3,0.1 11.1,-5.5 10,-11.6 -0.7,-4.2 -4,-7.4 -8.2,-8.1 l -133.3,-21 c -21.6,-3.4 -38.6,-24 -35.8,-45.6 2.9,-22.9 24.2,-38.7 46.8,-35.1 l 18.5,2.9 c 73.4,11.6 148.2,9.7 221,-5.5 l 252,-52.6 c 12.2,63.9 17.7,100.6 40.9,339.8 9.6,22.3 14.5,51.2 6.1,63.2 0,0 -172.4,132.6 -231.6,115.1"
         style="fill:#fe9f73;fill-opacity:1;fill-rule:nonzero;stroke:none"
         id="path420" /><path
         d="m 22584.2,7526.8 c -149.5,77.9 -456.5,56.8 -456.5,56.8 0,0 411.5,-722.5 424,-755.9 12.4,-33.4 214.7,-35.2 214.7,-35.2 0,0 41,618.1 -182.2,734.3"
         style="fill:#ffffff;fill-opacity:1;fill-rule:nonzero;stroke:none"
         id="path422" /><path
         d="m 22341.7,6842.2 c -4.3,1.5 -9.2,-0.8 -10.7,-5.2 -123.2,-357.8 -363.7,-918.5 -366.1,-924.1 -1.9,-4.3 0.1,-9.3 4.4,-11.1 1.6,-0.7 3.3,-0.9 4.9,-0.6 2.7,0.6 5.1,2.3 6.2,5 2.4,5.6 243.2,566.9 366.6,925.3 1.5,4.4 -0.8,9.2 -5.3,10.7"
         style="fill:#21111d;fill-opacity:1;fill-rule:nonzero;stroke:none"
         id="path424" /><path
         d="m 22205.8,5934.3 -231.7,-12 c -4.7,-0.2 -8.3,-4.2 -8,-8.8 0.2,-4.7 4.2,-8.3 8.9,-8 l 231.7,11.9 1.2,0.2 c 4.1,0.8 7,4.4 6.8,8.7 -0.2,4.7 -4.2,8.2 -8.9,8"
         style="fill:#21111d;fill-opacity:1;fill-rule:nonzero;stroke:none"
         id="path426" /><path
         d="m 20250.4,6096.2 251.2,-40.4 -111.3,192.9 z"
         style="fill:#ff424d;fill-opacity:1;fill-rule:nonzero;stroke:none"
         id="path428" /><path
         d="m 21602.9,7497.4 c -97.3,-72.1 -174.5,-525.2 -174.5,-525.2 l -6.6,-37.7 -28.8,-357.9 -39.2,-545.5 599.3,-121.3 c 8.4,272.3 225.7,1675.9 225.7,1675.9 l -209.7,-4.8 c 0,0 -269,-11.4 -366.2,-83.5"
         style="fill:#7fc6a6;fill-opacity:1;fill-rule:nonzero;stroke:none"
         id="path430" /><path
         d="m 21344.7,6978.7 c -4.6,0.8 -9,-2.2 -9.8,-6.8 -40.6,-228.8 -80.5,-917.9 -80.9,-924.9 -0.2,-2.7 0.9,-5.1 2.8,-6.8 1.4,-1.2 3.1,-2 5.1,-2.1 4.7,-0.3 8.7,3.3 8.9,7.9 0.4,7 40.4,695.1 80.7,923 0.9,4.5 -2.2,8.9 -6.8,9.7"
         style="fill:#21111d;fill-opacity:1;fill-rule:nonzero;stroke:none"
         id="path432" /><path
         d="m 21284.7,7281.4 c -79.3,-110.5 -92.6,-208.7 -93.5,-216.2 l -162.7,-844.1 -0.6,-3.3 60,-95.1 c 2.3,-3.5 6.7,-4.8 10.5,-3.3 l 1.2,0.7 c 4,2.5 5.2,7.7 2.7,11.6 l -56.5,89.5 162.1,841.1 0.1,0.6 c 0.1,1 12.4,100.3 91,209.4 71.4,99.1 213.7,226.7 487.1,275.5 -1.3,5.5 -2.1,11 -2.5,16.7 -279.8,-49.8 -425.7,-181 -498.9,-283.1"
         style="fill:#21111d;fill-opacity:1;fill-rule:nonzero;stroke:none"
         id="path434" /><path
         d="m 20565.5,5742.4 c -7.4,-212.5 0,-234.6 0,-234.6 l 434.8,-114.3 27.6,681.3 -346.6,47.9 c 0,0 -108.4,-167.8 -115.8,-380.3"
         style="fill:#ffffff;fill-opacity:1;fill-rule:nonzero;stroke:none"
         id="path436" /><path
         d="m 21351.7,4489.3 566.4,-91.3 8.7,801.4 -573,108.1 -2.1,-818.2"
         style="fill:#7fc6a6;fill-opacity:1;fill-rule:nonzero;stroke:none"
         id="path438" /><path
         d="m 22260.9,5860.2 c -11.9,2.4 -1196.4,245.8 -1583.4,279.8 l -5,0.4 -2.8,-4.2 c -3.3,-5 -81.6,-125.9 -115.3,-398.9 -0.5,-4.6 2.8,-8.8 7.4,-9.4 4.7,-0.6 8.9,2.7 9.4,7.4 29.7,240.9 96.1,363.8 110.1,387.4 391.3,-35.6 1564.3,-276.6 1576.2,-279 1.1,-0.3 2.2,-0.3 3.3,-0.1 3.2,0.7 6,3.2 6.7,6.6 0.9,4.6 -2,9.1 -6.6,10"
         style="fill:#21111d;fill-opacity:1;fill-rule:nonzero;stroke:none"
         id="path440" /><path
         d="m 22735.8,5998.5 c -5.3,1.2 -10.5,-2.3 -11.6,-7.6 -1.5,-7.1 -151.8,-714.4 -498.3,-783.2 -350.5,-69.5 -1629.8,300.6 -1642.7,304.3 -5.5,1.6 -10.7,-1.5 -12.2,-6.7 -1.6,-5.2 1.4,-10.7 6.7,-12.2 35.6,-10.3 613.7,-177.5 1095.1,-263.5 231.9,-41.5 441.5,-64.1 557,-41.1 359.2,71.2 507.6,768.8 513.7,798.4 1.1,5.4 -2.3,10.5 -7.7,11.6"
         style="fill:#21111d;fill-opacity:1;fill-rule:nonzero;stroke:none"
         id="path442" /><path
         d="m 22108.7,8276.5 c 0,0 -137.7,67.2 -265.1,31 -73.7,-21 -125.5,-87.1 -129.5,-163.5 l -4,-74.7 394.2,143.8 c 0,0 59.4,-32 55,-23 -4.4,8.9 -50.6,86.4 -50.6,86.4"
         style="fill:#fe9f73;fill-opacity:1;fill-rule:nonzero;stroke:none"
         id="path444" /><path
         d="m 22125.3,8252.1 -410.8,-99.7 -16.8,-315 c 0,0 -10.7,-112.3 87.3,-131.6 l -26.4,-149.2 c -9.8,-55.4 20.8,-110.6 73.6,-130.4 25.9,-9.7 56.9,-17.5 92.5,-19.3 112.8,-6 178.4,75.1 190.1,116.8 11.6,41.8 -5.8,244.9 -5.8,244.9 l 8.7,98.9 7.6,384.6"
         style="fill:#fe9f73;fill-opacity:1;fill-rule:nonzero;stroke:none"
         id="path446" /><path
         d="m 21859.5,8023 c -2.1,-1.6 -2.6,-4.5 -1.1,-6.6 1.5,-2.1 4.5,-2.6 6.6,-1.1 54.6,39.3 108.5,-21.6 110.7,-24.2 0.9,-1 2.1,-1.6 3.3,-1.7 1.2,0 2.4,0.3 3.4,1.2 1.9,1.7 2.2,4.6 0.5,6.6 -0.6,0.7 -61.8,70.1 -123.4,25.8"
         style="fill:#21111d;fill-opacity:1;fill-rule:nonzero;stroke:none"
         id="path448" /><path
         d="m 21716,8055.5 c -2.1,-1.5 -2.5,-4.5 -0.9,-6.5 1.6,-2.1 4.6,-2.5 6.6,-0.9 23.3,17.8 61.6,-18.6 62,-18.9 0.9,-0.9 1.9,-1.3 3,-1.3 1.4,-0.1 2.7,0.4 3.7,1.4 1.8,1.8 1.7,4.8 -0.1,6.6 -1.9,1.8 -44.7,42.4 -74.3,19.6"
         style="fill:#21111d;fill-opacity:1;fill-rule:nonzero;stroke:none"
         id="path450" /><path
         d="m 21897.8,7988.8 c -7.8,0.5 -14.4,-5.5 -14.8,-13.3 -0.5,-7.7 5.5,-14.4 13.3,-14.8 7.8,-0.4 14.5,5.6 14.9,13.3 0.4,7.8 -5.6,14.4 -13.4,14.8"
         style="fill:#000000;fill-opacity:1;fill-rule:nonzero;stroke:none"
         id="path452" /><path
         d="m 21748.6,8010.9 c -7.8,0.4 -14.4,-5.6 -14.8,-13.4 -0.4,-7.7 5.5,-14.4 13.3,-14.8 7.8,-0.4 14.5,5.6 14.9,13.4 0.4,7.7 -5.6,14.4 -13.4,14.8"
         style="fill:#000000;fill-opacity:1;fill-rule:nonzero;stroke:none"
         id="path454" /><path
         d="m 22108.9,8281.4 9.9,-30.6 -58.6,-135 21.3,-348.1 c 146.6,-23.5 136.7,187.1 139.4,218.1 2.7,31 57.3,83.4 32.5,189.2 -24.7,105.8 -144.5,106.4 -144.5,106.4"
         style="fill:#21111d;fill-opacity:1;fill-rule:nonzero;stroke:none"
         id="path456" /><path
         d="m 22088.8,8054.2 c -46.7,2.4 -86.6,-33.3 -89.1,-80 -2.5,-46.6 33.4,-86.4 80.1,-88.9 46.8,-2.4 86.7,33.3 89.2,80 2.5,46.6 -33.4,86.4 -80.2,88.9"
         style="fill:#fe9f73;fill-opacity:1;fill-rule:nonzero;stroke:none"
         id="path458" /><path
         d="m 22084.8,8002.2 c 17.2,8.3 37.5,0.5 37.7,0.5 1.2,-0.5 2.6,0.1 3.1,1.3 0.4,1.2 -0.2,2.6 -1.4,3 -0.9,0.4 -22.4,8.6 -41.4,-0.5 -11,-5.3 -18.8,-15.3 -23.2,-29.6 l -2.5,-8.1 6.3,5.6 c 0.9,0.8 22,19.3 45,3.3 12.8,-8.8 13.2,-23.8 9.6,-33.9 -3.7,-10.4 -13.7,-22.3 -29.9,-21.4 h -0.5 c -1.3,0.1 -2.4,-0.9 -2.4,-2.2 -0.1,-1.3 0.8,-2.4 2.1,-2.5 h 0.5 c 17.6,-0.9 30.1,11.6 34.6,24.6 5.4,15.3 1,30.7 -11.3,39.3 -18.1,12.6 -35.5,6 -44.5,0.8 4.2,9.3 10.3,16 18.2,19.8"
         style="fill:#f07162;fill-opacity:1;fill-rule:nonzero;stroke:none"
         id="path460" /><path
         d="m 21785,7705.8 -19.5,-110 c 236.9,5.5 253.5,193.5 253.5,193.5 -82.6,-122.2 -234,-83.5 -234,-83.5"
         style="fill:#f07162;fill-opacity:1;fill-rule:nonzero;stroke:none"
         id="path462" /><path
         d="m 21829.1,7887.8 -46.3,18.1 20.8,109.8 c 0.3,1.2 -0.6,2.5 -1.9,2.7 -1.2,0.3 -2.5,-0.6 -2.7,-1.9 l -21.5,-113.6 49.9,-19.5 0.7,-0.1 c 1,-0.1 2,0.5 2.4,1.5 0.4,1.2 -0.2,2.5 -1.4,3"
         style="fill:#f07162;fill-opacity:1;fill-rule:nonzero;stroke:none"
         id="path464" /><path
         d="m 22063.4,7899.6 -8.5,-159 56.2,1.6 -8,159.6 -39.7,-2.2"
         style="fill:#fe9f73;fill-opacity:1;fill-rule:nonzero;stroke:none"
         id="path466" /><path
         d="m 22087,8285.7 c 0,0 24.2,-67.3 -27.1,-174.9 -51.3,-107.5 118.7,34.9 118.7,34.9 0,0 -2.7,161.4 -91.6,140"
         style="fill:#21111d;fill-opacity:1;fill-rule:nonzero;stroke:none"
         id="path468" /><path
         d="m 21848.1,8398.2 c -106.6,41.1 -97.2,-79 -97.2,-79 0,0 -84.6,2.2 -66.9,-82.9 17.7,-85.2 375.9,-125.5 375.9,-125.5 0,0 198.7,33.6 147.5,136.9 -51.2,103.4 -252.6,109.4 -359.3,150.5"
         style="fill:#21111d;fill-opacity:1;fill-rule:nonzero;stroke:none"
         id="path470" /><path
         d="m 22028.5,8145.8 c -23.6,-43.9 2.1,-139.5 2.1,-139.5 l 14.6,-20.4 19,64.6 69.4,70 c 0,0 -81.5,69.3 -105.1,25.3"
         style="fill:#21111d;fill-opacity:1;fill-rule:nonzero;stroke:none"
         id="path472" /><path
         d="m 21814.7,7809 c 36.1,1.4 47.9,41.6 47.9,41.6 0,0 -97.2,-3.3 -98.8,-3.6 0,0 14.7,-39.3 50.9,-38"
         style="fill:#fbfdfc;fill-opacity:1;fill-rule:nonzero;stroke:none"
         id="path474" /><path
         d="m 20136,5615.6 -135.8,-72.3 c -17.8,-9.5 -21.7,-37.9 -8.1,-62.3 12.5,-22.3 35.5,-32 52,-23.2 l 136.4,72.6 c 4.4,2.4 15.2,24.6 1.8,51.5 -13.3,26.9 -46.3,33.7 -46.3,33.7"
         style="fill:#fe9f73;fill-opacity:1;fill-rule:nonzero;stroke:none"
         id="path476" /><path
         d="m 20187.3,5535.3 -148.8,-84.2 c -17.5,-10 -21,-38.6 -7,-62.9 12.7,-22.1 35.8,-31.2 52.1,-21.9 l 145.1,82.1 c 4.3,2.5 6.6,30.3 -7,57 -13.7,26.6 -34.4,29.9 -34.4,29.9"
         style="fill:#fe9f73;fill-opacity:1;fill-rule:nonzero;stroke:none"
         id="path478" /><path
         d="m 20218.8,5440.7 -137.3,-80.7 c -16.3,-9.5 -19.2,-36.4 -6,-58.8 12.1,-20.5 33.6,-28.7 48.6,-19.8 l 134,78.7 c 4,2.4 5.9,28.4 -7.1,53.1 -12.9,24.7 -32.2,27.5 -32.2,27.5"
         style="fill:#fe9f73;fill-opacity:1;fill-rule:nonzero;stroke:none"
         id="path480" /><path
         d="m 20186.6,5544.8 -146.5,-78.9 c -13.8,-7.3 -32.5,0.8 -42.4,18.7 -5.3,9.5 -7.6,20.1 -6.3,29.8 1.2,9.7 5.8,17.1 12.9,20.8 l 134.4,71.6 c 3.1,1.7 4,6.7 1.8,11.2 -2.3,4.4 -6.7,6.7 -9.9,4.9 l -134.4,-71.5 c -10.1,-5.4 -17,-16.5 -18.8,-30.5 -1.9,-14.1 1.4,-29.6 9.2,-43.6 14.5,-26.1 41.6,-38.2 61.6,-27.6 l 146.5,79 1.2,0.8 c 2.2,2.2 2.5,6.5 0.6,10.4 -2.2,4.4 -6.7,6.6 -9.9,4.9"
         style="fill:#f07162;fill-opacity:1;fill-rule:nonzero;stroke:none"
         id="path482" /><path
         d="m 20078.6,5692.9 -135.8,-75.2 c -18,-10 -21.4,-39.4 -6.7,-64 12.9,-21.5 35.5,-29.9 51.5,-21 l 145.6,80.6 c 4.3,2.5 7.4,30.5 -6.7,57 -8.2,15.3 -32.8,31 -47.9,22.6"
         style="fill:#fe9f73;fill-opacity:1;fill-rule:nonzero;stroke:none"
         id="path484" /><path
         d="m 20128.6,5622 -145.3,-81.4 c -13.7,-7.5 -32.4,0.4 -42.5,18.1 -5.4,9.5 -7.7,20.1 -6.6,29.8 1.2,9.8 5.7,17.2 12.7,21.1 l 133.2,73.8 c 3.2,1.8 4,6.9 1.7,11.3 -2.3,4.4 -6.7,6.6 -9.9,4.8 l -133.2,-73.8 c -10.1,-5.6 -16.8,-16.8 -18.5,-30.8 -1.7,-14.3 1.7,-29.8 9.6,-43.6 14.8,-26 41.9,-37.7 61.7,-26.8 l 145.3,81.4 1.1,0.9 c 2.2,2.3 2.5,6.6 0.6,10.4 -2.3,4.5 -6.7,6.6 -9.9,4.8"
         style="fill:#f07162;fill-opacity:1;fill-rule:nonzero;stroke:none"
         id="path486" /><path
         d="m 20217.5,5458.2 -140,-82.8 c -13.7,-7.7 -30.4,-0.9 -40.5,16.6 -5.5,9.5 -7.9,20.1 -6.8,29.8 1.1,9.8 5.5,17.3 12.5,21.3 l 148.7,84.2 c 3.2,1.8 3.9,6.8 1.6,11.3 -2.3,4.4 -6.7,6.6 -9.9,4.7 l -148.7,-84.2 c -10,-5.6 -16.7,-17 -18.3,-31.1 -1.6,-14.2 1.9,-29.7 9.9,-43.5 14.9,-25.8 40.1,-36.3 59.9,-25.1 l 140,82.8 1,0.8 c 2.3,2.2 2.6,6.7 0.5,10.6 -2.3,4.4 -6.8,6.5 -9.9,4.6"
         style="fill:#f07162;fill-opacity:1;fill-rule:nonzero;stroke:none"
         id="path488" /><path
         d="m 20249.8,5373 -133.9,-78.7 c -12.4,-7.3 -29.5,-0.4 -39,15.6 -5.1,8.7 -7.4,18.4 -6.4,27.3 0.9,9 4.8,16 11.2,19.7 l 137.3,80.7 c 3.1,1.8 3.8,7 1.5,11.4 -2.3,4.4 -6.7,6.5 -9.9,4.6 l -137.4,-80.7 c -9.3,-5.5 -15.5,-16.3 -16.8,-29.6 -1.4,-13.5 2,-28.1 9.7,-41.1 14.2,-24.2 39.8,-34.7 58.2,-23.9 l 134,78.7 0.9,0.8 c 2.3,2.2 2.6,6.6 0.5,10.6 -2.3,4.4 -6.7,6.4 -9.9,4.6"
         style="fill:#f07162;fill-opacity:1;fill-rule:nonzero;stroke:none"
         id="path490" /><path
         d="m 15835.8,14101.7 c -651.5,0 -1181.6,-530.1 -1181.6,-1181.7 h 20 c 0,640.5 521.1,1161.7 1161.6,1161.7 527.1,0 989.1,-356 1123.4,-865.7 25.4,-96 38.3,-195.6 38.3,-296 h 20 c 0,102.1 -13.1,203.4 -38.9,301.1 -136.7,518.5 -606.6,880.6 -1142.8,880.6"
         style="fill:#1d1d1b;fill-opacity:1;fill-rule:nonzero;stroke:none"
         id="path492" /><path
         d="m 15835.8,14371.7 c -800.4,0 -1451.6,-651.3 -1451.6,-1451.7 h 20 c 0,789.4 642.2,1431.7 1431.6,1431.7 685.1,0 1276.4,-488 1406,-1160.3 17.1,-88.9 25.7,-180.2 25.7,-271.4 h 20 c 0,92.4 -8.8,185 -26.1,275.2 -131.3,681.7 -730.9,1176.5 -1425.6,1176.5"
         style="fill:#1d1d1b;fill-opacity:1;fill-rule:nonzero;stroke:none"
         id="path494" /><path
         d="m 17244.1,9522.5 h -241.8 c -103,0 -186.9,-83.8 -186.9,-186.9 V 8757 h 20 v 578.6 c 0,92.1 74.9,166.9 166.9,166.9 h 241.8 c 92,0 166.9,-74.8 166.9,-166.9 V 8757 h 20 v 578.6 c 0,103.1 -83.9,186.9 -186.9,186.9"
         style="fill:#1d1d1b;fill-opacity:1;fill-rule:nonzero;stroke:none"
         id="path496" /><path
         d="m 16602.6,8747 h 979.4 v 20 h -979.4 v -20"
         style="fill:#1d1d1b;fill-opacity:1;fill-rule:nonzero;stroke:none"
         id="path498" /><path
         d="M 2040.29,1113.6 H 24495.1 v 56.5 H 2040.29 v -56.5"
         style="fill:#49263e;fill-opacity:1;fill-rule:nonzero;stroke:none"
         id="path500" /></g></g></svg>
