<svg width="20" height="20" viewBox="0 0 20 20" fill="none" xmlns="http://www.w3.org/2000/svg">
<mask id="mask0_7_130" style="mask-type:alpha" maskUnits="userSpaceOnUse" x="0" y="0" width="20" height="20">
<rect width="20" height="20" fill="#D9D9D9"/>
</mask>
<g mask="url(#mask0_7_130)">
<path d="M10 3.33333C9.54167 3.33333 9.14944 3.17 8.82333 2.84333C8.49667 2.51722 8.33333 2.125 8.33333 1.66667C8.33333 1.20833 8.49667 0.815833 8.82333 0.489167C9.14944 0.163056 9.54167 0 10 0C10.4583 0 10.8508 0.163056 11.1775 0.489167C11.5036 0.815833 11.6667 1.20833 11.6667 1.66667C11.6667 2.125 11.5036 2.51722 11.1775 2.84333C10.8508 3.17 10.4583 3.33333 10 3.33333ZM7.5 15.8333V5.83333C6.66667 5.76389 5.81944 5.65972 4.95833 5.52083C4.09722 5.38194 3.27778 5.20833 2.5 5L2.91667 3.33333C4 3.625 5.15278 3.83667 6.375 3.96833C7.59722 4.10056 8.80556 4.16667 10 4.16667C11.1944 4.16667 12.4028 4.10056 13.625 3.96833C14.8472 3.83667 16 3.625 17.0833 3.33333L17.5 5C16.7222 5.20833 15.9028 5.38194 15.0417 5.52083C14.1806 5.65972 13.3333 5.76389 12.5 5.83333V15.8333H10.8333V10.8333H9.16667V15.8333H7.5ZM6.66667 20C6.43056 20 6.2325 19.92 6.0725 19.76C5.91306 19.6006 5.83333 19.4028 5.83333 19.1667C5.83333 18.9306 5.91306 18.7328 6.0725 18.5733C6.2325 18.4133 6.43056 18.3333 6.66667 18.3333C6.90278 18.3333 7.10083 18.4133 7.26083 18.5733C7.42028 18.7328 7.5 18.9306 7.5 19.1667C7.5 19.4028 7.42028 19.6006 7.26083 19.76C7.10083 19.92 6.90278 20 6.66667 20ZM10 20C9.76389 20 9.56611 19.92 9.40667 19.76C9.24667 19.6006 9.16667 19.4028 9.16667 19.1667C9.16667 18.9306 9.24667 18.7328 9.40667 18.5733C9.56611 18.4133 9.76389 18.3333 10 18.3333C10.2361 18.3333 10.4342 18.4133 10.5942 18.5733C10.7536 18.7328 10.8333 18.9306 10.8333 19.1667C10.8333 19.4028 10.7536 19.6006 10.5942 19.76C10.4342 19.92 10.2361 20 10 20ZM13.3333 20C13.0972 20 12.8994 19.92 12.74 19.76C12.58 19.6006 12.5 19.4028 12.5 19.1667C12.5 18.9306 12.58 18.7328 12.74 18.5733C12.8994 18.4133 13.0972 18.3333 13.3333 18.3333C13.5694 18.3333 13.7672 18.4133 13.9267 18.5733C14.0867 18.7328 14.1667 18.9306 14.1667 19.1667C14.1667 19.4028 14.0867 19.6006 13.9267 19.76C13.7672 19.92 13.5694 20 13.3333 20Z" fill="#A6B8D0"/>
</g>
</svg>
