<svg width="18" height="19" viewBox="0 0 18 19" fill="none" xmlns="http://www.w3.org/2000/svg">
<path d="M0.666626 19V15.6667H17.3333V19H0.666626ZM2.33329 14V10.875L9.87496 3.33332L13 6.45832L5.45829 14H2.33329ZM3.99996 12.3333H4.74996L10.6666 6.45832L9.87496 5.66665L3.99996 11.5833V12.3333ZM13.9375 5.54165L10.8125 2.41665L12.3125 0.916654C12.4652 0.749987 12.6597 0.669987 12.8958 0.676654C13.1319 0.683876 13.3263 0.763876 13.4791 0.916654L15.4375 2.87499C15.5902 3.02777 15.6666 3.21888 15.6666 3.44832C15.6666 3.67721 15.5902 3.87499 15.4375 4.04165L13.9375 5.54165Z" fill="#353F4E"/>
</svg>
