<svg width="18" height="18" viewBox="0 0 18 18" fill="none" xmlns="http://www.w3.org/2000/svg">
<path d="M0.666626 17.3333C0.666626 15.7917 0.871348 14.4755 1.28079 13.385C1.69079 12.295 2.21524 11.3889 2.85413 10.6667C3.49301 9.94443 4.20829 9.38527 4.99996 8.98916C5.79163 8.5936 6.5694 8.31943 7.33329 8.16666V5.66666C5.43051 5.43055 3.84357 4.8436 2.57246 3.90582C1.3019 2.9686 0.666626 1.88888 0.666626 0.666656H17.3333C17.3333 1.88888 16.6977 2.9686 15.4266 3.90582C14.1561 4.8436 12.5694 5.43055 10.6666 5.66666V8.16666C11.4305 8.31943 12.2083 8.5936 13 8.98916C13.7916 9.38527 14.5069 9.94443 15.1458 10.6667C15.7847 11.3889 16.3091 12.295 16.7191 13.385C17.1286 14.4755 17.3333 15.7917 17.3333 17.3333H12.3333V15.6667H15.5625C15.3125 13.5555 14.5244 12.0278 13.1983 11.0833C11.8716 10.1389 10.4722 9.66666 8.99996 9.66666C7.52774 9.66666 6.12857 10.1389 4.80246 11.0833C3.47579 12.0278 2.68746 13.5555 2.43746 15.6667H5.66663V17.3333H0.666626ZM8.99996 4.10416C10.2638 4.10416 11.3888 3.93388 12.375 3.59332C13.3611 3.25332 14.1458 2.83332 14.7291 2.33332H3.27079C3.85413 2.83332 4.63885 3.25332 5.62496 3.59332C6.61107 3.93388 7.73607 4.10416 8.99996 4.10416ZM8.99996 17.3333C8.54163 17.3333 8.1494 17.1703 7.82329 16.8442C7.49663 16.5175 7.33329 16.125 7.33329 15.6667C7.33329 15.4305 7.37857 15.2153 7.46913 15.0208C7.55913 14.8264 7.68051 14.6528 7.83329 14.5C8.16663 14.1667 8.72913 13.8158 9.52079 13.4475C10.3125 13.0797 11.25 12.7083 12.3333 12.3333C11.9444 13.4167 11.5694 14.3542 11.2083 15.1458C10.8472 15.9375 10.5 16.5 10.1666 16.8333C10.0138 16.9861 9.84024 17.1075 9.64579 17.1975C9.45135 17.288 9.23607 17.3333 8.99996 17.3333Z" fill="#A6B8D0"/>
</svg>
