<svg width="16" height="20" viewBox="0 0 16 20" fill="none" xmlns="http://www.w3.org/2000/svg">
<path d="M8 3.33333C7.54167 3.33333 7.14944 3.17 6.82333 2.84333C6.49667 2.51722 6.33333 2.125 6.33333 1.66667C6.33333 1.20833 6.49667 0.815833 6.82333 0.489167C7.14944 0.163056 7.54167 0 8 0C8.45833 0 8.85083 0.163056 9.1775 0.489167C9.50361 0.815833 9.66667 1.20833 9.66667 1.66667C9.66667 2.125 9.50361 2.51722 9.1775 2.84333C8.85083 3.17 8.45833 3.33333 8 3.33333ZM5.5 15.8333V5.83333C4.66667 5.76389 3.81944 5.65972 2.95833 5.52083C2.09722 5.38194 1.27778 5.20833 0.5 5L0.916667 3.33333C2 3.625 3.15278 3.83667 4.375 3.96833C5.59722 4.10056 6.80556 4.16667 8 4.16667C9.19444 4.16667 10.4028 4.10056 11.625 3.96833C12.8472 3.83667 14 3.625 15.0833 3.33333L15.5 5C14.7222 5.20833 13.9028 5.38194 13.0417 5.52083C12.1806 5.65972 11.3333 5.76389 10.5 5.83333V15.8333H8.83333V10.8333H7.16667V15.8333H5.5ZM4.66667 20C4.43056 20 4.2325 19.92 4.0725 19.76C3.91306 19.6006 3.83333 19.4028 3.83333 19.1667C3.83333 18.9306 3.91306 18.7328 4.0725 18.5733C4.2325 18.4133 4.43056 18.3333 4.66667 18.3333C4.90278 18.3333 5.10083 18.4133 5.26083 18.5733C5.42028 18.7328 5.5 18.9306 5.5 19.1667C5.5 19.4028 5.42028 19.6006 5.26083 19.76C5.10083 19.92 4.90278 20 4.66667 20ZM8 20C7.76389 20 7.56611 19.92 7.40667 19.76C7.24667 19.6006 7.16667 19.4028 7.16667 19.1667C7.16667 18.9306 7.24667 18.7328 7.40667 18.5733C7.56611 18.4133 7.76389 18.3333 8 18.3333C8.23611 18.3333 8.43417 18.4133 8.59417 18.5733C8.75361 18.7328 8.83333 18.9306 8.83333 19.1667C8.83333 19.4028 8.75361 19.6006 8.59417 19.76C8.43417 19.92 8.23611 20 8 20ZM11.3333 20C11.0972 20 10.8994 19.92 10.74 19.76C10.58 19.6006 10.5 19.4028 10.5 19.1667C10.5 18.9306 10.58 18.7328 10.74 18.5733C10.8994 18.4133 11.0972 18.3333 11.3333 18.3333C11.5694 18.3333 11.7672 18.4133 11.9267 18.5733C12.0867 18.7328 12.1667 18.9306 12.1667 19.1667C12.1667 19.4028 12.0867 19.6006 11.9267 19.76C11.7672 19.92 11.5694 20 11.3333 20Z" fill="#A6B8D0"/>
</svg>
