<svg width="20" height="20" viewBox="0 0 20 20" fill="none" xmlns="http://www.w3.org/2000/svg">
<mask id="mask0_7_133" style="mask-type:alpha" maskUnits="userSpaceOnUse" x="0" y="0" width="20" height="20">
<rect width="20" height="20" fill="#D9D9D9"/>
</mask>
<g mask="url(#mask0_7_133)">
<path d="M1.66663 18.3333C1.66663 16.7917 1.87135 15.4755 2.28079 14.385C2.69079 13.295 3.21524 12.3889 3.85413 11.6667C4.49301 10.9444 5.20829 10.3853 5.99996 9.98916C6.79163 9.5936 7.5694 9.31943 8.33329 9.16666V6.66666C6.43051 6.43055 4.84357 5.8436 3.57246 4.90582C2.3019 3.9686 1.66663 2.88888 1.66663 1.66666H18.3333C18.3333 2.88888 17.6977 3.9686 16.4266 4.90582C15.1561 5.8436 13.5694 6.43055 11.6666 6.66666V9.16666C12.4305 9.31943 13.2083 9.5936 14 9.98916C14.7916 10.3853 15.5069 10.9444 16.1458 11.6667C16.7847 12.3889 17.3091 13.295 17.7191 14.385C18.1286 15.4755 18.3333 16.7917 18.3333 18.3333H13.3333V16.6667H16.5625C16.3125 14.5555 15.5244 13.0278 14.1983 12.0833C12.8716 11.1389 11.4722 10.6667 9.99996 10.6667C8.52774 10.6667 7.12857 11.1389 5.80246 12.0833C4.47579 13.0278 3.68746 14.5555 3.43746 16.6667H6.66663V18.3333H1.66663ZM9.99996 5.10416C11.2638 5.10416 12.3888 4.93388 13.375 4.59332C14.3611 4.25332 15.1458 3.83332 15.7291 3.33332H4.27079C4.85413 3.83332 5.63885 4.25332 6.62496 4.59332C7.61107 4.93388 8.73607 5.10416 9.99996 5.10416ZM9.99996 18.3333C9.54163 18.3333 9.1494 18.1703 8.82329 17.8442C8.49663 17.5175 8.33329 17.125 8.33329 16.6667C8.33329 16.4305 8.37857 16.2153 8.46913 16.0208C8.55913 15.8264 8.68051 15.6528 8.83329 15.5C9.16663 15.1667 9.72913 14.8158 10.5208 14.4475C11.3125 14.0797 12.25 13.7083 13.3333 13.3333C12.9444 14.4167 12.5694 15.3542 12.2083 16.1458C11.8472 16.9375 11.5 17.5 11.1666 17.8333C11.0138 17.9861 10.8402 18.1075 10.6458 18.1975C10.4513 18.288 10.2361 18.3333 9.99996 18.3333Z" fill="#A6B8D0"/>
</g>
</svg>
